<?xml version="1.0" encoding="utf-8" standalone="no"?>
<!DOCTYPE svg PUBLIC "-//W3C//DTD SVG 1.1//EN"
  "http://www.w3.org/Graphics/SVG/1.1/DTD/svg11.dtd">
<!-- Created with matplotlib (https://matplotlib.org/) -->
<svg height="349.375938pt" version="1.1" viewBox="0 0 1285.689757 349.375938" width="1285.689757pt" xmlns="http://www.w3.org/2000/svg" xmlns:xlink="http://www.w3.org/1999/xlink">
 <defs>
  <style type="text/css">
*{stroke-linecap:butt;stroke-linejoin:round;}
  </style>
 </defs>
 <g id="figure_1">
  <g id="patch_1">
   <path d="M 0 349.375938 
L 1285.689757 349.375938 
L 1285.689757 0 
L 0 0 
z
" style="fill:#ffffff;"/>
  </g>
  <g id="axes_1">
   <g id="patch_2">
    <path d="M 47.019375 304.077188 
L 313.88894 304.077188 
L 313.88894 26.877188 
L 47.019375 26.877188 
z
" style="fill:#ffffff;"/>
   </g>
   <g id="matplotlib.axis_1">
    <g id="xtick_1">
     <g id="line2d_1">
      <path clip-path="url(#pe4dd979b70)" d="M 59.14981 304.077188 
L 59.14981 26.877188 
" style="fill:none;stroke:#b0b0b0;stroke-linecap:square;stroke-width:0.8;"/>
     </g>
     <g id="line2d_2">
      <defs>
       <path d="M 0 0 
L 0 3.5 
" id="m61ab8b5b98" style="stroke:#000000;stroke-width:0.8;"/>
      </defs>
      <g>
       <use style="stroke:#000000;stroke-width:0.8;" x="59.14981" xlink:href="#m61ab8b5b98" y="304.077188"/>
      </g>
     </g>
     <g id="text_1">
      <!-- 0 -->
      <defs>
       <path d="M 31.78125 66.40625 
Q 24.171875 66.40625 20.328125 58.90625 
Q 16.5 51.421875 16.5 36.375 
Q 16.5 21.390625 20.328125 13.890625 
Q 24.171875 6.390625 31.78125 6.390625 
Q 39.453125 6.390625 43.28125 13.890625 
Q 47.125 21.390625 47.125 36.375 
Q 47.125 51.421875 43.28125 58.90625 
Q 39.453125 66.40625 31.78125 66.40625 
z
M 31.78125 74.21875 
Q 44.046875 74.21875 50.515625 64.515625 
Q 56.984375 54.828125 56.984375 36.375 
Q 56.984375 17.96875 50.515625 8.265625 
Q 44.046875 -1.421875 31.78125 -1.421875 
Q 19.53125 -1.421875 13.0625 8.265625 
Q 6.59375 17.96875 6.59375 36.375 
Q 6.59375 54.828125 13.0625 64.515625 
Q 19.53125 74.21875 31.78125 74.21875 
z
" id="DejaVuSans-48"/>
      </defs>
      <g transform="translate(55.33231 320.195313)scale(0.12 -0.12)">
       <use xlink:href="#DejaVuSans-48"/>
      </g>
     </g>
    </g>
    <g id="xtick_2">
     <g id="line2d_3">
      <path clip-path="url(#pe4dd979b70)" d="M 100.978895 304.077188 
L 100.978895 26.877188 
" style="fill:none;stroke:#b0b0b0;stroke-linecap:square;stroke-width:0.8;"/>
     </g>
     <g id="line2d_4">
      <g>
       <use style="stroke:#000000;stroke-width:0.8;" x="100.978895" xlink:href="#m61ab8b5b98" y="304.077188"/>
      </g>
     </g>
     <g id="text_2">
      <!-- 5 -->
      <defs>
       <path d="M 10.796875 72.90625 
L 49.515625 72.90625 
L 49.515625 64.59375 
L 19.828125 64.59375 
L 19.828125 46.734375 
Q 21.96875 47.46875 24.109375 47.828125 
Q 26.265625 48.1875 28.421875 48.1875 
Q 40.625 48.1875 47.75 41.5 
Q 54.890625 34.8125 54.890625 23.390625 
Q 54.890625 11.625 47.5625 5.09375 
Q 40.234375 -1.421875 26.90625 -1.421875 
Q 22.3125 -1.421875 17.546875 -0.640625 
Q 12.796875 0.140625 7.71875 1.703125 
L 7.71875 11.625 
Q 12.109375 9.234375 16.796875 8.0625 
Q 21.484375 6.890625 26.703125 6.890625 
Q 35.15625 6.890625 40.078125 11.328125 
Q 45.015625 15.765625 45.015625 23.390625 
Q 45.015625 31 40.078125 35.4375 
Q 35.15625 39.890625 26.703125 39.890625 
Q 22.75 39.890625 18.8125 39.015625 
Q 14.890625 38.140625 10.796875 36.28125 
z
" id="DejaVuSans-53"/>
      </defs>
      <g transform="translate(97.161395 320.195313)scale(0.12 -0.12)">
       <use xlink:href="#DejaVuSans-53"/>
      </g>
     </g>
    </g>
    <g id="xtick_3">
     <g id="line2d_5">
      <path clip-path="url(#pe4dd979b70)" d="M 142.807981 304.077188 
L 142.807981 26.877188 
" style="fill:none;stroke:#b0b0b0;stroke-linecap:square;stroke-width:0.8;"/>
     </g>
     <g id="line2d_6">
      <g>
       <use style="stroke:#000000;stroke-width:0.8;" x="142.807981" xlink:href="#m61ab8b5b98" y="304.077188"/>
      </g>
     </g>
     <g id="text_3">
      <!-- 10 -->
      <defs>
       <path d="M 12.40625 8.296875 
L 28.515625 8.296875 
L 28.515625 63.921875 
L 10.984375 60.40625 
L 10.984375 69.390625 
L 28.421875 72.90625 
L 38.28125 72.90625 
L 38.28125 8.296875 
L 54.390625 8.296875 
L 54.390625 0 
L 12.40625 0 
z
" id="DejaVuSans-49"/>
      </defs>
      <g transform="translate(135.172981 320.195313)scale(0.12 -0.12)">
       <use xlink:href="#DejaVuSans-49"/>
       <use x="63.623047" xlink:href="#DejaVuSans-48"/>
      </g>
     </g>
    </g>
    <g id="xtick_4">
     <g id="line2d_7">
      <path clip-path="url(#pe4dd979b70)" d="M 184.637066 304.077188 
L 184.637066 26.877188 
" style="fill:none;stroke:#b0b0b0;stroke-linecap:square;stroke-width:0.8;"/>
     </g>
     <g id="line2d_8">
      <g>
       <use style="stroke:#000000;stroke-width:0.8;" x="184.637066" xlink:href="#m61ab8b5b98" y="304.077188"/>
      </g>
     </g>
     <g id="text_4">
      <!-- 15 -->
      <g transform="translate(177.002066 320.195313)scale(0.12 -0.12)">
       <use xlink:href="#DejaVuSans-49"/>
       <use x="63.623047" xlink:href="#DejaVuSans-53"/>
      </g>
     </g>
    </g>
    <g id="xtick_5">
     <g id="line2d_9">
      <path clip-path="url(#pe4dd979b70)" d="M 226.466152 304.077188 
L 226.466152 26.877188 
" style="fill:none;stroke:#b0b0b0;stroke-linecap:square;stroke-width:0.8;"/>
     </g>
     <g id="line2d_10">
      <g>
       <use style="stroke:#000000;stroke-width:0.8;" x="226.466152" xlink:href="#m61ab8b5b98" y="304.077188"/>
      </g>
     </g>
     <g id="text_5">
      <!-- 20 -->
      <defs>
       <path d="M 19.1875 8.296875 
L 53.609375 8.296875 
L 53.609375 0 
L 7.328125 0 
L 7.328125 8.296875 
Q 12.9375 14.109375 22.625 23.890625 
Q 32.328125 33.6875 34.8125 36.53125 
Q 39.546875 41.84375 41.421875 45.53125 
Q 43.3125 49.21875 43.3125 52.78125 
Q 43.3125 58.59375 39.234375 62.25 
Q 35.15625 65.921875 28.609375 65.921875 
Q 23.96875 65.921875 18.8125 64.3125 
Q 13.671875 62.703125 7.8125 59.421875 
L 7.8125 69.390625 
Q 13.765625 71.78125 18.9375 73 
Q 24.125 74.21875 28.421875 74.21875 
Q 39.75 74.21875 46.484375 68.546875 
Q 53.21875 62.890625 53.21875 53.421875 
Q 53.21875 48.921875 51.53125 44.890625 
Q 49.859375 40.875 45.40625 35.40625 
Q 44.1875 33.984375 37.640625 27.21875 
Q 31.109375 20.453125 19.1875 8.296875 
z
" id="DejaVuSans-50"/>
      </defs>
      <g transform="translate(218.831152 320.195313)scale(0.12 -0.12)">
       <use xlink:href="#DejaVuSans-50"/>
       <use x="63.623047" xlink:href="#DejaVuSans-48"/>
      </g>
     </g>
    </g>
    <g id="xtick_6">
     <g id="line2d_11">
      <path clip-path="url(#pe4dd979b70)" d="M 268.295237 304.077188 
L 268.295237 26.877188 
" style="fill:none;stroke:#b0b0b0;stroke-linecap:square;stroke-width:0.8;"/>
     </g>
     <g id="line2d_12">
      <g>
       <use style="stroke:#000000;stroke-width:0.8;" x="268.295237" xlink:href="#m61ab8b5b98" y="304.077188"/>
      </g>
     </g>
     <g id="text_6">
      <!-- 25 -->
      <g transform="translate(260.660237 320.195313)scale(0.12 -0.12)">
       <use xlink:href="#DejaVuSans-50"/>
       <use x="63.623047" xlink:href="#DejaVuSans-53"/>
      </g>
     </g>
    </g>
    <g id="xtick_7">
     <g id="line2d_13">
      <path clip-path="url(#pe4dd979b70)" d="M 310.124323 304.077188 
L 310.124323 26.877188 
" style="fill:none;stroke:#b0b0b0;stroke-linecap:square;stroke-width:0.8;"/>
     </g>
     <g id="line2d_14">
      <g>
       <use style="stroke:#000000;stroke-width:0.8;" x="310.124323" xlink:href="#m61ab8b5b98" y="304.077188"/>
      </g>
     </g>
     <g id="text_7">
      <!-- 30 -->
      <defs>
       <path d="M 40.578125 39.3125 
Q 47.65625 37.796875 51.625 33 
Q 55.609375 28.21875 55.609375 21.1875 
Q 55.609375 10.40625 48.1875 4.484375 
Q 40.765625 -1.421875 27.09375 -1.421875 
Q 22.515625 -1.421875 17.65625 -0.515625 
Q 12.796875 0.390625 7.625 2.203125 
L 7.625 11.71875 
Q 11.71875 9.328125 16.59375 8.109375 
Q 21.484375 6.890625 26.8125 6.890625 
Q 36.078125 6.890625 40.9375 10.546875 
Q 45.796875 14.203125 45.796875 21.1875 
Q 45.796875 27.640625 41.28125 31.265625 
Q 36.765625 34.90625 28.71875 34.90625 
L 20.21875 34.90625 
L 20.21875 43.015625 
L 29.109375 43.015625 
Q 36.375 43.015625 40.234375 45.921875 
Q 44.09375 48.828125 44.09375 54.296875 
Q 44.09375 59.90625 40.109375 62.90625 
Q 36.140625 65.921875 28.71875 65.921875 
Q 24.65625 65.921875 20.015625 65.03125 
Q 15.375 64.15625 9.8125 62.3125 
L 9.8125 71.09375 
Q 15.4375 72.65625 20.34375 73.4375 
Q 25.25 74.21875 29.59375 74.21875 
Q 40.828125 74.21875 47.359375 69.109375 
Q 53.90625 64.015625 53.90625 55.328125 
Q 53.90625 49.265625 50.4375 45.09375 
Q 46.96875 40.921875 40.578125 39.3125 
z
" id="DejaVuSans-51"/>
      </defs>
      <g transform="translate(302.489323 320.195313)scale(0.12 -0.12)">
       <use xlink:href="#DejaVuSans-51"/>
       <use x="63.623047" xlink:href="#DejaVuSans-48"/>
      </g>
     </g>
    </g>
    <g id="text_8">
     <!-- iteration -->
     <defs>
      <path d="M 9.421875 54.6875 
L 18.40625 54.6875 
L 18.40625 0 
L 9.421875 0 
z
M 9.421875 75.984375 
L 18.40625 75.984375 
L 18.40625 64.59375 
L 9.421875 64.59375 
z
" id="DejaVuSans-105"/>
      <path d="M 18.3125 70.21875 
L 18.3125 54.6875 
L 36.8125 54.6875 
L 36.8125 47.703125 
L 18.3125 47.703125 
L 18.3125 18.015625 
Q 18.3125 11.328125 20.140625 9.421875 
Q 21.96875 7.515625 27.59375 7.515625 
L 36.8125 7.515625 
L 36.8125 0 
L 27.59375 0 
Q 17.1875 0 13.234375 3.875 
Q 9.28125 7.765625 9.28125 18.015625 
L 9.28125 47.703125 
L 2.6875 47.703125 
L 2.6875 54.6875 
L 9.28125 54.6875 
L 9.28125 70.21875 
z
" id="DejaVuSans-116"/>
      <path d="M 56.203125 29.59375 
L 56.203125 25.203125 
L 14.890625 25.203125 
Q 15.484375 15.921875 20.484375 11.0625 
Q 25.484375 6.203125 34.421875 6.203125 
Q 39.59375 6.203125 44.453125 7.46875 
Q 49.3125 8.734375 54.109375 11.28125 
L 54.109375 2.78125 
Q 49.265625 0.734375 44.1875 -0.34375 
Q 39.109375 -1.421875 33.890625 -1.421875 
Q 20.796875 -1.421875 13.15625 6.1875 
Q 5.515625 13.8125 5.515625 26.8125 
Q 5.515625 40.234375 12.765625 48.109375 
Q 20.015625 56 32.328125 56 
Q 43.359375 56 49.78125 48.890625 
Q 56.203125 41.796875 56.203125 29.59375 
z
M 47.21875 32.234375 
Q 47.125 39.59375 43.09375 43.984375 
Q 39.0625 48.390625 32.421875 48.390625 
Q 24.90625 48.390625 20.390625 44.140625 
Q 15.875 39.890625 15.1875 32.171875 
z
" id="DejaVuSans-101"/>
      <path d="M 41.109375 46.296875 
Q 39.59375 47.171875 37.8125 47.578125 
Q 36.03125 48 33.890625 48 
Q 26.265625 48 22.1875 43.046875 
Q 18.109375 38.09375 18.109375 28.8125 
L 18.109375 0 
L 9.078125 0 
L 9.078125 54.6875 
L 18.109375 54.6875 
L 18.109375 46.1875 
Q 20.953125 51.171875 25.484375 53.578125 
Q 30.03125 56 36.53125 56 
Q 37.453125 56 38.578125 55.875 
Q 39.703125 55.765625 41.0625 55.515625 
z
" id="DejaVuSans-114"/>
      <path d="M 34.28125 27.484375 
Q 23.390625 27.484375 19.1875 25 
Q 14.984375 22.515625 14.984375 16.5 
Q 14.984375 11.71875 18.140625 8.90625 
Q 21.296875 6.109375 26.703125 6.109375 
Q 34.1875 6.109375 38.703125 11.40625 
Q 43.21875 16.703125 43.21875 25.484375 
L 43.21875 27.484375 
z
M 52.203125 31.203125 
L 52.203125 0 
L 43.21875 0 
L 43.21875 8.296875 
Q 40.140625 3.328125 35.546875 0.953125 
Q 30.953125 -1.421875 24.3125 -1.421875 
Q 15.921875 -1.421875 10.953125 3.296875 
Q 6 8.015625 6 15.921875 
Q 6 25.140625 12.171875 29.828125 
Q 18.359375 34.515625 30.609375 34.515625 
L 43.21875 34.515625 
L 43.21875 35.40625 
Q 43.21875 41.609375 39.140625 45 
Q 35.0625 48.390625 27.6875 48.390625 
Q 23 48.390625 18.546875 47.265625 
Q 14.109375 46.140625 10.015625 43.890625 
L 10.015625 52.203125 
Q 14.9375 54.109375 19.578125 55.046875 
Q 24.21875 56 28.609375 56 
Q 40.484375 56 46.34375 49.84375 
Q 52.203125 43.703125 52.203125 31.203125 
z
" id="DejaVuSans-97"/>
      <path d="M 30.609375 48.390625 
Q 23.390625 48.390625 19.1875 42.75 
Q 14.984375 37.109375 14.984375 27.296875 
Q 14.984375 17.484375 19.15625 11.84375 
Q 23.34375 6.203125 30.609375 6.203125 
Q 37.796875 6.203125 41.984375 11.859375 
Q 46.1875 17.53125 46.1875 27.296875 
Q 46.1875 37.015625 41.984375 42.703125 
Q 37.796875 48.390625 30.609375 48.390625 
z
M 30.609375 56 
Q 42.328125 56 49.015625 48.375 
Q 55.71875 40.765625 55.71875 27.296875 
Q 55.71875 13.875 49.015625 6.21875 
Q 42.328125 -1.421875 30.609375 -1.421875 
Q 18.84375 -1.421875 12.171875 6.21875 
Q 5.515625 13.875 5.515625 27.296875 
Q 5.515625 40.765625 12.171875 48.375 
Q 18.84375 56 30.609375 56 
z
" id="DejaVuSans-111"/>
      <path d="M 54.890625 33.015625 
L 54.890625 0 
L 45.90625 0 
L 45.90625 32.71875 
Q 45.90625 40.484375 42.875 44.328125 
Q 39.84375 48.1875 33.796875 48.1875 
Q 26.515625 48.1875 22.3125 43.546875 
Q 18.109375 38.921875 18.109375 30.90625 
L 18.109375 0 
L 9.078125 0 
L 9.078125 54.6875 
L 18.109375 54.6875 
L 18.109375 46.1875 
Q 21.34375 51.125 25.703125 53.5625 
Q 30.078125 56 35.796875 56 
Q 45.21875 56 50.046875 50.171875 
Q 54.890625 44.34375 54.890625 33.015625 
z
" id="DejaVuSans-110"/>
     </defs>
     <g transform="translate(146.657908 338.848438)scale(0.16 -0.16)">
      <use xlink:href="#DejaVuSans-105"/>
      <use x="27.783203" xlink:href="#DejaVuSans-116"/>
      <use x="66.992188" xlink:href="#DejaVuSans-101"/>
      <use x="128.515625" xlink:href="#DejaVuSans-114"/>
      <use x="169.628906" xlink:href="#DejaVuSans-97"/>
      <use x="230.908203" xlink:href="#DejaVuSans-116"/>
      <use x="270.117188" xlink:href="#DejaVuSans-105"/>
      <use x="297.900391" xlink:href="#DejaVuSans-111"/>
      <use x="359.082031" xlink:href="#DejaVuSans-110"/>
     </g>
    </g>
   </g>
   <g id="matplotlib.axis_2">
    <g id="ytick_1">
     <g id="line2d_15">
      <path clip-path="url(#pe4dd979b70)" d="M 47.019375 304.077188 
L 313.88894 304.077188 
" style="fill:none;stroke:#b0b0b0;stroke-linecap:square;stroke-width:0.8;"/>
     </g>
     <g id="line2d_16">
      <defs>
       <path d="M 0 0 
L -3.5 0 
" id="m2b58e0bc44" style="stroke:#000000;stroke-width:0.8;"/>
      </defs>
      <g>
       <use style="stroke:#000000;stroke-width:0.8;" x="47.019375" xlink:href="#m2b58e0bc44" y="304.077188"/>
      </g>
     </g>
     <g id="text_9">
      <!-- 0 -->
      <g transform="translate(32.384375 308.63625)scale(0.12 -0.12)">
       <use xlink:href="#DejaVuSans-48"/>
      </g>
     </g>
    </g>
    <g id="ytick_2">
     <g id="line2d_17">
      <path clip-path="url(#pe4dd979b70)" d="M 47.019375 248.637188 
L 313.88894 248.637188 
" style="fill:none;stroke:#b0b0b0;stroke-linecap:square;stroke-width:0.8;"/>
     </g>
     <g id="line2d_18">
      <g>
       <use style="stroke:#000000;stroke-width:0.8;" x="47.019375" xlink:href="#m2b58e0bc44" y="248.637188"/>
      </g>
     </g>
     <g id="text_10">
      <!-- 10 -->
      <g transform="translate(24.749375 253.19625)scale(0.12 -0.12)">
       <use xlink:href="#DejaVuSans-49"/>
       <use x="63.623047" xlink:href="#DejaVuSans-48"/>
      </g>
     </g>
    </g>
    <g id="ytick_3">
     <g id="line2d_19">
      <path clip-path="url(#pe4dd979b70)" d="M 47.019375 193.197188 
L 313.88894 193.197188 
" style="fill:none;stroke:#b0b0b0;stroke-linecap:square;stroke-width:0.8;"/>
     </g>
     <g id="line2d_20">
      <g>
       <use style="stroke:#000000;stroke-width:0.8;" x="47.019375" xlink:href="#m2b58e0bc44" y="193.197188"/>
      </g>
     </g>
     <g id="text_11">
      <!-- 20 -->
      <g transform="translate(24.749375 197.75625)scale(0.12 -0.12)">
       <use xlink:href="#DejaVuSans-50"/>
       <use x="63.623047" xlink:href="#DejaVuSans-48"/>
      </g>
     </g>
    </g>
    <g id="ytick_4">
     <g id="line2d_21">
      <path clip-path="url(#pe4dd979b70)" d="M 47.019375 137.757188 
L 313.88894 137.757188 
" style="fill:none;stroke:#b0b0b0;stroke-linecap:square;stroke-width:0.8;"/>
     </g>
     <g id="line2d_22">
      <g>
       <use style="stroke:#000000;stroke-width:0.8;" x="47.019375" xlink:href="#m2b58e0bc44" y="137.757188"/>
      </g>
     </g>
     <g id="text_12">
      <!-- 30 -->
      <g transform="translate(24.749375 142.31625)scale(0.12 -0.12)">
       <use xlink:href="#DejaVuSans-51"/>
       <use x="63.623047" xlink:href="#DejaVuSans-48"/>
      </g>
     </g>
    </g>
    <g id="ytick_5">
     <g id="line2d_23">
      <path clip-path="url(#pe4dd979b70)" d="M 47.019375 82.317188 
L 313.88894 82.317188 
" style="fill:none;stroke:#b0b0b0;stroke-linecap:square;stroke-width:0.8;"/>
     </g>
     <g id="line2d_24">
      <g>
       <use style="stroke:#000000;stroke-width:0.8;" x="47.019375" xlink:href="#m2b58e0bc44" y="82.317188"/>
      </g>
     </g>
     <g id="text_13">
      <!-- 40 -->
      <defs>
       <path d="M 37.796875 64.3125 
L 12.890625 25.390625 
L 37.796875 25.390625 
z
M 35.203125 72.90625 
L 47.609375 72.90625 
L 47.609375 25.390625 
L 58.015625 25.390625 
L 58.015625 17.1875 
L 47.609375 17.1875 
L 47.609375 0 
L 37.796875 0 
L 37.796875 17.1875 
L 4.890625 17.1875 
L 4.890625 26.703125 
z
" id="DejaVuSans-52"/>
      </defs>
      <g transform="translate(24.749375 86.87625)scale(0.12 -0.12)">
       <use xlink:href="#DejaVuSans-52"/>
       <use x="63.623047" xlink:href="#DejaVuSans-48"/>
      </g>
     </g>
    </g>
    <g id="ytick_6">
     <g id="line2d_25">
      <path clip-path="url(#pe4dd979b70)" d="M 47.019375 26.877188 
L 313.88894 26.877188 
" style="fill:none;stroke:#b0b0b0;stroke-linecap:square;stroke-width:0.8;"/>
     </g>
     <g id="line2d_26">
      <g>
       <use style="stroke:#000000;stroke-width:0.8;" x="47.019375" xlink:href="#m2b58e0bc44" y="26.877188"/>
      </g>
     </g>
     <g id="text_14">
      <!-- 50 -->
      <g transform="translate(24.749375 31.43625)scale(0.12 -0.12)">
       <use xlink:href="#DejaVuSans-53"/>
       <use x="63.623047" xlink:href="#DejaVuSans-48"/>
      </g>
     </g>
    </g>
    <g id="text_15">
     <!-- nContainers -->
     <defs>
      <path d="M 64.40625 67.28125 
L 64.40625 56.890625 
Q 59.421875 61.53125 53.78125 63.8125 
Q 48.140625 66.109375 41.796875 66.109375 
Q 29.296875 66.109375 22.65625 58.46875 
Q 16.015625 50.828125 16.015625 36.375 
Q 16.015625 21.96875 22.65625 14.328125 
Q 29.296875 6.6875 41.796875 6.6875 
Q 48.140625 6.6875 53.78125 8.984375 
Q 59.421875 11.28125 64.40625 15.921875 
L 64.40625 5.609375 
Q 59.234375 2.09375 53.4375 0.328125 
Q 47.65625 -1.421875 41.21875 -1.421875 
Q 24.65625 -1.421875 15.125 8.703125 
Q 5.609375 18.84375 5.609375 36.375 
Q 5.609375 53.953125 15.125 64.078125 
Q 24.65625 74.21875 41.21875 74.21875 
Q 47.75 74.21875 53.53125 72.484375 
Q 59.328125 70.75 64.40625 67.28125 
z
" id="DejaVuSans-67"/>
      <path d="M 44.28125 53.078125 
L 44.28125 44.578125 
Q 40.484375 46.53125 36.375 47.5 
Q 32.28125 48.484375 27.875 48.484375 
Q 21.1875 48.484375 17.84375 46.4375 
Q 14.5 44.390625 14.5 40.28125 
Q 14.5 37.15625 16.890625 35.375 
Q 19.28125 33.59375 26.515625 31.984375 
L 29.59375 31.296875 
Q 39.15625 29.25 43.1875 25.515625 
Q 47.21875 21.78125 47.21875 15.09375 
Q 47.21875 7.46875 41.1875 3.015625 
Q 35.15625 -1.421875 24.609375 -1.421875 
Q 20.21875 -1.421875 15.453125 -0.5625 
Q 10.6875 0.296875 5.421875 2 
L 5.421875 11.28125 
Q 10.40625 8.6875 15.234375 7.390625 
Q 20.0625 6.109375 24.8125 6.109375 
Q 31.15625 6.109375 34.5625 8.28125 
Q 37.984375 10.453125 37.984375 14.40625 
Q 37.984375 18.0625 35.515625 20.015625 
Q 33.0625 21.96875 24.703125 23.78125 
L 21.578125 24.515625 
Q 13.234375 26.265625 9.515625 29.90625 
Q 5.8125 33.546875 5.8125 39.890625 
Q 5.8125 47.609375 11.28125 51.796875 
Q 16.75 56 26.8125 56 
Q 31.78125 56 36.171875 55.265625 
Q 40.578125 54.546875 44.28125 53.078125 
z
" id="DejaVuSans-115"/>
     </defs>
     <g transform="translate(17.837813 207.767031)rotate(-90)scale(0.14 -0.14)">
      <use xlink:href="#DejaVuSans-110"/>
      <use x="63.378906" xlink:href="#DejaVuSans-67"/>
      <use x="133.203125" xlink:href="#DejaVuSans-111"/>
      <use x="194.384766" xlink:href="#DejaVuSans-110"/>
      <use x="257.763672" xlink:href="#DejaVuSans-116"/>
      <use x="296.972656" xlink:href="#DejaVuSans-97"/>
      <use x="358.251953" xlink:href="#DejaVuSans-105"/>
      <use x="386.035156" xlink:href="#DejaVuSans-110"/>
      <use x="449.414062" xlink:href="#DejaVuSans-101"/>
      <use x="510.9375" xlink:href="#DejaVuSans-114"/>
      <use x="552.050781" xlink:href="#DejaVuSans-115"/>
     </g>
    </g>
   </g>
   <g id="line2d_27">
    <path clip-path="url(#pe4dd979b70)" d="M 59.14981 270.813188 
L 67.515627 270.813188 
L 75.881444 270.813188 
L 84.247261 270.813188 
L 92.613078 270.813188 
L 100.978895 270.813188 
L 109.344712 270.813188 
L 117.710529 270.813188 
L 126.076347 270.813188 
L 134.442164 270.813188 
L 142.807981 270.813188 
L 151.173798 270.813188 
L 159.539615 270.813188 
L 167.905432 270.813188 
L 176.271249 270.813188 
L 184.637066 270.813188 
L 193.002883 270.813188 
L 201.3687 270.813188 
L 209.734517 270.813188 
L 218.100335 270.813188 
L 226.466152 270.813188 
L 234.831969 270.813188 
L 243.197786 270.813188 
L 251.563603 270.813188 
L 259.92942 270.813188 
L 268.295237 270.813188 
L 276.661054 270.813188 
L 285.026871 270.813188 
L 293.392688 270.813188 
L 301.758505 270.813188 
" style="fill:none;stroke:#0000ff;stroke-linecap:square;stroke-width:2;"/>
    <defs>
     <path d="M 0 3 
C 0.795609 3 1.55874 2.683901 2.12132 2.12132 
C 2.683901 1.55874 3 0.795609 3 0 
C 3 -0.795609 2.683901 -1.55874 2.12132 -2.12132 
C 1.55874 -2.683901 0.795609 -3 0 -3 
C -0.795609 -3 -1.55874 -2.683901 -2.12132 -2.12132 
C -2.683901 -1.55874 -3 -0.795609 -3 0 
C -3 0.795609 -2.683901 1.55874 -2.12132 2.12132 
C -1.55874 2.683901 -0.795609 3 0 3 
z
" id="m10e4d63a4a" style="stroke:#0000ff;"/>
    </defs>
    <g clip-path="url(#pe4dd979b70)">
     <use style="fill-opacity:0;stroke:#0000ff;" x="59.14981" xlink:href="#m10e4d63a4a" y="270.813188"/>
     <use style="fill-opacity:0;stroke:#0000ff;" x="67.515627" xlink:href="#m10e4d63a4a" y="270.813188"/>
     <use style="fill-opacity:0;stroke:#0000ff;" x="75.881444" xlink:href="#m10e4d63a4a" y="270.813188"/>
     <use style="fill-opacity:0;stroke:#0000ff;" x="84.247261" xlink:href="#m10e4d63a4a" y="270.813188"/>
     <use style="fill-opacity:0;stroke:#0000ff;" x="92.613078" xlink:href="#m10e4d63a4a" y="270.813188"/>
     <use style="fill-opacity:0;stroke:#0000ff;" x="100.978895" xlink:href="#m10e4d63a4a" y="270.813188"/>
     <use style="fill-opacity:0;stroke:#0000ff;" x="109.344712" xlink:href="#m10e4d63a4a" y="270.813188"/>
     <use style="fill-opacity:0;stroke:#0000ff;" x="117.710529" xlink:href="#m10e4d63a4a" y="270.813188"/>
     <use style="fill-opacity:0;stroke:#0000ff;" x="126.076347" xlink:href="#m10e4d63a4a" y="270.813188"/>
     <use style="fill-opacity:0;stroke:#0000ff;" x="134.442164" xlink:href="#m10e4d63a4a" y="270.813188"/>
     <use style="fill-opacity:0;stroke:#0000ff;" x="142.807981" xlink:href="#m10e4d63a4a" y="270.813188"/>
     <use style="fill-opacity:0;stroke:#0000ff;" x="151.173798" xlink:href="#m10e4d63a4a" y="270.813188"/>
     <use style="fill-opacity:0;stroke:#0000ff;" x="159.539615" xlink:href="#m10e4d63a4a" y="270.813188"/>
     <use style="fill-opacity:0;stroke:#0000ff;" x="167.905432" xlink:href="#m10e4d63a4a" y="270.813188"/>
     <use style="fill-opacity:0;stroke:#0000ff;" x="176.271249" xlink:href="#m10e4d63a4a" y="270.813188"/>
     <use style="fill-opacity:0;stroke:#0000ff;" x="184.637066" xlink:href="#m10e4d63a4a" y="270.813188"/>
     <use style="fill-opacity:0;stroke:#0000ff;" x="193.002883" xlink:href="#m10e4d63a4a" y="270.813188"/>
     <use style="fill-opacity:0;stroke:#0000ff;" x="201.3687" xlink:href="#m10e4d63a4a" y="270.813188"/>
     <use style="fill-opacity:0;stroke:#0000ff;" x="209.734517" xlink:href="#m10e4d63a4a" y="270.813188"/>
     <use style="fill-opacity:0;stroke:#0000ff;" x="218.100335" xlink:href="#m10e4d63a4a" y="270.813188"/>
     <use style="fill-opacity:0;stroke:#0000ff;" x="226.466152" xlink:href="#m10e4d63a4a" y="270.813188"/>
     <use style="fill-opacity:0;stroke:#0000ff;" x="234.831969" xlink:href="#m10e4d63a4a" y="270.813188"/>
     <use style="fill-opacity:0;stroke:#0000ff;" x="243.197786" xlink:href="#m10e4d63a4a" y="270.813188"/>
     <use style="fill-opacity:0;stroke:#0000ff;" x="251.563603" xlink:href="#m10e4d63a4a" y="270.813188"/>
     <use style="fill-opacity:0;stroke:#0000ff;" x="259.92942" xlink:href="#m10e4d63a4a" y="270.813188"/>
     <use style="fill-opacity:0;stroke:#0000ff;" x="268.295237" xlink:href="#m10e4d63a4a" y="270.813188"/>
     <use style="fill-opacity:0;stroke:#0000ff;" x="276.661054" xlink:href="#m10e4d63a4a" y="270.813188"/>
     <use style="fill-opacity:0;stroke:#0000ff;" x="285.026871" xlink:href="#m10e4d63a4a" y="270.813188"/>
     <use style="fill-opacity:0;stroke:#0000ff;" x="293.392688" xlink:href="#m10e4d63a4a" y="270.813188"/>
     <use style="fill-opacity:0;stroke:#0000ff;" x="301.758505" xlink:href="#m10e4d63a4a" y="270.813188"/>
    </g>
   </g>
   <g id="line2d_28">
    <path clip-path="url(#pe4dd979b70)" d="M 59.14981 60.141188 
L 67.515627 60.141188 
L 75.881444 60.141188 
L 84.247261 60.141188 
L 92.613078 60.141188 
L 100.978895 60.141188 
L 109.344712 60.141188 
L 117.710529 60.141188 
L 126.076347 60.141188 
L 134.442164 60.141188 
L 142.807981 60.141188 
L 151.173798 60.141188 
L 159.539615 60.141188 
L 167.905432 60.141188 
L 176.271249 60.141188 
L 184.637066 60.141188 
L 193.002883 60.141188 
L 201.3687 60.141188 
L 209.734517 60.141188 
L 218.100335 60.141188 
L 226.466152 60.141188 
L 234.831969 60.141188 
L 243.197786 60.141188 
L 251.563603 60.141188 
L 259.92942 60.141188 
L 268.295237 60.141188 
L 276.661054 60.141188 
L 285.026871 60.141188 
L 293.392688 60.141188 
L 301.758505 60.141188 
" style="fill:none;stroke:#008000;stroke-linecap:square;stroke-width:2;"/>
   </g>
   <g id="line2d_29">
    <path clip-path="url(#pe4dd979b70)" d="M 301.758505 304.077188 
L 301.758505 26.877188 
" style="fill:none;stroke:#000000;stroke-linecap:square;stroke-width:2.5;"/>
   </g>
   <g id="patch_3">
    <path d="M 47.019375 304.077188 
L 47.019375 26.877188 
" style="fill:none;stroke:#000000;stroke-linecap:square;stroke-linejoin:miter;stroke-width:0.8;"/>
   </g>
   <g id="patch_4">
    <path d="M 313.88894 304.077188 
L 313.88894 26.877188 
" style="fill:none;stroke:#000000;stroke-linecap:square;stroke-linejoin:miter;stroke-width:0.8;"/>
   </g>
   <g id="patch_5">
    <path d="M 47.019375 304.077188 
L 313.88894 304.077188 
" style="fill:none;stroke:#000000;stroke-linecap:square;stroke-linejoin:miter;stroke-width:0.8;"/>
   </g>
   <g id="patch_6">
    <path d="M 47.019375 26.877188 
L 313.88894 26.877188 
" style="fill:none;stroke:#000000;stroke-linecap:square;stroke-linejoin:miter;stroke-width:0.8;"/>
   </g>
   <g id="text_16">
    <!-- Number of cores -->
    <defs>
     <path d="M 9.8125 72.90625 
L 23.09375 72.90625 
L 55.421875 11.921875 
L 55.421875 72.90625 
L 64.984375 72.90625 
L 64.984375 0 
L 51.703125 0 
L 19.390625 60.984375 
L 19.390625 0 
L 9.8125 0 
z
" id="DejaVuSans-78"/>
     <path d="M 8.5 21.578125 
L 8.5 54.6875 
L 17.484375 54.6875 
L 17.484375 21.921875 
Q 17.484375 14.15625 20.5 10.265625 
Q 23.53125 6.390625 29.59375 6.390625 
Q 36.859375 6.390625 41.078125 11.03125 
Q 45.3125 15.671875 45.3125 23.6875 
L 45.3125 54.6875 
L 54.296875 54.6875 
L 54.296875 0 
L 45.3125 0 
L 45.3125 8.40625 
Q 42.046875 3.421875 37.71875 1 
Q 33.40625 -1.421875 27.6875 -1.421875 
Q 18.265625 -1.421875 13.375 4.4375 
Q 8.5 10.296875 8.5 21.578125 
z
M 31.109375 56 
z
" id="DejaVuSans-117"/>
     <path d="M 52 44.1875 
Q 55.375 50.25 60.0625 53.125 
Q 64.75 56 71.09375 56 
Q 79.640625 56 84.28125 50.015625 
Q 88.921875 44.046875 88.921875 33.015625 
L 88.921875 0 
L 79.890625 0 
L 79.890625 32.71875 
Q 79.890625 40.578125 77.09375 44.375 
Q 74.3125 48.1875 68.609375 48.1875 
Q 61.625 48.1875 57.5625 43.546875 
Q 53.515625 38.921875 53.515625 30.90625 
L 53.515625 0 
L 44.484375 0 
L 44.484375 32.71875 
Q 44.484375 40.625 41.703125 44.40625 
Q 38.921875 48.1875 33.109375 48.1875 
Q 26.21875 48.1875 22.15625 43.53125 
Q 18.109375 38.875 18.109375 30.90625 
L 18.109375 0 
L 9.078125 0 
L 9.078125 54.6875 
L 18.109375 54.6875 
L 18.109375 46.1875 
Q 21.1875 51.21875 25.484375 53.609375 
Q 29.78125 56 35.6875 56 
Q 41.65625 56 45.828125 52.96875 
Q 50 49.953125 52 44.1875 
z
" id="DejaVuSans-109"/>
     <path d="M 48.6875 27.296875 
Q 48.6875 37.203125 44.609375 42.84375 
Q 40.53125 48.484375 33.40625 48.484375 
Q 26.265625 48.484375 22.1875 42.84375 
Q 18.109375 37.203125 18.109375 27.296875 
Q 18.109375 17.390625 22.1875 11.75 
Q 26.265625 6.109375 33.40625 6.109375 
Q 40.53125 6.109375 44.609375 11.75 
Q 48.6875 17.390625 48.6875 27.296875 
z
M 18.109375 46.390625 
Q 20.953125 51.265625 25.265625 53.625 
Q 29.59375 56 35.59375 56 
Q 45.5625 56 51.78125 48.09375 
Q 58.015625 40.1875 58.015625 27.296875 
Q 58.015625 14.40625 51.78125 6.484375 
Q 45.5625 -1.421875 35.59375 -1.421875 
Q 29.59375 -1.421875 25.265625 0.953125 
Q 20.953125 3.328125 18.109375 8.203125 
L 18.109375 0 
L 9.078125 0 
L 9.078125 75.984375 
L 18.109375 75.984375 
z
" id="DejaVuSans-98"/>
     <path id="DejaVuSans-32"/>
     <path d="M 37.109375 75.984375 
L 37.109375 68.5 
L 28.515625 68.5 
Q 23.6875 68.5 21.796875 66.546875 
Q 19.921875 64.59375 19.921875 59.515625 
L 19.921875 54.6875 
L 34.71875 54.6875 
L 34.71875 47.703125 
L 19.921875 47.703125 
L 19.921875 0 
L 10.890625 0 
L 10.890625 47.703125 
L 2.296875 47.703125 
L 2.296875 54.6875 
L 10.890625 54.6875 
L 10.890625 58.5 
Q 10.890625 67.625 15.140625 71.796875 
Q 19.390625 75.984375 28.609375 75.984375 
z
" id="DejaVuSans-102"/>
     <path d="M 48.78125 52.59375 
L 48.78125 44.1875 
Q 44.96875 46.296875 41.140625 47.34375 
Q 37.3125 48.390625 33.40625 48.390625 
Q 24.65625 48.390625 19.8125 42.84375 
Q 14.984375 37.3125 14.984375 27.296875 
Q 14.984375 17.28125 19.8125 11.734375 
Q 24.65625 6.203125 33.40625 6.203125 
Q 37.3125 6.203125 41.140625 7.25 
Q 44.96875 8.296875 48.78125 10.40625 
L 48.78125 2.09375 
Q 45.015625 0.34375 40.984375 -0.53125 
Q 36.96875 -1.421875 32.421875 -1.421875 
Q 20.0625 -1.421875 12.78125 6.34375 
Q 5.515625 14.109375 5.515625 27.296875 
Q 5.515625 40.671875 12.859375 48.328125 
Q 20.21875 56 33.015625 56 
Q 37.15625 56 41.109375 55.140625 
Q 45.0625 54.296875 48.78125 52.59375 
z
" id="DejaVuSans-99"/>
    </defs>
    <g transform="translate(105.724626 20.877188)scale(0.18 -0.18)">
     <use xlink:href="#DejaVuSans-78"/>
     <use x="74.804688" xlink:href="#DejaVuSans-117"/>
     <use x="138.183594" xlink:href="#DejaVuSans-109"/>
     <use x="235.595703" xlink:href="#DejaVuSans-98"/>
     <use x="299.072266" xlink:href="#DejaVuSans-101"/>
     <use x="360.595703" xlink:href="#DejaVuSans-114"/>
     <use x="401.708984" xlink:href="#DejaVuSans-32"/>
     <use x="433.496094" xlink:href="#DejaVuSans-111"/>
     <use x="494.677734" xlink:href="#DejaVuSans-102"/>
     <use x="529.882812" xlink:href="#DejaVuSans-32"/>
     <use x="561.669922" xlink:href="#DejaVuSans-99"/>
     <use x="616.650391" xlink:href="#DejaVuSans-111"/>
     <use x="677.832031" xlink:href="#DejaVuSans-114"/>
     <use x="716.695312" xlink:href="#DejaVuSans-101"/>
     <use x="778.21875" xlink:href="#DejaVuSans-115"/>
    </g>
   </g>
  </g>
  <g id="axes_2">
   <g id="patch_7">
    <path d="M 367.262853 304.077188 
L 634.132418 304.077188 
L 634.132418 26.877188 
L 367.262853 26.877188 
z
" style="fill:#ffffff;"/>
   </g>
   <g id="matplotlib.axis_3">
    <g id="xtick_8">
     <g id="line2d_30">
      <path clip-path="url(#p17de66d3a0)" d="M 379.393288 304.077188 
L 379.393288 26.877188 
" style="fill:none;stroke:#b0b0b0;stroke-linecap:square;stroke-width:0.8;"/>
     </g>
     <g id="line2d_31">
      <g>
       <use style="stroke:#000000;stroke-width:0.8;" x="379.393288" xlink:href="#m61ab8b5b98" y="304.077188"/>
      </g>
     </g>
     <g id="text_17">
      <!-- 0 -->
      <g transform="translate(375.575788 320.195313)scale(0.12 -0.12)">
       <use xlink:href="#DejaVuSans-48"/>
      </g>
     </g>
    </g>
    <g id="xtick_9">
     <g id="line2d_32">
      <path clip-path="url(#p17de66d3a0)" d="M 421.222374 304.077188 
L 421.222374 26.877188 
" style="fill:none;stroke:#b0b0b0;stroke-linecap:square;stroke-width:0.8;"/>
     </g>
     <g id="line2d_33">
      <g>
       <use style="stroke:#000000;stroke-width:0.8;" x="421.222374" xlink:href="#m61ab8b5b98" y="304.077188"/>
      </g>
     </g>
     <g id="text_18">
      <!-- 5 -->
      <g transform="translate(417.404874 320.195313)scale(0.12 -0.12)">
       <use xlink:href="#DejaVuSans-53"/>
      </g>
     </g>
    </g>
    <g id="xtick_10">
     <g id="line2d_34">
      <path clip-path="url(#p17de66d3a0)" d="M 463.051459 304.077188 
L 463.051459 26.877188 
" style="fill:none;stroke:#b0b0b0;stroke-linecap:square;stroke-width:0.8;"/>
     </g>
     <g id="line2d_35">
      <g>
       <use style="stroke:#000000;stroke-width:0.8;" x="463.051459" xlink:href="#m61ab8b5b98" y="304.077188"/>
      </g>
     </g>
     <g id="text_19">
      <!-- 10 -->
      <g transform="translate(455.416459 320.195313)scale(0.12 -0.12)">
       <use xlink:href="#DejaVuSans-49"/>
       <use x="63.623047" xlink:href="#DejaVuSans-48"/>
      </g>
     </g>
    </g>
    <g id="xtick_11">
     <g id="line2d_36">
      <path clip-path="url(#p17de66d3a0)" d="M 504.880544 304.077188 
L 504.880544 26.877188 
" style="fill:none;stroke:#b0b0b0;stroke-linecap:square;stroke-width:0.8;"/>
     </g>
     <g id="line2d_37">
      <g>
       <use style="stroke:#000000;stroke-width:0.8;" x="504.880544" xlink:href="#m61ab8b5b98" y="304.077188"/>
      </g>
     </g>
     <g id="text_20">
      <!-- 15 -->
      <g transform="translate(497.245544 320.195313)scale(0.12 -0.12)">
       <use xlink:href="#DejaVuSans-49"/>
       <use x="63.623047" xlink:href="#DejaVuSans-53"/>
      </g>
     </g>
    </g>
    <g id="xtick_12">
     <g id="line2d_38">
      <path clip-path="url(#p17de66d3a0)" d="M 546.70963 304.077188 
L 546.70963 26.877188 
" style="fill:none;stroke:#b0b0b0;stroke-linecap:square;stroke-width:0.8;"/>
     </g>
     <g id="line2d_39">
      <g>
       <use style="stroke:#000000;stroke-width:0.8;" x="546.70963" xlink:href="#m61ab8b5b98" y="304.077188"/>
      </g>
     </g>
     <g id="text_21">
      <!-- 20 -->
      <g transform="translate(539.07463 320.195313)scale(0.12 -0.12)">
       <use xlink:href="#DejaVuSans-50"/>
       <use x="63.623047" xlink:href="#DejaVuSans-48"/>
      </g>
     </g>
    </g>
    <g id="xtick_13">
     <g id="line2d_40">
      <path clip-path="url(#p17de66d3a0)" d="M 588.538715 304.077188 
L 588.538715 26.877188 
" style="fill:none;stroke:#b0b0b0;stroke-linecap:square;stroke-width:0.8;"/>
     </g>
     <g id="line2d_41">
      <g>
       <use style="stroke:#000000;stroke-width:0.8;" x="588.538715" xlink:href="#m61ab8b5b98" y="304.077188"/>
      </g>
     </g>
     <g id="text_22">
      <!-- 25 -->
      <g transform="translate(580.903715 320.195313)scale(0.12 -0.12)">
       <use xlink:href="#DejaVuSans-50"/>
       <use x="63.623047" xlink:href="#DejaVuSans-53"/>
      </g>
     </g>
    </g>
    <g id="xtick_14">
     <g id="line2d_42">
      <path clip-path="url(#p17de66d3a0)" d="M 630.367801 304.077188 
L 630.367801 26.877188 
" style="fill:none;stroke:#b0b0b0;stroke-linecap:square;stroke-width:0.8;"/>
     </g>
     <g id="line2d_43">
      <g>
       <use style="stroke:#000000;stroke-width:0.8;" x="630.367801" xlink:href="#m61ab8b5b98" y="304.077188"/>
      </g>
     </g>
     <g id="text_23">
      <!-- 30 -->
      <g transform="translate(622.732801 320.195313)scale(0.12 -0.12)">
       <use xlink:href="#DejaVuSans-51"/>
       <use x="63.623047" xlink:href="#DejaVuSans-48"/>
      </g>
     </g>
    </g>
    <g id="text_24">
     <!-- iteration -->
     <g transform="translate(466.901386 338.848438)scale(0.16 -0.16)">
      <use xlink:href="#DejaVuSans-105"/>
      <use x="27.783203" xlink:href="#DejaVuSans-116"/>
      <use x="66.992188" xlink:href="#DejaVuSans-101"/>
      <use x="128.515625" xlink:href="#DejaVuSans-114"/>
      <use x="169.628906" xlink:href="#DejaVuSans-97"/>
      <use x="230.908203" xlink:href="#DejaVuSans-116"/>
      <use x="270.117188" xlink:href="#DejaVuSans-105"/>
      <use x="297.900391" xlink:href="#DejaVuSans-111"/>
      <use x="359.082031" xlink:href="#DejaVuSans-110"/>
     </g>
    </g>
   </g>
   <g id="matplotlib.axis_4">
    <g id="ytick_7">
     <g id="line2d_44">
      <path clip-path="url(#p17de66d3a0)" d="M 367.262853 274.891032 
L 634.132418 274.891032 
" style="fill:none;stroke:#b0b0b0;stroke-linecap:square;stroke-width:0.8;"/>
     </g>
     <g id="line2d_45">
      <g>
       <use style="stroke:#000000;stroke-width:0.8;" x="367.262853" xlink:href="#m2b58e0bc44" y="274.891032"/>
      </g>
     </g>
     <g id="text_25">
      <!-- 3.0 -->
      <defs>
       <path d="M 10.6875 12.40625 
L 21 12.40625 
L 21 0 
L 10.6875 0 
z
" id="DejaVuSans-46"/>
      </defs>
      <g transform="translate(341.179103 279.450094)scale(0.12 -0.12)">
       <use xlink:href="#DejaVuSans-51"/>
       <use x="63.623047" xlink:href="#DejaVuSans-46"/>
       <use x="95.410156" xlink:href="#DejaVuSans-48"/>
      </g>
     </g>
    </g>
    <g id="ytick_8">
     <g id="line2d_46">
      <path clip-path="url(#p17de66d3a0)" d="M 367.262853 215.715128 
L 634.132418 215.715128 
" style="fill:none;stroke:#b0b0b0;stroke-linecap:square;stroke-width:0.8;"/>
     </g>
     <g id="line2d_47">
      <g>
       <use style="stroke:#000000;stroke-width:0.8;" x="367.262853" xlink:href="#m2b58e0bc44" y="215.715128"/>
      </g>
     </g>
     <g id="text_26">
      <!-- 3.5 -->
      <g transform="translate(341.179103 220.27419)scale(0.12 -0.12)">
       <use xlink:href="#DejaVuSans-51"/>
       <use x="63.623047" xlink:href="#DejaVuSans-46"/>
       <use x="95.410156" xlink:href="#DejaVuSans-53"/>
      </g>
     </g>
    </g>
    <g id="ytick_9">
     <g id="line2d_48">
      <path clip-path="url(#p17de66d3a0)" d="M 367.262853 156.539223 
L 634.132418 156.539223 
" style="fill:none;stroke:#b0b0b0;stroke-linecap:square;stroke-width:0.8;"/>
     </g>
     <g id="line2d_49">
      <g>
       <use style="stroke:#000000;stroke-width:0.8;" x="367.262853" xlink:href="#m2b58e0bc44" y="156.539223"/>
      </g>
     </g>
     <g id="text_27">
      <!-- 4.0 -->
      <g transform="translate(341.179103 161.098286)scale(0.12 -0.12)">
       <use xlink:href="#DejaVuSans-52"/>
       <use x="63.623047" xlink:href="#DejaVuSans-46"/>
       <use x="95.410156" xlink:href="#DejaVuSans-48"/>
      </g>
     </g>
    </g>
    <g id="ytick_10">
     <g id="line2d_50">
      <path clip-path="url(#p17de66d3a0)" d="M 367.262853 97.363319 
L 634.132418 97.363319 
" style="fill:none;stroke:#b0b0b0;stroke-linecap:square;stroke-width:0.8;"/>
     </g>
     <g id="line2d_51">
      <g>
       <use style="stroke:#000000;stroke-width:0.8;" x="367.262853" xlink:href="#m2b58e0bc44" y="97.363319"/>
      </g>
     </g>
     <g id="text_28">
      <!-- 4.5 -->
      <g transform="translate(341.179103 101.922382)scale(0.12 -0.12)">
       <use xlink:href="#DejaVuSans-52"/>
       <use x="63.623047" xlink:href="#DejaVuSans-46"/>
       <use x="95.410156" xlink:href="#DejaVuSans-53"/>
      </g>
     </g>
    </g>
    <g id="ytick_11">
     <g id="line2d_52">
      <path clip-path="url(#p17de66d3a0)" d="M 367.262853 38.187415 
L 634.132418 38.187415 
" style="fill:none;stroke:#b0b0b0;stroke-linecap:square;stroke-width:0.8;"/>
     </g>
     <g id="line2d_53">
      <g>
       <use style="stroke:#000000;stroke-width:0.8;" x="367.262853" xlink:href="#m2b58e0bc44" y="38.187415"/>
      </g>
     </g>
     <g id="text_29">
      <!-- 5.0 -->
      <g transform="translate(341.179103 42.746477)scale(0.12 -0.12)">
       <use xlink:href="#DejaVuSans-53"/>
       <use x="63.623047" xlink:href="#DejaVuSans-46"/>
       <use x="95.410156" xlink:href="#DejaVuSans-48"/>
      </g>
     </g>
    </g>
    <g id="text_30">
     <!-- C(x) -->
     <defs>
      <path d="M 31 75.875 
Q 24.46875 64.65625 21.28125 53.65625 
Q 18.109375 42.671875 18.109375 31.390625 
Q 18.109375 20.125 21.3125 9.0625 
Q 24.515625 -2 31 -13.1875 
L 23.1875 -13.1875 
Q 15.875 -1.703125 12.234375 9.375 
Q 8.59375 20.453125 8.59375 31.390625 
Q 8.59375 42.28125 12.203125 53.3125 
Q 15.828125 64.359375 23.1875 75.875 
z
" id="DejaVuSans-40"/>
      <path d="M 54.890625 54.6875 
L 35.109375 28.078125 
L 55.90625 0 
L 45.3125 0 
L 29.390625 21.484375 
L 13.484375 0 
L 2.875 0 
L 24.125 28.609375 
L 4.6875 54.6875 
L 15.28125 54.6875 
L 29.78125 35.203125 
L 44.28125 54.6875 
z
" id="DejaVuSans-120"/>
      <path d="M 8.015625 75.875 
L 15.828125 75.875 
Q 23.140625 64.359375 26.78125 53.3125 
Q 30.421875 42.28125 30.421875 31.390625 
Q 30.421875 20.453125 26.78125 9.375 
Q 23.140625 -1.703125 15.828125 -13.1875 
L 8.015625 -13.1875 
Q 14.5 -2 17.703125 9.0625 
Q 20.90625 20.125 20.90625 31.390625 
Q 20.90625 42.671875 17.703125 53.65625 
Q 14.5 64.65625 8.015625 75.875 
z
" id="DejaVuSans-41"/>
     </defs>
     <g transform="translate(334.267541 179.970469)rotate(-90)scale(0.14 -0.14)">
      <use xlink:href="#DejaVuSans-67"/>
      <use x="69.824219" xlink:href="#DejaVuSans-40"/>
      <use x="108.837891" xlink:href="#DejaVuSans-120"/>
      <use x="168.017578" xlink:href="#DejaVuSans-41"/>
     </g>
    </g>
   </g>
   <g id="line2d_54">
    <path clip-path="url(#p17de66d3a0)" d="M 379.393288 296.733844 
L 387.759105 296.733844 
L 396.124922 296.733844 
L 404.490739 296.733844 
L 412.856556 296.733844 
L 421.222374 296.733844 
L 429.588191 296.733844 
L 437.954008 296.733844 
L 446.319825 296.733844 
L 454.685642 296.733844 
L 463.051459 296.733844 
L 471.417276 296.733844 
L 479.783093 296.733844 
L 488.14891 296.733844 
L 496.514727 296.733844 
L 504.880544 296.733844 
L 513.246362 296.733844 
L 521.612179 296.733844 
L 529.977996 296.733844 
L 538.343813 297.38833 
L 546.70963 297.38833 
L 555.075447 297.38833 
L 563.441264 297.38833 
L 571.807081 297.38833 
L 580.172898 297.38833 
L 588.538715 297.38833 
L 596.904532 297.38833 
L 605.27035 297.38833 
L 613.636167 297.38833 
L 622.001984 297.38833 
" style="fill:none;stroke:#ff0000;stroke-linecap:square;stroke-width:2;"/>
    <defs>
     <path d="M 0 3 
C 0.795609 3 1.55874 2.683901 2.12132 2.12132 
C 2.683901 1.55874 3 0.795609 3 0 
C 3 -0.795609 2.683901 -1.55874 2.12132 -2.12132 
C 1.55874 -2.683901 0.795609 -3 0 -3 
C -0.795609 -3 -1.55874 -2.683901 -2.12132 -2.12132 
C -2.683901 -1.55874 -3 -0.795609 -3 0 
C -3 0.795609 -2.683901 1.55874 -2.12132 2.12132 
C -1.55874 2.683901 -0.795609 3 0 3 
z
" id="mdf95ccf308" style="stroke:#ff0000;"/>
    </defs>
    <g clip-path="url(#p17de66d3a0)">
     <use style="fill-opacity:0;stroke:#ff0000;" x="379.393288" xlink:href="#mdf95ccf308" y="296.733844"/>
     <use style="fill-opacity:0;stroke:#ff0000;" x="387.759105" xlink:href="#mdf95ccf308" y="296.733844"/>
     <use style="fill-opacity:0;stroke:#ff0000;" x="396.124922" xlink:href="#mdf95ccf308" y="296.733844"/>
     <use style="fill-opacity:0;stroke:#ff0000;" x="404.490739" xlink:href="#mdf95ccf308" y="296.733844"/>
     <use style="fill-opacity:0;stroke:#ff0000;" x="412.856556" xlink:href="#mdf95ccf308" y="296.733844"/>
     <use style="fill-opacity:0;stroke:#ff0000;" x="421.222374" xlink:href="#mdf95ccf308" y="296.733844"/>
     <use style="fill-opacity:0;stroke:#ff0000;" x="429.588191" xlink:href="#mdf95ccf308" y="296.733844"/>
     <use style="fill-opacity:0;stroke:#ff0000;" x="437.954008" xlink:href="#mdf95ccf308" y="296.733844"/>
     <use style="fill-opacity:0;stroke:#ff0000;" x="446.319825" xlink:href="#mdf95ccf308" y="296.733844"/>
     <use style="fill-opacity:0;stroke:#ff0000;" x="454.685642" xlink:href="#mdf95ccf308" y="296.733844"/>
     <use style="fill-opacity:0;stroke:#ff0000;" x="463.051459" xlink:href="#mdf95ccf308" y="296.733844"/>
     <use style="fill-opacity:0;stroke:#ff0000;" x="471.417276" xlink:href="#mdf95ccf308" y="296.733844"/>
     <use style="fill-opacity:0;stroke:#ff0000;" x="479.783093" xlink:href="#mdf95ccf308" y="296.733844"/>
     <use style="fill-opacity:0;stroke:#ff0000;" x="488.14891" xlink:href="#mdf95ccf308" y="296.733844"/>
     <use style="fill-opacity:0;stroke:#ff0000;" x="496.514727" xlink:href="#mdf95ccf308" y="296.733844"/>
     <use style="fill-opacity:0;stroke:#ff0000;" x="504.880544" xlink:href="#mdf95ccf308" y="296.733844"/>
     <use style="fill-opacity:0;stroke:#ff0000;" x="513.246362" xlink:href="#mdf95ccf308" y="296.733844"/>
     <use style="fill-opacity:0;stroke:#ff0000;" x="521.612179" xlink:href="#mdf95ccf308" y="296.733844"/>
     <use style="fill-opacity:0;stroke:#ff0000;" x="529.977996" xlink:href="#mdf95ccf308" y="296.733844"/>
     <use style="fill-opacity:0;stroke:#ff0000;" x="538.343813" xlink:href="#mdf95ccf308" y="297.38833"/>
     <use style="fill-opacity:0;stroke:#ff0000;" x="546.70963" xlink:href="#mdf95ccf308" y="297.38833"/>
     <use style="fill-opacity:0;stroke:#ff0000;" x="555.075447" xlink:href="#mdf95ccf308" y="297.38833"/>
     <use style="fill-opacity:0;stroke:#ff0000;" x="563.441264" xlink:href="#mdf95ccf308" y="297.38833"/>
     <use style="fill-opacity:0;stroke:#ff0000;" x="571.807081" xlink:href="#mdf95ccf308" y="297.38833"/>
     <use style="fill-opacity:0;stroke:#ff0000;" x="580.172898" xlink:href="#mdf95ccf308" y="297.38833"/>
     <use style="fill-opacity:0;stroke:#ff0000;" x="588.538715" xlink:href="#mdf95ccf308" y="297.38833"/>
     <use style="fill-opacity:0;stroke:#ff0000;" x="596.904532" xlink:href="#mdf95ccf308" y="297.38833"/>
     <use style="fill-opacity:0;stroke:#ff0000;" x="605.27035" xlink:href="#mdf95ccf308" y="297.38833"/>
     <use style="fill-opacity:0;stroke:#ff0000;" x="613.636167" xlink:href="#mdf95ccf308" y="297.38833"/>
     <use style="fill-opacity:0;stroke:#ff0000;" x="622.001984" xlink:href="#mdf95ccf308" y="297.38833"/>
    </g>
   </g>
   <g id="line2d_55">
    <path clip-path="url(#p17de66d3a0)" d="M 379.393288 46.370259 
L 387.759105 46.370259 
L 396.124922 46.370259 
L 404.490739 46.370259 
L 412.856556 46.370259 
L 421.222374 46.370259 
L 429.588191 46.370259 
L 437.954008 46.370259 
L 446.319825 46.370259 
L 454.685642 46.370259 
L 463.051459 46.370259 
L 471.417276 46.370259 
L 479.783093 46.370259 
L 488.14891 46.370259 
L 496.514727 46.370259 
L 504.880544 46.370259 
L 513.246362 46.370259 
L 521.612179 46.370259 
L 529.977996 46.370259 
L 538.343813 46.370259 
L 546.70963 46.370259 
L 555.075447 46.370259 
L 563.441264 46.370259 
L 571.807081 46.370259 
L 580.172898 46.370259 
L 588.538715 46.370259 
L 596.904532 46.370259 
L 605.27035 46.370259 
L 613.636167 46.370259 
L 622.001984 46.370259 
" style="fill:none;stroke:#008000;stroke-linecap:square;stroke-width:2;"/>
   </g>
   <g id="line2d_56">
    <path clip-path="url(#p17de66d3a0)" d="M 622.001984 304.077188 
L 622.001984 26.877188 
" style="fill:none;stroke:#000000;stroke-linecap:square;stroke-width:2.5;"/>
   </g>
   <g id="patch_8">
    <path d="M 367.262853 304.077188 
L 367.262853 26.877188 
" style="fill:none;stroke:#000000;stroke-linecap:square;stroke-linejoin:miter;stroke-width:0.8;"/>
   </g>
   <g id="patch_9">
    <path d="M 634.132418 304.077188 
L 634.132418 26.877188 
" style="fill:none;stroke:#000000;stroke-linecap:square;stroke-linejoin:miter;stroke-width:0.8;"/>
   </g>
   <g id="patch_10">
    <path d="M 367.262853 304.077188 
L 634.132418 304.077188 
" style="fill:none;stroke:#000000;stroke-linecap:square;stroke-linejoin:miter;stroke-width:0.8;"/>
   </g>
   <g id="patch_11">
    <path d="M 367.262853 26.877188 
L 634.132418 26.877188 
" style="fill:none;stroke:#000000;stroke-linecap:square;stroke-linejoin:miter;stroke-width:0.8;"/>
   </g>
   <g id="text_31">
    <!-- Application cost -->
    <defs>
     <path d="M 34.1875 63.1875 
L 20.796875 26.90625 
L 47.609375 26.90625 
z
M 28.609375 72.90625 
L 39.796875 72.90625 
L 67.578125 0 
L 57.328125 0 
L 50.6875 18.703125 
L 17.828125 18.703125 
L 11.1875 0 
L 0.78125 0 
z
" id="DejaVuSans-65"/>
     <path d="M 18.109375 8.203125 
L 18.109375 -20.796875 
L 9.078125 -20.796875 
L 9.078125 54.6875 
L 18.109375 54.6875 
L 18.109375 46.390625 
Q 20.953125 51.265625 25.265625 53.625 
Q 29.59375 56 35.59375 56 
Q 45.5625 56 51.78125 48.09375 
Q 58.015625 40.1875 58.015625 27.296875 
Q 58.015625 14.40625 51.78125 6.484375 
Q 45.5625 -1.421875 35.59375 -1.421875 
Q 29.59375 -1.421875 25.265625 0.953125 
Q 20.953125 3.328125 18.109375 8.203125 
z
M 48.6875 27.296875 
Q 48.6875 37.203125 44.609375 42.84375 
Q 40.53125 48.484375 33.40625 48.484375 
Q 26.265625 48.484375 22.1875 42.84375 
Q 18.109375 37.203125 18.109375 27.296875 
Q 18.109375 17.390625 22.1875 11.75 
Q 26.265625 6.109375 33.40625 6.109375 
Q 40.53125 6.109375 44.609375 11.75 
Q 48.6875 17.390625 48.6875 27.296875 
z
" id="DejaVuSans-112"/>
     <path d="M 9.421875 75.984375 
L 18.40625 75.984375 
L 18.40625 0 
L 9.421875 0 
z
" id="DejaVuSans-108"/>
    </defs>
    <g transform="translate(428.877636 20.877188)scale(0.18 -0.18)">
     <use xlink:href="#DejaVuSans-65"/>
     <use x="68.408203" xlink:href="#DejaVuSans-112"/>
     <use x="131.884766" xlink:href="#DejaVuSans-112"/>
     <use x="195.361328" xlink:href="#DejaVuSans-108"/>
     <use x="223.144531" xlink:href="#DejaVuSans-105"/>
     <use x="250.927734" xlink:href="#DejaVuSans-99"/>
     <use x="305.908203" xlink:href="#DejaVuSans-97"/>
     <use x="367.1875" xlink:href="#DejaVuSans-116"/>
     <use x="406.396484" xlink:href="#DejaVuSans-105"/>
     <use x="434.179688" xlink:href="#DejaVuSans-111"/>
     <use x="495.361328" xlink:href="#DejaVuSans-110"/>
     <use x="558.740234" xlink:href="#DejaVuSans-32"/>
     <use x="590.527344" xlink:href="#DejaVuSans-99"/>
     <use x="645.507812" xlink:href="#DejaVuSans-111"/>
     <use x="706.689453" xlink:href="#DejaVuSans-115"/>
     <use x="758.789062" xlink:href="#DejaVuSans-116"/>
    </g>
   </g>
  </g>
  <g id="axes_3">
   <g id="patch_12">
    <path d="M 687.506332 304.077188 
L 954.375897 304.077188 
L 954.375897 26.877188 
L 687.506332 26.877188 
z
" style="fill:#ffffff;"/>
   </g>
   <g id="matplotlib.axis_5">
    <g id="xtick_15">
     <g id="line2d_57">
      <path clip-path="url(#p86eda9a43b)" d="M 699.636766 304.077188 
L 699.636766 26.877188 
" style="fill:none;stroke:#b0b0b0;stroke-linecap:square;stroke-width:0.8;"/>
     </g>
     <g id="line2d_58">
      <g>
       <use style="stroke:#000000;stroke-width:0.8;" x="699.636766" xlink:href="#m61ab8b5b98" y="304.077188"/>
      </g>
     </g>
     <g id="text_32">
      <!-- 0 -->
      <g transform="translate(695.819266 320.195313)scale(0.12 -0.12)">
       <use xlink:href="#DejaVuSans-48"/>
      </g>
     </g>
    </g>
    <g id="xtick_16">
     <g id="line2d_59">
      <path clip-path="url(#p86eda9a43b)" d="M 741.465852 304.077188 
L 741.465852 26.877188 
" style="fill:none;stroke:#b0b0b0;stroke-linecap:square;stroke-width:0.8;"/>
     </g>
     <g id="line2d_60">
      <g>
       <use style="stroke:#000000;stroke-width:0.8;" x="741.465852" xlink:href="#m61ab8b5b98" y="304.077188"/>
      </g>
     </g>
     <g id="text_33">
      <!-- 5 -->
      <g transform="translate(737.648352 320.195313)scale(0.12 -0.12)">
       <use xlink:href="#DejaVuSans-53"/>
      </g>
     </g>
    </g>
    <g id="xtick_17">
     <g id="line2d_61">
      <path clip-path="url(#p86eda9a43b)" d="M 783.294937 304.077188 
L 783.294937 26.877188 
" style="fill:none;stroke:#b0b0b0;stroke-linecap:square;stroke-width:0.8;"/>
     </g>
     <g id="line2d_62">
      <g>
       <use style="stroke:#000000;stroke-width:0.8;" x="783.294937" xlink:href="#m61ab8b5b98" y="304.077188"/>
      </g>
     </g>
     <g id="text_34">
      <!-- 10 -->
      <g transform="translate(775.659937 320.195313)scale(0.12 -0.12)">
       <use xlink:href="#DejaVuSans-49"/>
       <use x="63.623047" xlink:href="#DejaVuSans-48"/>
      </g>
     </g>
    </g>
    <g id="xtick_18">
     <g id="line2d_63">
      <path clip-path="url(#p86eda9a43b)" d="M 825.124023 304.077188 
L 825.124023 26.877188 
" style="fill:none;stroke:#b0b0b0;stroke-linecap:square;stroke-width:0.8;"/>
     </g>
     <g id="line2d_64">
      <g>
       <use style="stroke:#000000;stroke-width:0.8;" x="825.124023" xlink:href="#m61ab8b5b98" y="304.077188"/>
      </g>
     </g>
     <g id="text_35">
      <!-- 15 -->
      <g transform="translate(817.489023 320.195313)scale(0.12 -0.12)">
       <use xlink:href="#DejaVuSans-49"/>
       <use x="63.623047" xlink:href="#DejaVuSans-53"/>
      </g>
     </g>
    </g>
    <g id="xtick_19">
     <g id="line2d_65">
      <path clip-path="url(#p86eda9a43b)" d="M 866.953108 304.077188 
L 866.953108 26.877188 
" style="fill:none;stroke:#b0b0b0;stroke-linecap:square;stroke-width:0.8;"/>
     </g>
     <g id="line2d_66">
      <g>
       <use style="stroke:#000000;stroke-width:0.8;" x="866.953108" xlink:href="#m61ab8b5b98" y="304.077188"/>
      </g>
     </g>
     <g id="text_36">
      <!-- 20 -->
      <g transform="translate(859.318108 320.195313)scale(0.12 -0.12)">
       <use xlink:href="#DejaVuSans-50"/>
       <use x="63.623047" xlink:href="#DejaVuSans-48"/>
      </g>
     </g>
    </g>
    <g id="xtick_20">
     <g id="line2d_67">
      <path clip-path="url(#p86eda9a43b)" d="M 908.782194 304.077188 
L 908.782194 26.877188 
" style="fill:none;stroke:#b0b0b0;stroke-linecap:square;stroke-width:0.8;"/>
     </g>
     <g id="line2d_68">
      <g>
       <use style="stroke:#000000;stroke-width:0.8;" x="908.782194" xlink:href="#m61ab8b5b98" y="304.077188"/>
      </g>
     </g>
     <g id="text_37">
      <!-- 25 -->
      <g transform="translate(901.147194 320.195313)scale(0.12 -0.12)">
       <use xlink:href="#DejaVuSans-50"/>
       <use x="63.623047" xlink:href="#DejaVuSans-53"/>
      </g>
     </g>
    </g>
    <g id="xtick_21">
     <g id="line2d_69">
      <path clip-path="url(#p86eda9a43b)" d="M 950.611279 304.077188 
L 950.611279 26.877188 
" style="fill:none;stroke:#b0b0b0;stroke-linecap:square;stroke-width:0.8;"/>
     </g>
     <g id="line2d_70">
      <g>
       <use style="stroke:#000000;stroke-width:0.8;" x="950.611279" xlink:href="#m61ab8b5b98" y="304.077188"/>
      </g>
     </g>
     <g id="text_38">
      <!-- 30 -->
      <g transform="translate(942.976279 320.195313)scale(0.12 -0.12)">
       <use xlink:href="#DejaVuSans-51"/>
       <use x="63.623047" xlink:href="#DejaVuSans-48"/>
      </g>
     </g>
    </g>
    <g id="text_39">
     <!-- iteration -->
     <g transform="translate(787.144864 338.848438)scale(0.16 -0.16)">
      <use xlink:href="#DejaVuSans-105"/>
      <use x="27.783203" xlink:href="#DejaVuSans-116"/>
      <use x="66.992188" xlink:href="#DejaVuSans-101"/>
      <use x="128.515625" xlink:href="#DejaVuSans-114"/>
      <use x="169.628906" xlink:href="#DejaVuSans-97"/>
      <use x="230.908203" xlink:href="#DejaVuSans-116"/>
      <use x="270.117188" xlink:href="#DejaVuSans-105"/>
      <use x="297.900391" xlink:href="#DejaVuSans-111"/>
      <use x="359.082031" xlink:href="#DejaVuSans-110"/>
     </g>
    </g>
   </g>
   <g id="matplotlib.axis_6">
    <g id="ytick_12">
     <g id="line2d_71">
      <path clip-path="url(#p86eda9a43b)" d="M 687.506332 273.008444 
L 954.375897 273.008444 
" style="fill:none;stroke:#b0b0b0;stroke-linecap:square;stroke-width:0.8;"/>
     </g>
     <g id="line2d_72">
      <g>
       <use style="stroke:#000000;stroke-width:0.8;" x="687.506332" xlink:href="#m2b58e0bc44" y="273.008444"/>
      </g>
     </g>
     <g id="text_40">
      <!-- 0.15 -->
      <g transform="translate(653.787582 277.567506)scale(0.12 -0.12)">
       <use xlink:href="#DejaVuSans-48"/>
       <use x="63.623047" xlink:href="#DejaVuSans-46"/>
       <use x="95.410156" xlink:href="#DejaVuSans-49"/>
       <use x="159.033203" xlink:href="#DejaVuSans-53"/>
      </g>
     </g>
    </g>
    <g id="ytick_13">
     <g id="line2d_73">
      <path clip-path="url(#p86eda9a43b)" d="M 687.506332 235.222133 
L 954.375897 235.222133 
" style="fill:none;stroke:#b0b0b0;stroke-linecap:square;stroke-width:0.8;"/>
     </g>
     <g id="line2d_74">
      <g>
       <use style="stroke:#000000;stroke-width:0.8;" x="687.506332" xlink:href="#m2b58e0bc44" y="235.222133"/>
      </g>
     </g>
     <g id="text_41">
      <!-- 0.20 -->
      <g transform="translate(653.787582 239.781196)scale(0.12 -0.12)">
       <use xlink:href="#DejaVuSans-48"/>
       <use x="63.623047" xlink:href="#DejaVuSans-46"/>
       <use x="95.410156" xlink:href="#DejaVuSans-50"/>
       <use x="159.033203" xlink:href="#DejaVuSans-48"/>
      </g>
     </g>
    </g>
    <g id="ytick_14">
     <g id="line2d_75">
      <path clip-path="url(#p86eda9a43b)" d="M 687.506332 197.435823 
L 954.375897 197.435823 
" style="fill:none;stroke:#b0b0b0;stroke-linecap:square;stroke-width:0.8;"/>
     </g>
     <g id="line2d_76">
      <g>
       <use style="stroke:#000000;stroke-width:0.8;" x="687.506332" xlink:href="#m2b58e0bc44" y="197.435823"/>
      </g>
     </g>
     <g id="text_42">
      <!-- 0.25 -->
      <g transform="translate(653.787582 201.994886)scale(0.12 -0.12)">
       <use xlink:href="#DejaVuSans-48"/>
       <use x="63.623047" xlink:href="#DejaVuSans-46"/>
       <use x="95.410156" xlink:href="#DejaVuSans-50"/>
       <use x="159.033203" xlink:href="#DejaVuSans-53"/>
      </g>
     </g>
    </g>
    <g id="ytick_15">
     <g id="line2d_77">
      <path clip-path="url(#p86eda9a43b)" d="M 687.506332 159.649513 
L 954.375897 159.649513 
" style="fill:none;stroke:#b0b0b0;stroke-linecap:square;stroke-width:0.8;"/>
     </g>
     <g id="line2d_78">
      <g>
       <use style="stroke:#000000;stroke-width:0.8;" x="687.506332" xlink:href="#m2b58e0bc44" y="159.649513"/>
      </g>
     </g>
     <g id="text_43">
      <!-- 0.30 -->
      <g transform="translate(653.787582 164.208575)scale(0.12 -0.12)">
       <use xlink:href="#DejaVuSans-48"/>
       <use x="63.623047" xlink:href="#DejaVuSans-46"/>
       <use x="95.410156" xlink:href="#DejaVuSans-51"/>
       <use x="159.033203" xlink:href="#DejaVuSans-48"/>
      </g>
     </g>
    </g>
    <g id="ytick_16">
     <g id="line2d_79">
      <path clip-path="url(#p86eda9a43b)" d="M 687.506332 121.863203 
L 954.375897 121.863203 
" style="fill:none;stroke:#b0b0b0;stroke-linecap:square;stroke-width:0.8;"/>
     </g>
     <g id="line2d_80">
      <g>
       <use style="stroke:#000000;stroke-width:0.8;" x="687.506332" xlink:href="#m2b58e0bc44" y="121.863203"/>
      </g>
     </g>
     <g id="text_44">
      <!-- 0.35 -->
      <g transform="translate(653.787582 126.422265)scale(0.12 -0.12)">
       <use xlink:href="#DejaVuSans-48"/>
       <use x="63.623047" xlink:href="#DejaVuSans-46"/>
       <use x="95.410156" xlink:href="#DejaVuSans-51"/>
       <use x="159.033203" xlink:href="#DejaVuSans-53"/>
      </g>
     </g>
    </g>
    <g id="ytick_17">
     <g id="line2d_81">
      <path clip-path="url(#p86eda9a43b)" d="M 687.506332 84.076893 
L 954.375897 84.076893 
" style="fill:none;stroke:#b0b0b0;stroke-linecap:square;stroke-width:0.8;"/>
     </g>
     <g id="line2d_82">
      <g>
       <use style="stroke:#000000;stroke-width:0.8;" x="687.506332" xlink:href="#m2b58e0bc44" y="84.076893"/>
      </g>
     </g>
     <g id="text_45">
      <!-- 0.40 -->
      <g transform="translate(653.787582 88.635955)scale(0.12 -0.12)">
       <use xlink:href="#DejaVuSans-48"/>
       <use x="63.623047" xlink:href="#DejaVuSans-46"/>
       <use x="95.410156" xlink:href="#DejaVuSans-52"/>
       <use x="159.033203" xlink:href="#DejaVuSans-48"/>
      </g>
     </g>
    </g>
    <g id="ytick_18">
     <g id="line2d_83">
      <path clip-path="url(#p86eda9a43b)" d="M 687.506332 46.290582 
L 954.375897 46.290582 
" style="fill:none;stroke:#b0b0b0;stroke-linecap:square;stroke-width:0.8;"/>
     </g>
     <g id="line2d_84">
      <g>
       <use style="stroke:#000000;stroke-width:0.8;" x="687.506332" xlink:href="#m2b58e0bc44" y="46.290582"/>
      </g>
     </g>
     <g id="text_46">
      <!-- 0.45 -->
      <g transform="translate(653.787582 50.849645)scale(0.12 -0.12)">
       <use xlink:href="#DejaVuSans-48"/>
       <use x="63.623047" xlink:href="#DejaVuSans-46"/>
       <use x="95.410156" xlink:href="#DejaVuSans-52"/>
       <use x="159.033203" xlink:href="#DejaVuSans-53"/>
      </g>
     </g>
    </g>
    <g id="text_47">
     <!-- T(x) -->
     <defs>
      <path d="M -0.296875 72.90625 
L 61.375 72.90625 
L 61.375 64.59375 
L 35.5 64.59375 
L 35.5 0 
L 25.59375 0 
L 25.59375 64.59375 
L -0.296875 64.59375 
z
" id="DejaVuSans-84"/>
     </defs>
     <g transform="translate(646.876019 179.357969)rotate(-90)scale(0.14 -0.14)">
      <use xlink:href="#DejaVuSans-84"/>
      <use x="61.083984" xlink:href="#DejaVuSans-40"/>
      <use x="100.097656" xlink:href="#DejaVuSans-120"/>
      <use x="159.277344" xlink:href="#DejaVuSans-41"/>
     </g>
    </g>
   </g>
   <g id="line2d_85">
    <path clip-path="url(#p86eda9a43b)" d="M 699.636766 31.7502 
L 708.002583 31.7502 
L 716.3684 31.7502 
L 724.734218 31.7502 
L 733.100035 31.7502 
L 741.465852 31.7502 
L 749.831669 31.7502 
L 758.197486 31.7502 
L 766.563303 31.7502 
L 774.92912 31.7502 
L 783.294937 31.7502 
L 791.660754 31.7502 
L 800.026571 31.7502 
L 808.392388 31.7502 
L 816.758206 31.7502 
L 825.124023 31.7502 
L 833.48984 31.7502 
L 841.855657 31.7502 
L 850.221474 31.7502 
L 858.587291 32.446728 
L 866.953108 32.446728 
L 875.318925 32.446728 
L 883.684742 32.446728 
L 892.050559 32.446728 
L 900.416376 32.446728 
L 908.782194 32.446728 
L 917.148011 32.446728 
L 925.513828 32.446728 
L 933.879645 32.446728 
L 942.245462 32.446728 
" style="fill:none;stroke:#bf00bf;stroke-linecap:square;stroke-width:2;"/>
    <defs>
     <path d="M 0 3 
C 0.795609 3 1.55874 2.683901 2.12132 2.12132 
C 2.683901 1.55874 3 0.795609 3 0 
C 3 -0.795609 2.683901 -1.55874 2.12132 -2.12132 
C 1.55874 -2.683901 0.795609 -3 0 -3 
C -0.795609 -3 -1.55874 -2.683901 -2.12132 -2.12132 
C -2.683901 -1.55874 -3 -0.795609 -3 0 
C -3 0.795609 -2.683901 1.55874 -2.12132 2.12132 
C -1.55874 2.683901 -0.795609 3 0 3 
z
" id="m5fff45f19d" style="stroke:#bf00bf;"/>
    </defs>
    <g clip-path="url(#p86eda9a43b)">
     <use style="fill-opacity:0;stroke:#bf00bf;" x="699.636766" xlink:href="#m5fff45f19d" y="31.7502"/>
     <use style="fill-opacity:0;stroke:#bf00bf;" x="708.002583" xlink:href="#m5fff45f19d" y="31.7502"/>
     <use style="fill-opacity:0;stroke:#bf00bf;" x="716.3684" xlink:href="#m5fff45f19d" y="31.7502"/>
     <use style="fill-opacity:0;stroke:#bf00bf;" x="724.734218" xlink:href="#m5fff45f19d" y="31.7502"/>
     <use style="fill-opacity:0;stroke:#bf00bf;" x="733.100035" xlink:href="#m5fff45f19d" y="31.7502"/>
     <use style="fill-opacity:0;stroke:#bf00bf;" x="741.465852" xlink:href="#m5fff45f19d" y="31.7502"/>
     <use style="fill-opacity:0;stroke:#bf00bf;" x="749.831669" xlink:href="#m5fff45f19d" y="31.7502"/>
     <use style="fill-opacity:0;stroke:#bf00bf;" x="758.197486" xlink:href="#m5fff45f19d" y="31.7502"/>
     <use style="fill-opacity:0;stroke:#bf00bf;" x="766.563303" xlink:href="#m5fff45f19d" y="31.7502"/>
     <use style="fill-opacity:0;stroke:#bf00bf;" x="774.92912" xlink:href="#m5fff45f19d" y="31.7502"/>
     <use style="fill-opacity:0;stroke:#bf00bf;" x="783.294937" xlink:href="#m5fff45f19d" y="31.7502"/>
     <use style="fill-opacity:0;stroke:#bf00bf;" x="791.660754" xlink:href="#m5fff45f19d" y="31.7502"/>
     <use style="fill-opacity:0;stroke:#bf00bf;" x="800.026571" xlink:href="#m5fff45f19d" y="31.7502"/>
     <use style="fill-opacity:0;stroke:#bf00bf;" x="808.392388" xlink:href="#m5fff45f19d" y="31.7502"/>
     <use style="fill-opacity:0;stroke:#bf00bf;" x="816.758206" xlink:href="#m5fff45f19d" y="31.7502"/>
     <use style="fill-opacity:0;stroke:#bf00bf;" x="825.124023" xlink:href="#m5fff45f19d" y="31.7502"/>
     <use style="fill-opacity:0;stroke:#bf00bf;" x="833.48984" xlink:href="#m5fff45f19d" y="31.7502"/>
     <use style="fill-opacity:0;stroke:#bf00bf;" x="841.855657" xlink:href="#m5fff45f19d" y="31.7502"/>
     <use style="fill-opacity:0;stroke:#bf00bf;" x="850.221474" xlink:href="#m5fff45f19d" y="31.7502"/>
     <use style="fill-opacity:0;stroke:#bf00bf;" x="858.587291" xlink:href="#m5fff45f19d" y="32.446728"/>
     <use style="fill-opacity:0;stroke:#bf00bf;" x="866.953108" xlink:href="#m5fff45f19d" y="32.446728"/>
     <use style="fill-opacity:0;stroke:#bf00bf;" x="875.318925" xlink:href="#m5fff45f19d" y="32.446728"/>
     <use style="fill-opacity:0;stroke:#bf00bf;" x="883.684742" xlink:href="#m5fff45f19d" y="32.446728"/>
     <use style="fill-opacity:0;stroke:#bf00bf;" x="892.050559" xlink:href="#m5fff45f19d" y="32.446728"/>
     <use style="fill-opacity:0;stroke:#bf00bf;" x="900.416376" xlink:href="#m5fff45f19d" y="32.446728"/>
     <use style="fill-opacity:0;stroke:#bf00bf;" x="908.782194" xlink:href="#m5fff45f19d" y="32.446728"/>
     <use style="fill-opacity:0;stroke:#bf00bf;" x="917.148011" xlink:href="#m5fff45f19d" y="32.446728"/>
     <use style="fill-opacity:0;stroke:#bf00bf;" x="925.513828" xlink:href="#m5fff45f19d" y="32.446728"/>
     <use style="fill-opacity:0;stroke:#bf00bf;" x="933.879645" xlink:href="#m5fff45f19d" y="32.446728"/>
     <use style="fill-opacity:0;stroke:#bf00bf;" x="942.245462" xlink:href="#m5fff45f19d" y="32.446728"/>
    </g>
   </g>
   <g id="line2d_86">
    <path clip-path="url(#p86eda9a43b)" d="M 699.636766 302.397796 
L 708.002583 302.397796 
L 716.3684 302.397796 
L 724.734218 302.397796 
L 733.100035 302.397796 
L 741.465852 302.397796 
L 749.831669 302.397796 
L 758.197486 302.397796 
L 766.563303 302.397796 
L 774.92912 302.397796 
L 783.294937 302.397796 
L 791.660754 302.397796 
L 800.026571 302.397796 
L 808.392388 302.397796 
L 816.758206 302.397796 
L 825.124023 302.397796 
L 833.48984 302.397796 
L 841.855657 302.397796 
L 850.221474 302.397796 
L 858.587291 302.397796 
L 866.953108 302.397796 
L 875.318925 302.397796 
L 883.684742 302.397796 
L 892.050559 302.397796 
L 900.416376 302.397796 
L 908.782194 302.397796 
L 917.148011 302.397796 
L 925.513828 302.397796 
L 933.879645 302.397796 
L 942.245462 302.397796 
" style="fill:none;stroke:#ff0000;stroke-dasharray:7.4,3.2;stroke-dashoffset:0;stroke-width:2;"/>
   </g>
   <g id="line2d_87">
    <path clip-path="url(#p86eda9a43b)" d="M 699.636766 301.676917 
L 708.002583 301.676917 
L 716.3684 301.676917 
L 724.734218 301.676917 
L 733.100035 301.676917 
L 741.465852 301.676917 
L 749.831669 301.676917 
L 758.197486 301.676917 
L 766.563303 301.676917 
L 774.92912 301.676917 
L 783.294937 301.676917 
L 791.660754 301.676917 
L 800.026571 301.676917 
L 808.392388 301.676917 
L 816.758206 301.676917 
L 825.124023 301.676917 
L 833.48984 301.676917 
L 841.855657 301.676917 
L 850.221474 301.676917 
L 858.587291 301.676917 
L 866.953108 301.676917 
L 875.318925 301.676917 
L 883.684742 301.676917 
L 892.050559 301.676917 
L 900.416376 301.676917 
L 908.782194 301.676917 
L 917.148011 301.676917 
L 925.513828 301.676917 
L 933.879645 301.676917 
L 942.245462 301.676917 
" style="fill:none;stroke:#008000;stroke-linecap:square;stroke-width:2;"/>
   </g>
   <g id="line2d_88">
    <path clip-path="url(#p86eda9a43b)" d="M 942.245462 304.077188 
L 942.245462 26.877188 
" style="fill:none;stroke:#000000;stroke-linecap:square;stroke-width:2.5;"/>
   </g>
   <g id="patch_13">
    <path d="M 687.506332 304.077188 
L 687.506332 26.877188 
" style="fill:none;stroke:#000000;stroke-linecap:square;stroke-linejoin:miter;stroke-width:0.8;"/>
   </g>
   <g id="patch_14">
    <path d="M 954.375897 304.077188 
L 954.375897 26.877188 
" style="fill:none;stroke:#000000;stroke-linecap:square;stroke-linejoin:miter;stroke-width:0.8;"/>
   </g>
   <g id="patch_15">
    <path d="M 687.506332 304.077188 
L 954.375897 304.077188 
" style="fill:none;stroke:#000000;stroke-linecap:square;stroke-linejoin:miter;stroke-width:0.8;"/>
   </g>
   <g id="patch_16">
    <path d="M 687.506332 26.877188 
L 954.375897 26.877188 
" style="fill:none;stroke:#000000;stroke-linecap:square;stroke-linejoin:miter;stroke-width:0.8;"/>
   </g>
   <g id="text_48">
    <!-- Application completion time -->
    <g transform="translate(694.387052 20.877188)scale(0.18 -0.18)">
     <use xlink:href="#DejaVuSans-65"/>
     <use x="68.408203" xlink:href="#DejaVuSans-112"/>
     <use x="131.884766" xlink:href="#DejaVuSans-112"/>
     <use x="195.361328" xlink:href="#DejaVuSans-108"/>
     <use x="223.144531" xlink:href="#DejaVuSans-105"/>
     <use x="250.927734" xlink:href="#DejaVuSans-99"/>
     <use x="305.908203" xlink:href="#DejaVuSans-97"/>
     <use x="367.1875" xlink:href="#DejaVuSans-116"/>
     <use x="406.396484" xlink:href="#DejaVuSans-105"/>
     <use x="434.179688" xlink:href="#DejaVuSans-111"/>
     <use x="495.361328" xlink:href="#DejaVuSans-110"/>
     <use x="558.740234" xlink:href="#DejaVuSans-32"/>
     <use x="590.527344" xlink:href="#DejaVuSans-99"/>
     <use x="645.507812" xlink:href="#DejaVuSans-111"/>
     <use x="706.689453" xlink:href="#DejaVuSans-109"/>
     <use x="804.101562" xlink:href="#DejaVuSans-112"/>
     <use x="867.578125" xlink:href="#DejaVuSans-108"/>
     <use x="895.361328" xlink:href="#DejaVuSans-101"/>
     <use x="956.884766" xlink:href="#DejaVuSans-116"/>
     <use x="996.09375" xlink:href="#DejaVuSans-105"/>
     <use x="1023.876953" xlink:href="#DejaVuSans-111"/>
     <use x="1085.058594" xlink:href="#DejaVuSans-110"/>
     <use x="1148.4375" xlink:href="#DejaVuSans-32"/>
     <use x="1180.224609" xlink:href="#DejaVuSans-116"/>
     <use x="1219.433594" xlink:href="#DejaVuSans-105"/>
     <use x="1247.216797" xlink:href="#DejaVuSans-109"/>
     <use x="1344.628906" xlink:href="#DejaVuSans-101"/>
    </g>
   </g>
  </g>
  <g id="axes_4">
   <g id="patch_17">
    <path d="M 1007.74981 304.077188 
L 1274.619375 304.077188 
L 1274.619375 26.877188 
L 1007.74981 26.877188 
z
" style="fill:#ffffff;"/>
   </g>
   <g id="matplotlib.axis_7">
    <g id="xtick_22">
     <g id="line2d_89">
      <path clip-path="url(#pf102dddbfd)" d="M 1019.880245 304.077188 
L 1019.880245 26.877188 
" style="fill:none;stroke:#b0b0b0;stroke-linecap:square;stroke-width:0.8;"/>
     </g>
     <g id="line2d_90">
      <g>
       <use style="stroke:#000000;stroke-width:0.8;" x="1019.880245" xlink:href="#m61ab8b5b98" y="304.077188"/>
      </g>
     </g>
     <g id="text_49">
      <!-- 0 -->
      <g transform="translate(1016.062745 320.195313)scale(0.12 -0.12)">
       <use xlink:href="#DejaVuSans-48"/>
      </g>
     </g>
    </g>
    <g id="xtick_23">
     <g id="line2d_91">
      <path clip-path="url(#pf102dddbfd)" d="M 1061.70933 304.077188 
L 1061.70933 26.877188 
" style="fill:none;stroke:#b0b0b0;stroke-linecap:square;stroke-width:0.8;"/>
     </g>
     <g id="line2d_92">
      <g>
       <use style="stroke:#000000;stroke-width:0.8;" x="1061.70933" xlink:href="#m61ab8b5b98" y="304.077188"/>
      </g>
     </g>
     <g id="text_50">
      <!-- 5 -->
      <g transform="translate(1057.89183 320.195313)scale(0.12 -0.12)">
       <use xlink:href="#DejaVuSans-53"/>
      </g>
     </g>
    </g>
    <g id="xtick_24">
     <g id="line2d_93">
      <path clip-path="url(#pf102dddbfd)" d="M 1103.538415 304.077188 
L 1103.538415 26.877188 
" style="fill:none;stroke:#b0b0b0;stroke-linecap:square;stroke-width:0.8;"/>
     </g>
     <g id="line2d_94">
      <g>
       <use style="stroke:#000000;stroke-width:0.8;" x="1103.538415" xlink:href="#m61ab8b5b98" y="304.077188"/>
      </g>
     </g>
     <g id="text_51">
      <!-- 10 -->
      <g transform="translate(1095.903415 320.195313)scale(0.12 -0.12)">
       <use xlink:href="#DejaVuSans-49"/>
       <use x="63.623047" xlink:href="#DejaVuSans-48"/>
      </g>
     </g>
    </g>
    <g id="xtick_25">
     <g id="line2d_95">
      <path clip-path="url(#pf102dddbfd)" d="M 1145.367501 304.077188 
L 1145.367501 26.877188 
" style="fill:none;stroke:#b0b0b0;stroke-linecap:square;stroke-width:0.8;"/>
     </g>
     <g id="line2d_96">
      <g>
       <use style="stroke:#000000;stroke-width:0.8;" x="1145.367501" xlink:href="#m61ab8b5b98" y="304.077188"/>
      </g>
     </g>
     <g id="text_52">
      <!-- 15 -->
      <g transform="translate(1137.732501 320.195313)scale(0.12 -0.12)">
       <use xlink:href="#DejaVuSans-49"/>
       <use x="63.623047" xlink:href="#DejaVuSans-53"/>
      </g>
     </g>
    </g>
    <g id="xtick_26">
     <g id="line2d_97">
      <path clip-path="url(#pf102dddbfd)" d="M 1187.196586 304.077188 
L 1187.196586 26.877188 
" style="fill:none;stroke:#b0b0b0;stroke-linecap:square;stroke-width:0.8;"/>
     </g>
     <g id="line2d_98">
      <g>
       <use style="stroke:#000000;stroke-width:0.8;" x="1187.196586" xlink:href="#m61ab8b5b98" y="304.077188"/>
      </g>
     </g>
     <g id="text_53">
      <!-- 20 -->
      <g transform="translate(1179.561586 320.195313)scale(0.12 -0.12)">
       <use xlink:href="#DejaVuSans-50"/>
       <use x="63.623047" xlink:href="#DejaVuSans-48"/>
      </g>
     </g>
    </g>
    <g id="xtick_27">
     <g id="line2d_99">
      <path clip-path="url(#pf102dddbfd)" d="M 1229.025672 304.077188 
L 1229.025672 26.877188 
" style="fill:none;stroke:#b0b0b0;stroke-linecap:square;stroke-width:0.8;"/>
     </g>
     <g id="line2d_100">
      <g>
       <use style="stroke:#000000;stroke-width:0.8;" x="1229.025672" xlink:href="#m61ab8b5b98" y="304.077188"/>
      </g>
     </g>
     <g id="text_54">
      <!-- 25 -->
      <g transform="translate(1221.390672 320.195313)scale(0.12 -0.12)">
       <use xlink:href="#DejaVuSans-50"/>
       <use x="63.623047" xlink:href="#DejaVuSans-53"/>
      </g>
     </g>
    </g>
    <g id="xtick_28">
     <g id="line2d_101">
      <path clip-path="url(#pf102dddbfd)" d="M 1270.854757 304.077188 
L 1270.854757 26.877188 
" style="fill:none;stroke:#b0b0b0;stroke-linecap:square;stroke-width:0.8;"/>
     </g>
     <g id="line2d_102">
      <g>
       <use style="stroke:#000000;stroke-width:0.8;" x="1270.854757" xlink:href="#m61ab8b5b98" y="304.077188"/>
      </g>
     </g>
     <g id="text_55">
      <!-- 30 -->
      <g transform="translate(1263.219757 320.195313)scale(0.12 -0.12)">
       <use xlink:href="#DejaVuSans-51"/>
       <use x="63.623047" xlink:href="#DejaVuSans-48"/>
      </g>
     </g>
    </g>
    <g id="text_56">
     <!-- iteration -->
     <g transform="translate(1107.388342 338.848438)scale(0.16 -0.16)">
      <use xlink:href="#DejaVuSans-105"/>
      <use x="27.783203" xlink:href="#DejaVuSans-116"/>
      <use x="66.992188" xlink:href="#DejaVuSans-101"/>
      <use x="128.515625" xlink:href="#DejaVuSans-114"/>
      <use x="169.628906" xlink:href="#DejaVuSans-97"/>
      <use x="230.908203" xlink:href="#DejaVuSans-116"/>
      <use x="270.117188" xlink:href="#DejaVuSans-105"/>
      <use x="297.900391" xlink:href="#DejaVuSans-111"/>
      <use x="359.082031" xlink:href="#DejaVuSans-110"/>
     </g>
    </g>
   </g>
   <g id="matplotlib.axis_8">
    <g id="ytick_19">
     <g id="line2d_103">
      <path clip-path="url(#pf102dddbfd)" d="M 1007.74981 304.077188 
L 1274.619375 304.077188 
" style="fill:none;stroke:#b0b0b0;stroke-linecap:square;stroke-width:0.8;"/>
     </g>
     <g id="line2d_104">
      <g>
       <use style="stroke:#000000;stroke-width:0.8;" x="1007.74981" xlink:href="#m2b58e0bc44" y="304.077188"/>
      </g>
     </g>
     <g id="text_57">
      <!-- 0 -->
      <g transform="translate(993.11481 308.63625)scale(0.12 -0.12)">
       <use xlink:href="#DejaVuSans-48"/>
      </g>
     </g>
    </g>
    <g id="ytick_20">
     <g id="line2d_105">
      <path clip-path="url(#pf102dddbfd)" d="M 1007.74981 248.637188 
L 1274.619375 248.637188 
" style="fill:none;stroke:#b0b0b0;stroke-linecap:square;stroke-width:0.8;"/>
     </g>
     <g id="line2d_106">
      <g>
       <use style="stroke:#000000;stroke-width:0.8;" x="1007.74981" xlink:href="#m2b58e0bc44" y="248.637188"/>
      </g>
     </g>
     <g id="text_58">
      <!-- 10 -->
      <g transform="translate(985.47981 253.19625)scale(0.12 -0.12)">
       <use xlink:href="#DejaVuSans-49"/>
       <use x="63.623047" xlink:href="#DejaVuSans-48"/>
      </g>
     </g>
    </g>
    <g id="ytick_21">
     <g id="line2d_107">
      <path clip-path="url(#pf102dddbfd)" d="M 1007.74981 193.197188 
L 1274.619375 193.197188 
" style="fill:none;stroke:#b0b0b0;stroke-linecap:square;stroke-width:0.8;"/>
     </g>
     <g id="line2d_108">
      <g>
       <use style="stroke:#000000;stroke-width:0.8;" x="1007.74981" xlink:href="#m2b58e0bc44" y="193.197188"/>
      </g>
     </g>
     <g id="text_59">
      <!-- 20 -->
      <g transform="translate(985.47981 197.75625)scale(0.12 -0.12)">
       <use xlink:href="#DejaVuSans-50"/>
       <use x="63.623047" xlink:href="#DejaVuSans-48"/>
      </g>
     </g>
    </g>
    <g id="ytick_22">
     <g id="line2d_109">
      <path clip-path="url(#pf102dddbfd)" d="M 1007.74981 137.757188 
L 1274.619375 137.757188 
" style="fill:none;stroke:#b0b0b0;stroke-linecap:square;stroke-width:0.8;"/>
     </g>
     <g id="line2d_110">
      <g>
       <use style="stroke:#000000;stroke-width:0.8;" x="1007.74981" xlink:href="#m2b58e0bc44" y="137.757188"/>
      </g>
     </g>
     <g id="text_60">
      <!-- 30 -->
      <g transform="translate(985.47981 142.31625)scale(0.12 -0.12)">
       <use xlink:href="#DejaVuSans-51"/>
       <use x="63.623047" xlink:href="#DejaVuSans-48"/>
      </g>
     </g>
    </g>
    <g id="ytick_23">
     <g id="line2d_111">
      <path clip-path="url(#pf102dddbfd)" d="M 1007.74981 82.317188 
L 1274.619375 82.317188 
" style="fill:none;stroke:#b0b0b0;stroke-linecap:square;stroke-width:0.8;"/>
     </g>
     <g id="line2d_112">
      <g>
       <use style="stroke:#000000;stroke-width:0.8;" x="1007.74981" xlink:href="#m2b58e0bc44" y="82.317188"/>
      </g>
     </g>
     <g id="text_61">
      <!-- 40 -->
      <g transform="translate(985.47981 86.87625)scale(0.12 -0.12)">
       <use xlink:href="#DejaVuSans-52"/>
       <use x="63.623047" xlink:href="#DejaVuSans-48"/>
      </g>
     </g>
    </g>
    <g id="ytick_24">
     <g id="line2d_113">
      <path clip-path="url(#pf102dddbfd)" d="M 1007.74981 26.877188 
L 1274.619375 26.877188 
" style="fill:none;stroke:#b0b0b0;stroke-linecap:square;stroke-width:0.8;"/>
     </g>
     <g id="line2d_114">
      <g>
       <use style="stroke:#000000;stroke-width:0.8;" x="1007.74981" xlink:href="#m2b58e0bc44" y="26.877188"/>
      </g>
     </g>
     <g id="text_62">
      <!-- 50 -->
      <g transform="translate(985.47981 31.43625)scale(0.12 -0.12)">
       <use xlink:href="#DejaVuSans-53"/>
       <use x="63.623047" xlink:href="#DejaVuSans-48"/>
      </g>
     </g>
    </g>
    <g id="text_63">
     <!-- P(x) -->
     <defs>
      <path d="M 19.671875 64.796875 
L 19.671875 37.40625 
L 32.078125 37.40625 
Q 38.96875 37.40625 42.71875 40.96875 
Q 46.484375 44.53125 46.484375 51.125 
Q 46.484375 57.671875 42.71875 61.234375 
Q 38.96875 64.796875 32.078125 64.796875 
z
M 9.8125 72.90625 
L 32.078125 72.90625 
Q 44.34375 72.90625 50.609375 67.359375 
Q 56.890625 61.8125 56.890625 51.125 
Q 56.890625 40.328125 50.609375 34.8125 
Q 44.34375 29.296875 32.078125 29.296875 
L 19.671875 29.296875 
L 19.671875 0 
L 9.8125 0 
z
" id="DejaVuSans-80"/>
     </defs>
     <g transform="translate(978.568247 179.303281)rotate(-90)scale(0.14 -0.14)">
      <use xlink:href="#DejaVuSans-80"/>
      <use x="60.302734" xlink:href="#DejaVuSans-40"/>
      <use x="99.316406" xlink:href="#DejaVuSans-120"/>
      <use x="158.496094" xlink:href="#DejaVuSans-41"/>
     </g>
    </g>
   </g>
   <g id="line2d_115">
    <path clip-path="url(#pf102dddbfd)" d="M 1019.880245 270.813188 
L 1028.246062 270.813188 
L 1036.611879 270.813188 
L 1044.977696 270.813188 
L 1053.343513 270.813188 
L 1061.70933 270.813188 
L 1070.075147 270.813188 
L 1078.440964 270.813188 
L 1086.806781 270.813188 
L 1095.172598 270.813188 
L 1103.538415 270.813188 
L 1111.904233 270.813188 
L 1120.27005 270.813188 
L 1128.635867 270.813188 
L 1137.001684 270.813188 
L 1145.367501 270.813188 
L 1153.733318 270.813188 
L 1162.099135 270.813188 
L 1170.464952 270.813188 
L 1178.830769 270.813188 
L 1187.196586 270.813188 
L 1195.562403 270.813188 
L 1203.928221 270.813188 
L 1212.294038 270.813188 
L 1220.659855 270.813188 
L 1229.025672 270.813188 
L 1237.391489 270.813188 
L 1245.757306 270.813188 
L 1254.123123 270.813188 
L 1262.48894 270.813188 
" style="fill:none;stroke:#bfbf00;stroke-linecap:square;stroke-width:2;"/>
    <defs>
     <path d="M 0 3 
C 0.795609 3 1.55874 2.683901 2.12132 2.12132 
C 2.683901 1.55874 3 0.795609 3 0 
C 3 -0.795609 2.683901 -1.55874 2.12132 -2.12132 
C 1.55874 -2.683901 0.795609 -3 0 -3 
C -0.795609 -3 -1.55874 -2.683901 -2.12132 -2.12132 
C -2.683901 -1.55874 -3 -0.795609 -3 0 
C -3 0.795609 -2.683901 1.55874 -2.12132 2.12132 
C -1.55874 2.683901 -0.795609 3 0 3 
z
" id="m5098ea973c" style="stroke:#bfbf00;"/>
    </defs>
    <g clip-path="url(#pf102dddbfd)">
     <use style="fill-opacity:0;stroke:#bfbf00;" x="1019.880245" xlink:href="#m5098ea973c" y="270.813188"/>
     <use style="fill-opacity:0;stroke:#bfbf00;" x="1028.246062" xlink:href="#m5098ea973c" y="270.813188"/>
     <use style="fill-opacity:0;stroke:#bfbf00;" x="1036.611879" xlink:href="#m5098ea973c" y="270.813188"/>
     <use style="fill-opacity:0;stroke:#bfbf00;" x="1044.977696" xlink:href="#m5098ea973c" y="270.813188"/>
     <use style="fill-opacity:0;stroke:#bfbf00;" x="1053.343513" xlink:href="#m5098ea973c" y="270.813188"/>
     <use style="fill-opacity:0;stroke:#bfbf00;" x="1061.70933" xlink:href="#m5098ea973c" y="270.813188"/>
     <use style="fill-opacity:0;stroke:#bfbf00;" x="1070.075147" xlink:href="#m5098ea973c" y="270.813188"/>
     <use style="fill-opacity:0;stroke:#bfbf00;" x="1078.440964" xlink:href="#m5098ea973c" y="270.813188"/>
     <use style="fill-opacity:0;stroke:#bfbf00;" x="1086.806781" xlink:href="#m5098ea973c" y="270.813188"/>
     <use style="fill-opacity:0;stroke:#bfbf00;" x="1095.172598" xlink:href="#m5098ea973c" y="270.813188"/>
     <use style="fill-opacity:0;stroke:#bfbf00;" x="1103.538415" xlink:href="#m5098ea973c" y="270.813188"/>
     <use style="fill-opacity:0;stroke:#bfbf00;" x="1111.904233" xlink:href="#m5098ea973c" y="270.813188"/>
     <use style="fill-opacity:0;stroke:#bfbf00;" x="1120.27005" xlink:href="#m5098ea973c" y="270.813188"/>
     <use style="fill-opacity:0;stroke:#bfbf00;" x="1128.635867" xlink:href="#m5098ea973c" y="270.813188"/>
     <use style="fill-opacity:0;stroke:#bfbf00;" x="1137.001684" xlink:href="#m5098ea973c" y="270.813188"/>
     <use style="fill-opacity:0;stroke:#bfbf00;" x="1145.367501" xlink:href="#m5098ea973c" y="270.813188"/>
     <use style="fill-opacity:0;stroke:#bfbf00;" x="1153.733318" xlink:href="#m5098ea973c" y="270.813188"/>
     <use style="fill-opacity:0;stroke:#bfbf00;" x="1162.099135" xlink:href="#m5098ea973c" y="270.813188"/>
     <use style="fill-opacity:0;stroke:#bfbf00;" x="1170.464952" xlink:href="#m5098ea973c" y="270.813188"/>
     <use style="fill-opacity:0;stroke:#bfbf00;" x="1178.830769" xlink:href="#m5098ea973c" y="270.813188"/>
     <use style="fill-opacity:0;stroke:#bfbf00;" x="1187.196586" xlink:href="#m5098ea973c" y="270.813188"/>
     <use style="fill-opacity:0;stroke:#bfbf00;" x="1195.562403" xlink:href="#m5098ea973c" y="270.813188"/>
     <use style="fill-opacity:0;stroke:#bfbf00;" x="1203.928221" xlink:href="#m5098ea973c" y="270.813188"/>
     <use style="fill-opacity:0;stroke:#bfbf00;" x="1212.294038" xlink:href="#m5098ea973c" y="270.813188"/>
     <use style="fill-opacity:0;stroke:#bfbf00;" x="1220.659855" xlink:href="#m5098ea973c" y="270.813188"/>
     <use style="fill-opacity:0;stroke:#bfbf00;" x="1229.025672" xlink:href="#m5098ea973c" y="270.813188"/>
     <use style="fill-opacity:0;stroke:#bfbf00;" x="1237.391489" xlink:href="#m5098ea973c" y="270.813188"/>
     <use style="fill-opacity:0;stroke:#bfbf00;" x="1245.757306" xlink:href="#m5098ea973c" y="270.813188"/>
     <use style="fill-opacity:0;stroke:#bfbf00;" x="1254.123123" xlink:href="#m5098ea973c" y="270.813188"/>
     <use style="fill-opacity:0;stroke:#bfbf00;" x="1262.48894" xlink:href="#m5098ea973c" y="270.813188"/>
    </g>
   </g>
   <g id="line2d_116">
    <path clip-path="url(#pf102dddbfd)" d="M 1019.880245 60.141188 
L 1028.246062 60.141188 
L 1036.611879 60.141188 
L 1044.977696 60.141188 
L 1053.343513 60.141188 
L 1061.70933 60.141188 
L 1070.075147 60.141188 
L 1078.440964 60.141188 
L 1086.806781 60.141188 
L 1095.172598 60.141188 
L 1103.538415 60.141188 
L 1111.904233 60.141188 
L 1120.27005 60.141188 
L 1128.635867 60.141188 
L 1137.001684 60.141188 
L 1145.367501 60.141188 
L 1153.733318 60.141188 
L 1162.099135 60.141188 
L 1170.464952 60.141188 
L 1178.830769 60.141188 
L 1187.196586 60.141188 
L 1195.562403 60.141188 
L 1203.928221 60.141188 
L 1212.294038 60.141188 
L 1220.659855 60.141188 
L 1229.025672 60.141188 
L 1237.391489 60.141188 
L 1245.757306 60.141188 
L 1254.123123 60.141188 
L 1262.48894 60.141188 
" style="fill:none;stroke:#008000;stroke-linecap:square;stroke-width:2;"/>
   </g>
   <g id="line2d_117">
    <path clip-path="url(#pf102dddbfd)" d="M 1262.48894 304.077188 
L 1262.48894 26.877188 
" style="fill:none;stroke:#000000;stroke-linecap:square;stroke-width:2.5;"/>
   </g>
   <g id="patch_18">
    <path d="M 1007.74981 304.077188 
L 1007.74981 26.877188 
" style="fill:none;stroke:#000000;stroke-linecap:square;stroke-linejoin:miter;stroke-width:0.8;"/>
   </g>
   <g id="patch_19">
    <path d="M 1274.619375 304.077188 
L 1274.619375 26.877188 
" style="fill:none;stroke:#000000;stroke-linecap:square;stroke-linejoin:miter;stroke-width:0.8;"/>
   </g>
   <g id="patch_20">
    <path d="M 1007.74981 304.077188 
L 1274.619375 304.077188 
" style="fill:none;stroke:#000000;stroke-linecap:square;stroke-linejoin:miter;stroke-width:0.8;"/>
   </g>
   <g id="patch_21">
    <path d="M 1007.74981 26.877188 
L 1274.619375 26.877188 
" style="fill:none;stroke:#000000;stroke-linecap:square;stroke-linejoin:miter;stroke-width:0.8;"/>
   </g>
   <g id="text_64">
    <!-- Price per unit time -->
    <g transform="translate(1057.927561 20.877188)scale(0.18 -0.18)">
     <use xlink:href="#DejaVuSans-80"/>
     <use x="58.552734" xlink:href="#DejaVuSans-114"/>
     <use x="99.666016" xlink:href="#DejaVuSans-105"/>
     <use x="127.449219" xlink:href="#DejaVuSans-99"/>
     <use x="182.429688" xlink:href="#DejaVuSans-101"/>
     <use x="243.953125" xlink:href="#DejaVuSans-32"/>
     <use x="275.740234" xlink:href="#DejaVuSans-112"/>
     <use x="339.216797" xlink:href="#DejaVuSans-101"/>
     <use x="400.740234" xlink:href="#DejaVuSans-114"/>
     <use x="441.853516" xlink:href="#DejaVuSans-32"/>
     <use x="473.640625" xlink:href="#DejaVuSans-117"/>
     <use x="537.019531" xlink:href="#DejaVuSans-110"/>
     <use x="600.398438" xlink:href="#DejaVuSans-105"/>
     <use x="628.181641" xlink:href="#DejaVuSans-116"/>
     <use x="667.390625" xlink:href="#DejaVuSans-32"/>
     <use x="699.177734" xlink:href="#DejaVuSans-116"/>
     <use x="738.386719" xlink:href="#DejaVuSans-105"/>
     <use x="766.169922" xlink:href="#DejaVuSans-109"/>
     <use x="863.582031" xlink:href="#DejaVuSans-101"/>
    </g>
   </g>
  </g>
 </g>
 <defs>
  <clipPath id="pe4dd979b70">
   <rect height="277.2" width="266.869565" x="47.019375" y="26.877188"/>
  </clipPath>
  <clipPath id="p17de66d3a0">
   <rect height="277.2" width="266.869565" x="367.262853" y="26.877188"/>
  </clipPath>
  <clipPath id="p86eda9a43b">
   <rect height="277.2" width="266.869565" x="687.506332" y="26.877188"/>
  </clipPath>
  <clipPath id="pf102dddbfd">
   <rect height="277.2" width="266.869565" x="1007.74981" y="26.877188"/>
  </clipPath>
 </defs>
</svg>
