<?xml version="1.0" encoding="utf-8" standalone="no"?>
<!DOCTYPE svg PUBLIC "-//W3C//DTD SVG 1.1//EN"
  "http://www.w3.org/Graphics/SVG/1.1/DTD/svg11.dtd">
<!-- Created with matplotlib (https://matplotlib.org/) -->
<svg height="349.375938pt" version="1.1" viewBox="0 0 509.592196 349.375938" width="509.592196pt" xmlns="http://www.w3.org/2000/svg" xmlns:xlink="http://www.w3.org/1999/xlink">
 <defs>
  <style type="text/css">
*{stroke-linecap:butt;stroke-linejoin:round;}
  </style>
 </defs>
 <g id="figure_1">
  <g id="patch_1">
   <path d="M 0 349.375938 
L 509.592196 349.375938 
L 509.592196 0 
L 0 0 
z
" style="fill:#ffffff;"/>
  </g>
  <g id="axes_1">
   <g id="patch_2">
    <path d="M 54.654375 304.077188 
L 501.054375 304.077188 
L 501.054375 26.877188 
L 54.654375 26.877188 
z
" style="fill:#ffffff;"/>
   </g>
   <g id="matplotlib.axis_1">
    <g id="xtick_1">
     <g id="line2d_1">
      <path clip-path="url(#p3e3cb7350f)" d="M 74.945284 304.077188 
L 74.945284 26.877188 
" style="fill:none;stroke:#b0b0b0;stroke-linecap:square;stroke-width:0.8;"/>
     </g>
     <g id="line2d_2">
      <defs>
       <path d="M 0 0 
L 0 3.5 
" id="m331909aec3" style="stroke:#000000;stroke-width:0.8;"/>
      </defs>
      <g>
       <use style="stroke:#000000;stroke-width:0.8;" x="74.945284" xlink:href="#m331909aec3" y="304.077188"/>
      </g>
     </g>
     <g id="text_1">
      <!-- 0 -->
      <defs>
       <path d="M 31.78125 66.40625 
Q 24.171875 66.40625 20.328125 58.90625 
Q 16.5 51.421875 16.5 36.375 
Q 16.5 21.390625 20.328125 13.890625 
Q 24.171875 6.390625 31.78125 6.390625 
Q 39.453125 6.390625 43.28125 13.890625 
Q 47.125 21.390625 47.125 36.375 
Q 47.125 51.421875 43.28125 58.90625 
Q 39.453125 66.40625 31.78125 66.40625 
z
M 31.78125 74.21875 
Q 44.046875 74.21875 50.515625 64.515625 
Q 56.984375 54.828125 56.984375 36.375 
Q 56.984375 17.96875 50.515625 8.265625 
Q 44.046875 -1.421875 31.78125 -1.421875 
Q 19.53125 -1.421875 13.0625 8.265625 
Q 6.59375 17.96875 6.59375 36.375 
Q 6.59375 54.828125 13.0625 64.515625 
Q 19.53125 74.21875 31.78125 74.21875 
z
" id="DejaVuSans-48"/>
      </defs>
      <g transform="translate(71.127784 320.195313)scale(0.12 -0.12)">
       <use xlink:href="#DejaVuSans-48"/>
      </g>
     </g>
    </g>
    <g id="xtick_2">
     <g id="line2d_3">
      <path clip-path="url(#p3e3cb7350f)" d="M 144.913936 304.077188 
L 144.913936 26.877188 
" style="fill:none;stroke:#b0b0b0;stroke-linecap:square;stroke-width:0.8;"/>
     </g>
     <g id="line2d_4">
      <g>
       <use style="stroke:#000000;stroke-width:0.8;" x="144.913936" xlink:href="#m331909aec3" y="304.077188"/>
      </g>
     </g>
     <g id="text_2">
      <!-- 5 -->
      <defs>
       <path d="M 10.796875 72.90625 
L 49.515625 72.90625 
L 49.515625 64.59375 
L 19.828125 64.59375 
L 19.828125 46.734375 
Q 21.96875 47.46875 24.109375 47.828125 
Q 26.265625 48.1875 28.421875 48.1875 
Q 40.625 48.1875 47.75 41.5 
Q 54.890625 34.8125 54.890625 23.390625 
Q 54.890625 11.625 47.5625 5.09375 
Q 40.234375 -1.421875 26.90625 -1.421875 
Q 22.3125 -1.421875 17.546875 -0.640625 
Q 12.796875 0.140625 7.71875 1.703125 
L 7.71875 11.625 
Q 12.109375 9.234375 16.796875 8.0625 
Q 21.484375 6.890625 26.703125 6.890625 
Q 35.15625 6.890625 40.078125 11.328125 
Q 45.015625 15.765625 45.015625 23.390625 
Q 45.015625 31 40.078125 35.4375 
Q 35.15625 39.890625 26.703125 39.890625 
Q 22.75 39.890625 18.8125 39.015625 
Q 14.890625 38.140625 10.796875 36.28125 
z
" id="DejaVuSans-53"/>
      </defs>
      <g transform="translate(141.096436 320.195313)scale(0.12 -0.12)">
       <use xlink:href="#DejaVuSans-53"/>
      </g>
     </g>
    </g>
    <g id="xtick_3">
     <g id="line2d_5">
      <path clip-path="url(#p3e3cb7350f)" d="M 214.882588 304.077188 
L 214.882588 26.877188 
" style="fill:none;stroke:#b0b0b0;stroke-linecap:square;stroke-width:0.8;"/>
     </g>
     <g id="line2d_6">
      <g>
       <use style="stroke:#000000;stroke-width:0.8;" x="214.882588" xlink:href="#m331909aec3" y="304.077188"/>
      </g>
     </g>
     <g id="text_3">
      <!-- 10 -->
      <defs>
       <path d="M 12.40625 8.296875 
L 28.515625 8.296875 
L 28.515625 63.921875 
L 10.984375 60.40625 
L 10.984375 69.390625 
L 28.421875 72.90625 
L 38.28125 72.90625 
L 38.28125 8.296875 
L 54.390625 8.296875 
L 54.390625 0 
L 12.40625 0 
z
" id="DejaVuSans-49"/>
      </defs>
      <g transform="translate(207.247588 320.195313)scale(0.12 -0.12)">
       <use xlink:href="#DejaVuSans-49"/>
       <use x="63.623047" xlink:href="#DejaVuSans-48"/>
      </g>
     </g>
    </g>
    <g id="xtick_4">
     <g id="line2d_7">
      <path clip-path="url(#p3e3cb7350f)" d="M 284.85124 304.077188 
L 284.85124 26.877188 
" style="fill:none;stroke:#b0b0b0;stroke-linecap:square;stroke-width:0.8;"/>
     </g>
     <g id="line2d_8">
      <g>
       <use style="stroke:#000000;stroke-width:0.8;" x="284.85124" xlink:href="#m331909aec3" y="304.077188"/>
      </g>
     </g>
     <g id="text_4">
      <!-- 15 -->
      <g transform="translate(277.21624 320.195313)scale(0.12 -0.12)">
       <use xlink:href="#DejaVuSans-49"/>
       <use x="63.623047" xlink:href="#DejaVuSans-53"/>
      </g>
     </g>
    </g>
    <g id="xtick_5">
     <g id="line2d_9">
      <path clip-path="url(#p3e3cb7350f)" d="M 354.819892 304.077188 
L 354.819892 26.877188 
" style="fill:none;stroke:#b0b0b0;stroke-linecap:square;stroke-width:0.8;"/>
     </g>
     <g id="line2d_10">
      <g>
       <use style="stroke:#000000;stroke-width:0.8;" x="354.819892" xlink:href="#m331909aec3" y="304.077188"/>
      </g>
     </g>
     <g id="text_5">
      <!-- 20 -->
      <defs>
       <path d="M 19.1875 8.296875 
L 53.609375 8.296875 
L 53.609375 0 
L 7.328125 0 
L 7.328125 8.296875 
Q 12.9375 14.109375 22.625 23.890625 
Q 32.328125 33.6875 34.8125 36.53125 
Q 39.546875 41.84375 41.421875 45.53125 
Q 43.3125 49.21875 43.3125 52.78125 
Q 43.3125 58.59375 39.234375 62.25 
Q 35.15625 65.921875 28.609375 65.921875 
Q 23.96875 65.921875 18.8125 64.3125 
Q 13.671875 62.703125 7.8125 59.421875 
L 7.8125 69.390625 
Q 13.765625 71.78125 18.9375 73 
Q 24.125 74.21875 28.421875 74.21875 
Q 39.75 74.21875 46.484375 68.546875 
Q 53.21875 62.890625 53.21875 53.421875 
Q 53.21875 48.921875 51.53125 44.890625 
Q 49.859375 40.875 45.40625 35.40625 
Q 44.1875 33.984375 37.640625 27.21875 
Q 31.109375 20.453125 19.1875 8.296875 
z
" id="DejaVuSans-50"/>
      </defs>
      <g transform="translate(347.184892 320.195313)scale(0.12 -0.12)">
       <use xlink:href="#DejaVuSans-50"/>
       <use x="63.623047" xlink:href="#DejaVuSans-48"/>
      </g>
     </g>
    </g>
    <g id="xtick_6">
     <g id="line2d_11">
      <path clip-path="url(#p3e3cb7350f)" d="M 424.788544 304.077188 
L 424.788544 26.877188 
" style="fill:none;stroke:#b0b0b0;stroke-linecap:square;stroke-width:0.8;"/>
     </g>
     <g id="line2d_12">
      <g>
       <use style="stroke:#000000;stroke-width:0.8;" x="424.788544" xlink:href="#m331909aec3" y="304.077188"/>
      </g>
     </g>
     <g id="text_6">
      <!-- 25 -->
      <g transform="translate(417.153544 320.195313)scale(0.12 -0.12)">
       <use xlink:href="#DejaVuSans-50"/>
       <use x="63.623047" xlink:href="#DejaVuSans-53"/>
      </g>
     </g>
    </g>
    <g id="xtick_7">
     <g id="line2d_13">
      <path clip-path="url(#p3e3cb7350f)" d="M 494.757196 304.077188 
L 494.757196 26.877188 
" style="fill:none;stroke:#b0b0b0;stroke-linecap:square;stroke-width:0.8;"/>
     </g>
     <g id="line2d_14">
      <g>
       <use style="stroke:#000000;stroke-width:0.8;" x="494.757196" xlink:href="#m331909aec3" y="304.077188"/>
      </g>
     </g>
     <g id="text_7">
      <!-- 30 -->
      <defs>
       <path d="M 40.578125 39.3125 
Q 47.65625 37.796875 51.625 33 
Q 55.609375 28.21875 55.609375 21.1875 
Q 55.609375 10.40625 48.1875 4.484375 
Q 40.765625 -1.421875 27.09375 -1.421875 
Q 22.515625 -1.421875 17.65625 -0.515625 
Q 12.796875 0.390625 7.625 2.203125 
L 7.625 11.71875 
Q 11.71875 9.328125 16.59375 8.109375 
Q 21.484375 6.890625 26.8125 6.890625 
Q 36.078125 6.890625 40.9375 10.546875 
Q 45.796875 14.203125 45.796875 21.1875 
Q 45.796875 27.640625 41.28125 31.265625 
Q 36.765625 34.90625 28.71875 34.90625 
L 20.21875 34.90625 
L 20.21875 43.015625 
L 29.109375 43.015625 
Q 36.375 43.015625 40.234375 45.921875 
Q 44.09375 48.828125 44.09375 54.296875 
Q 44.09375 59.90625 40.109375 62.90625 
Q 36.140625 65.921875 28.71875 65.921875 
Q 24.65625 65.921875 20.015625 65.03125 
Q 15.375 64.15625 9.8125 62.3125 
L 9.8125 71.09375 
Q 15.4375 72.65625 20.34375 73.4375 
Q 25.25 74.21875 29.59375 74.21875 
Q 40.828125 74.21875 47.359375 69.109375 
Q 53.90625 64.015625 53.90625 55.328125 
Q 53.90625 49.265625 50.4375 45.09375 
Q 46.96875 40.921875 40.578125 39.3125 
z
" id="DejaVuSans-51"/>
      </defs>
      <g transform="translate(487.122196 320.195313)scale(0.12 -0.12)">
       <use xlink:href="#DejaVuSans-51"/>
       <use x="63.623047" xlink:href="#DejaVuSans-48"/>
      </g>
     </g>
    </g>
    <g id="text_8">
     <!-- iteration -->
     <defs>
      <path d="M 9.421875 54.6875 
L 18.40625 54.6875 
L 18.40625 0 
L 9.421875 0 
z
M 9.421875 75.984375 
L 18.40625 75.984375 
L 18.40625 64.59375 
L 9.421875 64.59375 
z
" id="DejaVuSans-105"/>
      <path d="M 18.3125 70.21875 
L 18.3125 54.6875 
L 36.8125 54.6875 
L 36.8125 47.703125 
L 18.3125 47.703125 
L 18.3125 18.015625 
Q 18.3125 11.328125 20.140625 9.421875 
Q 21.96875 7.515625 27.59375 7.515625 
L 36.8125 7.515625 
L 36.8125 0 
L 27.59375 0 
Q 17.1875 0 13.234375 3.875 
Q 9.28125 7.765625 9.28125 18.015625 
L 9.28125 47.703125 
L 2.6875 47.703125 
L 2.6875 54.6875 
L 9.28125 54.6875 
L 9.28125 70.21875 
z
" id="DejaVuSans-116"/>
      <path d="M 56.203125 29.59375 
L 56.203125 25.203125 
L 14.890625 25.203125 
Q 15.484375 15.921875 20.484375 11.0625 
Q 25.484375 6.203125 34.421875 6.203125 
Q 39.59375 6.203125 44.453125 7.46875 
Q 49.3125 8.734375 54.109375 11.28125 
L 54.109375 2.78125 
Q 49.265625 0.734375 44.1875 -0.34375 
Q 39.109375 -1.421875 33.890625 -1.421875 
Q 20.796875 -1.421875 13.15625 6.1875 
Q 5.515625 13.8125 5.515625 26.8125 
Q 5.515625 40.234375 12.765625 48.109375 
Q 20.015625 56 32.328125 56 
Q 43.359375 56 49.78125 48.890625 
Q 56.203125 41.796875 56.203125 29.59375 
z
M 47.21875 32.234375 
Q 47.125 39.59375 43.09375 43.984375 
Q 39.0625 48.390625 32.421875 48.390625 
Q 24.90625 48.390625 20.390625 44.140625 
Q 15.875 39.890625 15.1875 32.171875 
z
" id="DejaVuSans-101"/>
      <path d="M 41.109375 46.296875 
Q 39.59375 47.171875 37.8125 47.578125 
Q 36.03125 48 33.890625 48 
Q 26.265625 48 22.1875 43.046875 
Q 18.109375 38.09375 18.109375 28.8125 
L 18.109375 0 
L 9.078125 0 
L 9.078125 54.6875 
L 18.109375 54.6875 
L 18.109375 46.1875 
Q 20.953125 51.171875 25.484375 53.578125 
Q 30.03125 56 36.53125 56 
Q 37.453125 56 38.578125 55.875 
Q 39.703125 55.765625 41.0625 55.515625 
z
" id="DejaVuSans-114"/>
      <path d="M 34.28125 27.484375 
Q 23.390625 27.484375 19.1875 25 
Q 14.984375 22.515625 14.984375 16.5 
Q 14.984375 11.71875 18.140625 8.90625 
Q 21.296875 6.109375 26.703125 6.109375 
Q 34.1875 6.109375 38.703125 11.40625 
Q 43.21875 16.703125 43.21875 25.484375 
L 43.21875 27.484375 
z
M 52.203125 31.203125 
L 52.203125 0 
L 43.21875 0 
L 43.21875 8.296875 
Q 40.140625 3.328125 35.546875 0.953125 
Q 30.953125 -1.421875 24.3125 -1.421875 
Q 15.921875 -1.421875 10.953125 3.296875 
Q 6 8.015625 6 15.921875 
Q 6 25.140625 12.171875 29.828125 
Q 18.359375 34.515625 30.609375 34.515625 
L 43.21875 34.515625 
L 43.21875 35.40625 
Q 43.21875 41.609375 39.140625 45 
Q 35.0625 48.390625 27.6875 48.390625 
Q 23 48.390625 18.546875 47.265625 
Q 14.109375 46.140625 10.015625 43.890625 
L 10.015625 52.203125 
Q 14.9375 54.109375 19.578125 55.046875 
Q 24.21875 56 28.609375 56 
Q 40.484375 56 46.34375 49.84375 
Q 52.203125 43.703125 52.203125 31.203125 
z
" id="DejaVuSans-97"/>
      <path d="M 30.609375 48.390625 
Q 23.390625 48.390625 19.1875 42.75 
Q 14.984375 37.109375 14.984375 27.296875 
Q 14.984375 17.484375 19.15625 11.84375 
Q 23.34375 6.203125 30.609375 6.203125 
Q 37.796875 6.203125 41.984375 11.859375 
Q 46.1875 17.53125 46.1875 27.296875 
Q 46.1875 37.015625 41.984375 42.703125 
Q 37.796875 48.390625 30.609375 48.390625 
z
M 30.609375 56 
Q 42.328125 56 49.015625 48.375 
Q 55.71875 40.765625 55.71875 27.296875 
Q 55.71875 13.875 49.015625 6.21875 
Q 42.328125 -1.421875 30.609375 -1.421875 
Q 18.84375 -1.421875 12.171875 6.21875 
Q 5.515625 13.875 5.515625 27.296875 
Q 5.515625 40.765625 12.171875 48.375 
Q 18.84375 56 30.609375 56 
z
" id="DejaVuSans-111"/>
      <path d="M 54.890625 33.015625 
L 54.890625 0 
L 45.90625 0 
L 45.90625 32.71875 
Q 45.90625 40.484375 42.875 44.328125 
Q 39.84375 48.1875 33.796875 48.1875 
Q 26.515625 48.1875 22.3125 43.546875 
Q 18.109375 38.921875 18.109375 30.90625 
L 18.109375 0 
L 9.078125 0 
L 9.078125 54.6875 
L 18.109375 54.6875 
L 18.109375 46.1875 
Q 21.34375 51.125 25.703125 53.5625 
Q 30.078125 56 35.796875 56 
Q 45.21875 56 50.046875 50.171875 
Q 54.890625 44.34375 54.890625 33.015625 
z
" id="DejaVuSans-110"/>
     </defs>
     <g transform="translate(244.058125 338.848438)scale(0.16 -0.16)">
      <use xlink:href="#DejaVuSans-105"/>
      <use x="27.783203" xlink:href="#DejaVuSans-116"/>
      <use x="66.992188" xlink:href="#DejaVuSans-101"/>
      <use x="128.515625" xlink:href="#DejaVuSans-114"/>
      <use x="169.628906" xlink:href="#DejaVuSans-97"/>
      <use x="230.908203" xlink:href="#DejaVuSans-116"/>
      <use x="270.117188" xlink:href="#DejaVuSans-105"/>
      <use x="297.900391" xlink:href="#DejaVuSans-111"/>
      <use x="359.082031" xlink:href="#DejaVuSans-110"/>
     </g>
    </g>
   </g>
   <g id="matplotlib.axis_2">
    <g id="ytick_1">
     <g id="line2d_15">
      <path clip-path="url(#p3e3cb7350f)" d="M 54.654375 304.077188 
L 501.054375 304.077188 
" style="fill:none;stroke:#b0b0b0;stroke-linecap:square;stroke-width:0.8;"/>
     </g>
     <g id="line2d_16">
      <defs>
       <path d="M 0 0 
L -3.5 0 
" id="me798122dd7" style="stroke:#000000;stroke-width:0.8;"/>
      </defs>
      <g>
       <use style="stroke:#000000;stroke-width:0.8;" x="54.654375" xlink:href="#me798122dd7" y="304.077188"/>
      </g>
     </g>
     <g id="text_9">
      <!-- 0 -->
      <g transform="translate(40.019375 308.63625)scale(0.12 -0.12)">
       <use xlink:href="#DejaVuSans-48"/>
      </g>
     </g>
    </g>
    <g id="ytick_2">
     <g id="line2d_17">
      <path clip-path="url(#p3e3cb7350f)" d="M 54.654375 265.029828 
L 501.054375 265.029828 
" style="fill:none;stroke:#b0b0b0;stroke-linecap:square;stroke-width:0.8;"/>
     </g>
     <g id="line2d_18">
      <g>
       <use style="stroke:#000000;stroke-width:0.8;" x="54.654375" xlink:href="#me798122dd7" y="265.029828"/>
      </g>
     </g>
     <g id="text_10">
      <!-- 20 -->
      <g transform="translate(32.384375 269.588891)scale(0.12 -0.12)">
       <use xlink:href="#DejaVuSans-50"/>
       <use x="63.623047" xlink:href="#DejaVuSans-48"/>
      </g>
     </g>
    </g>
    <g id="ytick_3">
     <g id="line2d_19">
      <path clip-path="url(#p3e3cb7350f)" d="M 54.654375 225.982469 
L 501.054375 225.982469 
" style="fill:none;stroke:#b0b0b0;stroke-linecap:square;stroke-width:0.8;"/>
     </g>
     <g id="line2d_20">
      <g>
       <use style="stroke:#000000;stroke-width:0.8;" x="54.654375" xlink:href="#me798122dd7" y="225.982469"/>
      </g>
     </g>
     <g id="text_11">
      <!-- 40 -->
      <defs>
       <path d="M 37.796875 64.3125 
L 12.890625 25.390625 
L 37.796875 25.390625 
z
M 35.203125 72.90625 
L 47.609375 72.90625 
L 47.609375 25.390625 
L 58.015625 25.390625 
L 58.015625 17.1875 
L 47.609375 17.1875 
L 47.609375 0 
L 37.796875 0 
L 37.796875 17.1875 
L 4.890625 17.1875 
L 4.890625 26.703125 
z
" id="DejaVuSans-52"/>
      </defs>
      <g transform="translate(32.384375 230.541532)scale(0.12 -0.12)">
       <use xlink:href="#DejaVuSans-52"/>
       <use x="63.623047" xlink:href="#DejaVuSans-48"/>
      </g>
     </g>
    </g>
    <g id="ytick_4">
     <g id="line2d_21">
      <path clip-path="url(#p3e3cb7350f)" d="M 54.654375 186.93511 
L 501.054375 186.93511 
" style="fill:none;stroke:#b0b0b0;stroke-linecap:square;stroke-width:0.8;"/>
     </g>
     <g id="line2d_22">
      <g>
       <use style="stroke:#000000;stroke-width:0.8;" x="54.654375" xlink:href="#me798122dd7" y="186.93511"/>
      </g>
     </g>
     <g id="text_12">
      <!-- 60 -->
      <defs>
       <path d="M 33.015625 40.375 
Q 26.375 40.375 22.484375 35.828125 
Q 18.609375 31.296875 18.609375 23.390625 
Q 18.609375 15.53125 22.484375 10.953125 
Q 26.375 6.390625 33.015625 6.390625 
Q 39.65625 6.390625 43.53125 10.953125 
Q 47.40625 15.53125 47.40625 23.390625 
Q 47.40625 31.296875 43.53125 35.828125 
Q 39.65625 40.375 33.015625 40.375 
z
M 52.59375 71.296875 
L 52.59375 62.3125 
Q 48.875 64.0625 45.09375 64.984375 
Q 41.3125 65.921875 37.59375 65.921875 
Q 27.828125 65.921875 22.671875 59.328125 
Q 17.53125 52.734375 16.796875 39.40625 
Q 19.671875 43.65625 24.015625 45.921875 
Q 28.375 48.1875 33.59375 48.1875 
Q 44.578125 48.1875 50.953125 41.515625 
Q 57.328125 34.859375 57.328125 23.390625 
Q 57.328125 12.15625 50.6875 5.359375 
Q 44.046875 -1.421875 33.015625 -1.421875 
Q 20.359375 -1.421875 13.671875 8.265625 
Q 6.984375 17.96875 6.984375 36.375 
Q 6.984375 53.65625 15.1875 63.9375 
Q 23.390625 74.21875 37.203125 74.21875 
Q 40.921875 74.21875 44.703125 73.484375 
Q 48.484375 72.75 52.59375 71.296875 
z
" id="DejaVuSans-54"/>
      </defs>
      <g transform="translate(32.384375 191.494173)scale(0.12 -0.12)">
       <use xlink:href="#DejaVuSans-54"/>
       <use x="63.623047" xlink:href="#DejaVuSans-48"/>
      </g>
     </g>
    </g>
    <g id="ytick_5">
     <g id="line2d_23">
      <path clip-path="url(#p3e3cb7350f)" d="M 54.654375 147.887751 
L 501.054375 147.887751 
" style="fill:none;stroke:#b0b0b0;stroke-linecap:square;stroke-width:0.8;"/>
     </g>
     <g id="line2d_24">
      <g>
       <use style="stroke:#000000;stroke-width:0.8;" x="54.654375" xlink:href="#me798122dd7" y="147.887751"/>
      </g>
     </g>
     <g id="text_13">
      <!-- 80 -->
      <defs>
       <path d="M 31.78125 34.625 
Q 24.75 34.625 20.71875 30.859375 
Q 16.703125 27.09375 16.703125 20.515625 
Q 16.703125 13.921875 20.71875 10.15625 
Q 24.75 6.390625 31.78125 6.390625 
Q 38.8125 6.390625 42.859375 10.171875 
Q 46.921875 13.96875 46.921875 20.515625 
Q 46.921875 27.09375 42.890625 30.859375 
Q 38.875 34.625 31.78125 34.625 
z
M 21.921875 38.8125 
Q 15.578125 40.375 12.03125 44.71875 
Q 8.5 49.078125 8.5 55.328125 
Q 8.5 64.0625 14.71875 69.140625 
Q 20.953125 74.21875 31.78125 74.21875 
Q 42.671875 74.21875 48.875 69.140625 
Q 55.078125 64.0625 55.078125 55.328125 
Q 55.078125 49.078125 51.53125 44.71875 
Q 48 40.375 41.703125 38.8125 
Q 48.828125 37.15625 52.796875 32.3125 
Q 56.78125 27.484375 56.78125 20.515625 
Q 56.78125 9.90625 50.3125 4.234375 
Q 43.84375 -1.421875 31.78125 -1.421875 
Q 19.734375 -1.421875 13.25 4.234375 
Q 6.78125 9.90625 6.78125 20.515625 
Q 6.78125 27.484375 10.78125 32.3125 
Q 14.796875 37.15625 21.921875 38.8125 
z
M 18.3125 54.390625 
Q 18.3125 48.734375 21.84375 45.5625 
Q 25.390625 42.390625 31.78125 42.390625 
Q 38.140625 42.390625 41.71875 45.5625 
Q 45.3125 48.734375 45.3125 54.390625 
Q 45.3125 60.0625 41.71875 63.234375 
Q 38.140625 66.40625 31.78125 66.40625 
Q 25.390625 66.40625 21.84375 63.234375 
Q 18.3125 60.0625 18.3125 54.390625 
z
" id="DejaVuSans-56"/>
      </defs>
      <g transform="translate(32.384375 152.446814)scale(0.12 -0.12)">
       <use xlink:href="#DejaVuSans-56"/>
       <use x="63.623047" xlink:href="#DejaVuSans-48"/>
      </g>
     </g>
    </g>
    <g id="ytick_6">
     <g id="line2d_25">
      <path clip-path="url(#p3e3cb7350f)" d="M 54.654375 108.840392 
L 501.054375 108.840392 
" style="fill:none;stroke:#b0b0b0;stroke-linecap:square;stroke-width:0.8;"/>
     </g>
     <g id="line2d_26">
      <g>
       <use style="stroke:#000000;stroke-width:0.8;" x="54.654375" xlink:href="#me798122dd7" y="108.840392"/>
      </g>
     </g>
     <g id="text_14">
      <!-- 100 -->
      <g transform="translate(24.749375 113.399455)scale(0.12 -0.12)">
       <use xlink:href="#DejaVuSans-49"/>
       <use x="63.623047" xlink:href="#DejaVuSans-48"/>
       <use x="127.246094" xlink:href="#DejaVuSans-48"/>
      </g>
     </g>
    </g>
    <g id="ytick_7">
     <g id="line2d_27">
      <path clip-path="url(#p3e3cb7350f)" d="M 54.654375 69.793033 
L 501.054375 69.793033 
" style="fill:none;stroke:#b0b0b0;stroke-linecap:square;stroke-width:0.8;"/>
     </g>
     <g id="line2d_28">
      <g>
       <use style="stroke:#000000;stroke-width:0.8;" x="54.654375" xlink:href="#me798122dd7" y="69.793033"/>
      </g>
     </g>
     <g id="text_15">
      <!-- 120 -->
      <g transform="translate(24.749375 74.352096)scale(0.12 -0.12)">
       <use xlink:href="#DejaVuSans-49"/>
       <use x="63.623047" xlink:href="#DejaVuSans-50"/>
       <use x="127.246094" xlink:href="#DejaVuSans-48"/>
      </g>
     </g>
    </g>
    <g id="ytick_8">
     <g id="line2d_29">
      <path clip-path="url(#p3e3cb7350f)" d="M 54.654375 30.745674 
L 501.054375 30.745674 
" style="fill:none;stroke:#b0b0b0;stroke-linecap:square;stroke-width:0.8;"/>
     </g>
     <g id="line2d_30">
      <g>
       <use style="stroke:#000000;stroke-width:0.8;" x="54.654375" xlink:href="#me798122dd7" y="30.745674"/>
      </g>
     </g>
     <g id="text_16">
      <!-- 140 -->
      <g transform="translate(24.749375 35.304737)scale(0.12 -0.12)">
       <use xlink:href="#DejaVuSans-49"/>
       <use x="63.623047" xlink:href="#DejaVuSans-52"/>
       <use x="127.246094" xlink:href="#DejaVuSans-48"/>
      </g>
     </g>
    </g>
    <g id="text_17">
     <!-- Sum C(x) -->
     <defs>
      <path d="M 53.515625 70.515625 
L 53.515625 60.890625 
Q 47.90625 63.578125 42.921875 64.890625 
Q 37.9375 66.21875 33.296875 66.21875 
Q 25.25 66.21875 20.875 63.09375 
Q 16.5 59.96875 16.5 54.203125 
Q 16.5 49.359375 19.40625 46.890625 
Q 22.3125 44.4375 30.421875 42.921875 
L 36.375 41.703125 
Q 47.40625 39.59375 52.65625 34.296875 
Q 57.90625 29 57.90625 20.125 
Q 57.90625 9.515625 50.796875 4.046875 
Q 43.703125 -1.421875 29.984375 -1.421875 
Q 24.8125 -1.421875 18.96875 -0.25 
Q 13.140625 0.921875 6.890625 3.21875 
L 6.890625 13.375 
Q 12.890625 10.015625 18.65625 8.296875 
Q 24.421875 6.59375 29.984375 6.59375 
Q 38.421875 6.59375 43.015625 9.90625 
Q 47.609375 13.234375 47.609375 19.390625 
Q 47.609375 24.75 44.3125 27.78125 
Q 41.015625 30.8125 33.5 32.328125 
L 27.484375 33.5 
Q 16.453125 35.6875 11.515625 40.375 
Q 6.59375 45.0625 6.59375 53.421875 
Q 6.59375 63.09375 13.40625 68.65625 
Q 20.21875 74.21875 32.171875 74.21875 
Q 37.3125 74.21875 42.625 73.28125 
Q 47.953125 72.359375 53.515625 70.515625 
z
" id="DejaVuSans-83"/>
      <path d="M 8.5 21.578125 
L 8.5 54.6875 
L 17.484375 54.6875 
L 17.484375 21.921875 
Q 17.484375 14.15625 20.5 10.265625 
Q 23.53125 6.390625 29.59375 6.390625 
Q 36.859375 6.390625 41.078125 11.03125 
Q 45.3125 15.671875 45.3125 23.6875 
L 45.3125 54.6875 
L 54.296875 54.6875 
L 54.296875 0 
L 45.3125 0 
L 45.3125 8.40625 
Q 42.046875 3.421875 37.71875 1 
Q 33.40625 -1.421875 27.6875 -1.421875 
Q 18.265625 -1.421875 13.375 4.4375 
Q 8.5 10.296875 8.5 21.578125 
z
M 31.109375 56 
z
" id="DejaVuSans-117"/>
      <path d="M 52 44.1875 
Q 55.375 50.25 60.0625 53.125 
Q 64.75 56 71.09375 56 
Q 79.640625 56 84.28125 50.015625 
Q 88.921875 44.046875 88.921875 33.015625 
L 88.921875 0 
L 79.890625 0 
L 79.890625 32.71875 
Q 79.890625 40.578125 77.09375 44.375 
Q 74.3125 48.1875 68.609375 48.1875 
Q 61.625 48.1875 57.5625 43.546875 
Q 53.515625 38.921875 53.515625 30.90625 
L 53.515625 0 
L 44.484375 0 
L 44.484375 32.71875 
Q 44.484375 40.625 41.703125 44.40625 
Q 38.921875 48.1875 33.109375 48.1875 
Q 26.21875 48.1875 22.15625 43.53125 
Q 18.109375 38.875 18.109375 30.90625 
L 18.109375 0 
L 9.078125 0 
L 9.078125 54.6875 
L 18.109375 54.6875 
L 18.109375 46.1875 
Q 21.1875 51.21875 25.484375 53.609375 
Q 29.78125 56 35.6875 56 
Q 41.65625 56 45.828125 52.96875 
Q 50 49.953125 52 44.1875 
z
" id="DejaVuSans-109"/>
      <path id="DejaVuSans-32"/>
      <path d="M 64.40625 67.28125 
L 64.40625 56.890625 
Q 59.421875 61.53125 53.78125 63.8125 
Q 48.140625 66.109375 41.796875 66.109375 
Q 29.296875 66.109375 22.65625 58.46875 
Q 16.015625 50.828125 16.015625 36.375 
Q 16.015625 21.96875 22.65625 14.328125 
Q 29.296875 6.6875 41.796875 6.6875 
Q 48.140625 6.6875 53.78125 8.984375 
Q 59.421875 11.28125 64.40625 15.921875 
L 64.40625 5.609375 
Q 59.234375 2.09375 53.4375 0.328125 
Q 47.65625 -1.421875 41.21875 -1.421875 
Q 24.65625 -1.421875 15.125 8.703125 
Q 5.609375 18.84375 5.609375 36.375 
Q 5.609375 53.953125 15.125 64.078125 
Q 24.65625 74.21875 41.21875 74.21875 
Q 47.75 74.21875 53.53125 72.484375 
Q 59.328125 70.75 64.40625 67.28125 
z
" id="DejaVuSans-67"/>
      <path d="M 31 75.875 
Q 24.46875 64.65625 21.28125 53.65625 
Q 18.109375 42.671875 18.109375 31.390625 
Q 18.109375 20.125 21.3125 9.0625 
Q 24.515625 -2 31 -13.1875 
L 23.1875 -13.1875 
Q 15.875 -1.703125 12.234375 9.375 
Q 8.59375 20.453125 8.59375 31.390625 
Q 8.59375 42.28125 12.203125 53.3125 
Q 15.828125 64.359375 23.1875 75.875 
z
" id="DejaVuSans-40"/>
      <path d="M 54.890625 54.6875 
L 35.109375 28.078125 
L 55.90625 0 
L 45.3125 0 
L 29.390625 21.484375 
L 13.484375 0 
L 2.875 0 
L 24.125 28.609375 
L 4.6875 54.6875 
L 15.28125 54.6875 
L 29.78125 35.203125 
L 44.28125 54.6875 
z
" id="DejaVuSans-120"/>
      <path d="M 8.015625 75.875 
L 15.828125 75.875 
Q 23.140625 64.359375 26.78125 53.3125 
Q 30.421875 42.28125 30.421875 31.390625 
Q 30.421875 20.453125 26.78125 9.375 
Q 23.140625 -1.703125 15.828125 -13.1875 
L 8.015625 -13.1875 
Q 14.5 -2 17.703125 9.0625 
Q 20.90625 20.125 20.90625 31.390625 
Q 20.90625 42.671875 17.703125 53.65625 
Q 14.5 64.65625 8.015625 75.875 
z
" id="DejaVuSans-41"/>
     </defs>
     <g transform="translate(17.837813 197.89375)rotate(-90)scale(0.14 -0.14)">
      <use xlink:href="#DejaVuSans-83"/>
      <use x="63.476562" xlink:href="#DejaVuSans-117"/>
      <use x="126.855469" xlink:href="#DejaVuSans-109"/>
      <use x="224.267578" xlink:href="#DejaVuSans-32"/>
      <use x="256.054688" xlink:href="#DejaVuSans-67"/>
      <use x="325.878906" xlink:href="#DejaVuSans-40"/>
      <use x="364.892578" xlink:href="#DejaVuSans-120"/>
      <use x="424.072266" xlink:href="#DejaVuSans-41"/>
     </g>
    </g>
   </g>
   <g id="line2d_31">
    <path clip-path="url(#p3e3cb7350f)" d="M 74.945284 297.757633 
L 88.939014 275.266299 
L 102.932745 253.003525 
L 116.926475 230.583091 
L 130.920206 225.535812 
L 144.913936 203.060924 
L 158.907667 198.008568 
L 172.901397 192.851076 
L 186.895127 170.605822 
L 200.888858 165.730466 
L 214.882588 160.813441 
L 228.876319 155.991667 
L 242.870049 151.18198 
L 256.863779 146.382649 
L 270.85751 141.589293 
L 284.85124 136.787513 
L 298.844971 131.984736 
L 312.838701 116.036385 
L 326.832431 111.263753 
L 340.826162 104.818422 
L 354.819892 99.96451 
L 368.813623 90.664056 
L 382.807353 84.936568 
L 396.801083 80.024692 
L 410.794814 63.989314 
L 424.788544 59.135705 
L 438.782275 54.281555 
L 452.776005 47.822054 
L 466.769736 31.847449 
L 480.763466 26.877188 
" style="fill:none;stroke:#0000ff;stroke-linecap:square;stroke-width:2;"/>
    <defs>
     <path d="M -3 3 
L 3 3 
L 3 -3 
L -3 -3 
z
" id="m8ba5bfc468" style="stroke:#0000ff;stroke-linejoin:miter;"/>
    </defs>
    <g clip-path="url(#p3e3cb7350f)">
     <use style="fill:#0000ff;stroke:#0000ff;stroke-linejoin:miter;" x="74.945284" xlink:href="#m8ba5bfc468" y="297.757633"/>
     <use style="fill:#0000ff;stroke:#0000ff;stroke-linejoin:miter;" x="88.939014" xlink:href="#m8ba5bfc468" y="275.266299"/>
     <use style="fill:#0000ff;stroke:#0000ff;stroke-linejoin:miter;" x="102.932745" xlink:href="#m8ba5bfc468" y="253.003525"/>
     <use style="fill:#0000ff;stroke:#0000ff;stroke-linejoin:miter;" x="116.926475" xlink:href="#m8ba5bfc468" y="230.583091"/>
     <use style="fill:#0000ff;stroke:#0000ff;stroke-linejoin:miter;" x="130.920206" xlink:href="#m8ba5bfc468" y="225.535812"/>
     <use style="fill:#0000ff;stroke:#0000ff;stroke-linejoin:miter;" x="144.913936" xlink:href="#m8ba5bfc468" y="203.060924"/>
     <use style="fill:#0000ff;stroke:#0000ff;stroke-linejoin:miter;" x="158.907667" xlink:href="#m8ba5bfc468" y="198.008568"/>
     <use style="fill:#0000ff;stroke:#0000ff;stroke-linejoin:miter;" x="172.901397" xlink:href="#m8ba5bfc468" y="192.851076"/>
     <use style="fill:#0000ff;stroke:#0000ff;stroke-linejoin:miter;" x="186.895127" xlink:href="#m8ba5bfc468" y="170.605822"/>
     <use style="fill:#0000ff;stroke:#0000ff;stroke-linejoin:miter;" x="200.888858" xlink:href="#m8ba5bfc468" y="165.730466"/>
     <use style="fill:#0000ff;stroke:#0000ff;stroke-linejoin:miter;" x="214.882588" xlink:href="#m8ba5bfc468" y="160.813441"/>
     <use style="fill:#0000ff;stroke:#0000ff;stroke-linejoin:miter;" x="228.876319" xlink:href="#m8ba5bfc468" y="155.991667"/>
     <use style="fill:#0000ff;stroke:#0000ff;stroke-linejoin:miter;" x="242.870049" xlink:href="#m8ba5bfc468" y="151.18198"/>
     <use style="fill:#0000ff;stroke:#0000ff;stroke-linejoin:miter;" x="256.863779" xlink:href="#m8ba5bfc468" y="146.382649"/>
     <use style="fill:#0000ff;stroke:#0000ff;stroke-linejoin:miter;" x="270.85751" xlink:href="#m8ba5bfc468" y="141.589293"/>
     <use style="fill:#0000ff;stroke:#0000ff;stroke-linejoin:miter;" x="284.85124" xlink:href="#m8ba5bfc468" y="136.787513"/>
     <use style="fill:#0000ff;stroke:#0000ff;stroke-linejoin:miter;" x="298.844971" xlink:href="#m8ba5bfc468" y="131.984736"/>
     <use style="fill:#0000ff;stroke:#0000ff;stroke-linejoin:miter;" x="312.838701" xlink:href="#m8ba5bfc468" y="116.036385"/>
     <use style="fill:#0000ff;stroke:#0000ff;stroke-linejoin:miter;" x="326.832431" xlink:href="#m8ba5bfc468" y="111.263753"/>
     <use style="fill:#0000ff;stroke:#0000ff;stroke-linejoin:miter;" x="340.826162" xlink:href="#m8ba5bfc468" y="104.818422"/>
     <use style="fill:#0000ff;stroke:#0000ff;stroke-linejoin:miter;" x="354.819892" xlink:href="#m8ba5bfc468" y="99.96451"/>
     <use style="fill:#0000ff;stroke:#0000ff;stroke-linejoin:miter;" x="368.813623" xlink:href="#m8ba5bfc468" y="90.664056"/>
     <use style="fill:#0000ff;stroke:#0000ff;stroke-linejoin:miter;" x="382.807353" xlink:href="#m8ba5bfc468" y="84.936568"/>
     <use style="fill:#0000ff;stroke:#0000ff;stroke-linejoin:miter;" x="396.801083" xlink:href="#m8ba5bfc468" y="80.024692"/>
     <use style="fill:#0000ff;stroke:#0000ff;stroke-linejoin:miter;" x="410.794814" xlink:href="#m8ba5bfc468" y="63.989314"/>
     <use style="fill:#0000ff;stroke:#0000ff;stroke-linejoin:miter;" x="424.788544" xlink:href="#m8ba5bfc468" y="59.135705"/>
     <use style="fill:#0000ff;stroke:#0000ff;stroke-linejoin:miter;" x="438.782275" xlink:href="#m8ba5bfc468" y="54.281555"/>
     <use style="fill:#0000ff;stroke:#0000ff;stroke-linejoin:miter;" x="452.776005" xlink:href="#m8ba5bfc468" y="47.822054"/>
     <use style="fill:#0000ff;stroke:#0000ff;stroke-linejoin:miter;" x="466.769736" xlink:href="#m8ba5bfc468" y="31.847449"/>
     <use style="fill:#0000ff;stroke:#0000ff;stroke-linejoin:miter;" x="480.763466" xlink:href="#m8ba5bfc468" y="26.877188"/>
    </g>
   </g>
   <g id="line2d_32">
    <path clip-path="url(#p3e3cb7350f)" d="M 74.945284 281.585853 
L 88.939014 259.32308 
L 102.932745 253.003525 
L 116.926475 230.583091 
L 130.920206 208.108202 
L 144.913936 203.132124 
L 158.907667 180.88687 
L 172.901397 176.077182 
L 186.895127 171.201826 
L 200.888858 166.380052 
L 214.882588 161.580722 
L 228.876319 156.72681 
L 242.870049 151.933454 
L 256.863779 147.131673 
L 270.85751 142.328897 
L 284.85124 137.556265 
L 298.844971 132.644389 
L 312.838701 126.199059 
L 326.832431 121.34545 
L 340.826162 116.491299 
L 354.819892 110.031799 
L 368.813623 105.114774 
L 382.807353 98.569326 
L 396.801083 92.333324 
L 410.794814 86.000988 
L 424.788544 81.030727 
L 438.782275 74.562861 
" style="fill:none;stroke:#008000;stroke-linecap:square;stroke-width:2;"/>
    <defs>
     <path d="M 0 3 
C 0.795609 3 1.55874 2.683901 2.12132 2.12132 
C 2.683901 1.55874 3 0.795609 3 0 
C 3 -0.795609 2.683901 -1.55874 2.12132 -2.12132 
C 1.55874 -2.683901 0.795609 -3 0 -3 
C -0.795609 -3 -1.55874 -2.683901 -2.12132 -2.12132 
C -2.683901 -1.55874 -3 -0.795609 -3 0 
C -3 0.795609 -2.683901 1.55874 -2.12132 2.12132 
C -1.55874 2.683901 -0.795609 3 0 3 
z
" id="m9b0ca8699e" style="stroke:#008000;"/>
    </defs>
    <g clip-path="url(#p3e3cb7350f)">
     <use style="fill:#008000;stroke:#008000;" x="74.945284" xlink:href="#m9b0ca8699e" y="281.585853"/>
     <use style="fill:#008000;stroke:#008000;" x="88.939014" xlink:href="#m9b0ca8699e" y="259.32308"/>
     <use style="fill:#008000;stroke:#008000;" x="102.932745" xlink:href="#m9b0ca8699e" y="253.003525"/>
     <use style="fill:#008000;stroke:#008000;" x="116.926475" xlink:href="#m9b0ca8699e" y="230.583091"/>
     <use style="fill:#008000;stroke:#008000;" x="130.920206" xlink:href="#m9b0ca8699e" y="208.108202"/>
     <use style="fill:#008000;stroke:#008000;" x="144.913936" xlink:href="#m9b0ca8699e" y="203.132124"/>
     <use style="fill:#008000;stroke:#008000;" x="158.907667" xlink:href="#m9b0ca8699e" y="180.88687"/>
     <use style="fill:#008000;stroke:#008000;" x="172.901397" xlink:href="#m9b0ca8699e" y="176.077182"/>
     <use style="fill:#008000;stroke:#008000;" x="186.895127" xlink:href="#m9b0ca8699e" y="171.201826"/>
     <use style="fill:#008000;stroke:#008000;" x="200.888858" xlink:href="#m9b0ca8699e" y="166.380052"/>
     <use style="fill:#008000;stroke:#008000;" x="214.882588" xlink:href="#m9b0ca8699e" y="161.580722"/>
     <use style="fill:#008000;stroke:#008000;" x="228.876319" xlink:href="#m9b0ca8699e" y="156.72681"/>
     <use style="fill:#008000;stroke:#008000;" x="242.870049" xlink:href="#m9b0ca8699e" y="151.933454"/>
     <use style="fill:#008000;stroke:#008000;" x="256.863779" xlink:href="#m9b0ca8699e" y="147.131673"/>
     <use style="fill:#008000;stroke:#008000;" x="270.85751" xlink:href="#m9b0ca8699e" y="142.328897"/>
     <use style="fill:#008000;stroke:#008000;" x="284.85124" xlink:href="#m9b0ca8699e" y="137.556265"/>
     <use style="fill:#008000;stroke:#008000;" x="298.844971" xlink:href="#m9b0ca8699e" y="132.644389"/>
     <use style="fill:#008000;stroke:#008000;" x="312.838701" xlink:href="#m9b0ca8699e" y="126.199059"/>
     <use style="fill:#008000;stroke:#008000;" x="326.832431" xlink:href="#m9b0ca8699e" y="121.34545"/>
     <use style="fill:#008000;stroke:#008000;" x="340.826162" xlink:href="#m9b0ca8699e" y="116.491299"/>
     <use style="fill:#008000;stroke:#008000;" x="354.819892" xlink:href="#m9b0ca8699e" y="110.031799"/>
     <use style="fill:#008000;stroke:#008000;" x="368.813623" xlink:href="#m9b0ca8699e" y="105.114774"/>
     <use style="fill:#008000;stroke:#008000;" x="382.807353" xlink:href="#m9b0ca8699e" y="98.569326"/>
     <use style="fill:#008000;stroke:#008000;" x="396.801083" xlink:href="#m9b0ca8699e" y="92.333324"/>
     <use style="fill:#008000;stroke:#008000;" x="410.794814" xlink:href="#m9b0ca8699e" y="86.000988"/>
     <use style="fill:#008000;stroke:#008000;" x="424.788544" xlink:href="#m9b0ca8699e" y="81.030727"/>
     <use style="fill:#008000;stroke:#008000;" x="438.782275" xlink:href="#m9b0ca8699e" y="74.562861"/>
    </g>
   </g>
   <g id="line2d_33">
    <path clip-path="url(#p3e3cb7350f)" d="M 74.945284 281.585853 
L 88.939014 275.266299 
L 102.932745 253.003525 
L 116.926475 247.956246 
L 130.920206 242.798754 
L 144.913936 237.989066 
L 158.907667 233.11371 
L 172.901397 228.31438 
L 186.895127 221.869049 
L 200.888858 217.047275 
L 214.882588 212.193363 
L 228.876319 207.281487 
L 242.870049 202.427879 
L 256.863779 197.634523 
L 270.85751 192.780372 
L 284.85124 170.359938 
L 298.844971 165.558158 
L 312.838701 160.755381 
L 326.832431 155.982749 
L 340.826162 151.065725 
L 354.819892 146.095464 
L 368.813623 141.162773 
L 382.807353 118.687885 
L 396.801083 113.730044 
L 410.794814 108.8205 
L 424.788544 103.913605 
L 438.782275 98.937527 
L 452.776005 93.99788 
L 466.769736 87.538379 
L 480.763466 82.4686 
" style="fill:none;stroke:#ff0000;stroke-linecap:square;stroke-width:2;"/>
    <defs>
     <path d="M -0 3 
L 3 -3 
L -3 -3 
z
" id="me000696639" style="stroke:#ff0000;stroke-linejoin:miter;"/>
    </defs>
    <g clip-path="url(#p3e3cb7350f)">
     <use style="fill:#ff0000;stroke:#ff0000;stroke-linejoin:miter;" x="74.945284" xlink:href="#me000696639" y="281.585853"/>
     <use style="fill:#ff0000;stroke:#ff0000;stroke-linejoin:miter;" x="88.939014" xlink:href="#me000696639" y="275.266299"/>
     <use style="fill:#ff0000;stroke:#ff0000;stroke-linejoin:miter;" x="102.932745" xlink:href="#me000696639" y="253.003525"/>
     <use style="fill:#ff0000;stroke:#ff0000;stroke-linejoin:miter;" x="116.926475" xlink:href="#me000696639" y="247.956246"/>
     <use style="fill:#ff0000;stroke:#ff0000;stroke-linejoin:miter;" x="130.920206" xlink:href="#me000696639" y="242.798754"/>
     <use style="fill:#ff0000;stroke:#ff0000;stroke-linejoin:miter;" x="144.913936" xlink:href="#me000696639" y="237.989066"/>
     <use style="fill:#ff0000;stroke:#ff0000;stroke-linejoin:miter;" x="158.907667" xlink:href="#me000696639" y="233.11371"/>
     <use style="fill:#ff0000;stroke:#ff0000;stroke-linejoin:miter;" x="172.901397" xlink:href="#me000696639" y="228.31438"/>
     <use style="fill:#ff0000;stroke:#ff0000;stroke-linejoin:miter;" x="186.895127" xlink:href="#me000696639" y="221.869049"/>
     <use style="fill:#ff0000;stroke:#ff0000;stroke-linejoin:miter;" x="200.888858" xlink:href="#me000696639" y="217.047275"/>
     <use style="fill:#ff0000;stroke:#ff0000;stroke-linejoin:miter;" x="214.882588" xlink:href="#me000696639" y="212.193363"/>
     <use style="fill:#ff0000;stroke:#ff0000;stroke-linejoin:miter;" x="228.876319" xlink:href="#me000696639" y="207.281487"/>
     <use style="fill:#ff0000;stroke:#ff0000;stroke-linejoin:miter;" x="242.870049" xlink:href="#me000696639" y="202.427879"/>
     <use style="fill:#ff0000;stroke:#ff0000;stroke-linejoin:miter;" x="256.863779" xlink:href="#me000696639" y="197.634523"/>
     <use style="fill:#ff0000;stroke:#ff0000;stroke-linejoin:miter;" x="270.85751" xlink:href="#me000696639" y="192.780372"/>
     <use style="fill:#ff0000;stroke:#ff0000;stroke-linejoin:miter;" x="284.85124" xlink:href="#me000696639" y="170.359938"/>
     <use style="fill:#ff0000;stroke:#ff0000;stroke-linejoin:miter;" x="298.844971" xlink:href="#me000696639" y="165.558158"/>
     <use style="fill:#ff0000;stroke:#ff0000;stroke-linejoin:miter;" x="312.838701" xlink:href="#me000696639" y="160.755381"/>
     <use style="fill:#ff0000;stroke:#ff0000;stroke-linejoin:miter;" x="326.832431" xlink:href="#me000696639" y="155.982749"/>
     <use style="fill:#ff0000;stroke:#ff0000;stroke-linejoin:miter;" x="340.826162" xlink:href="#me000696639" y="151.065725"/>
     <use style="fill:#ff0000;stroke:#ff0000;stroke-linejoin:miter;" x="354.819892" xlink:href="#me000696639" y="146.095464"/>
     <use style="fill:#ff0000;stroke:#ff0000;stroke-linejoin:miter;" x="368.813623" xlink:href="#me000696639" y="141.162773"/>
     <use style="fill:#ff0000;stroke:#ff0000;stroke-linejoin:miter;" x="382.807353" xlink:href="#me000696639" y="118.687885"/>
     <use style="fill:#ff0000;stroke:#ff0000;stroke-linejoin:miter;" x="396.801083" xlink:href="#me000696639" y="113.730044"/>
     <use style="fill:#ff0000;stroke:#ff0000;stroke-linejoin:miter;" x="410.794814" xlink:href="#me000696639" y="108.8205"/>
     <use style="fill:#ff0000;stroke:#ff0000;stroke-linejoin:miter;" x="424.788544" xlink:href="#me000696639" y="103.913605"/>
     <use style="fill:#ff0000;stroke:#ff0000;stroke-linejoin:miter;" x="438.782275" xlink:href="#me000696639" y="98.937527"/>
     <use style="fill:#ff0000;stroke:#ff0000;stroke-linejoin:miter;" x="452.776005" xlink:href="#me000696639" y="93.99788"/>
     <use style="fill:#ff0000;stroke:#ff0000;stroke-linejoin:miter;" x="466.769736" xlink:href="#me000696639" y="87.538379"/>
     <use style="fill:#ff0000;stroke:#ff0000;stroke-linejoin:miter;" x="480.763466" xlink:href="#me000696639" y="82.4686"/>
    </g>
   </g>
   <g id="line2d_34">
    <path clip-path="url(#p3e3cb7350f)" d="M 74.945284 297.757633 
L 88.939014 292.710354 
L 102.932745 270.21902 
L 116.926475 247.956246 
L 130.920206 225.535812 
L 144.913936 203.060924 
L 158.907667 180.815669 
L 172.901397 175.763314 
L 186.895127 170.739329 
L 200.888858 165.694264 
L 214.882588 160.651596 
L 228.876319 155.494103 
L 242.870049 150.577079 
L 256.863779 145.767391 
L 270.85751 140.968061 
L 284.85124 136.174704 
L 298.844971 131.372924 
L 312.838701 126.497568 
L 326.832431 121.694792 
L 340.826162 116.92216 
L 354.819892 110.476829 
L 368.813623 105.655055 
L 382.807353 100.801143 
L 396.801083 95.889267 
L 410.794814 89.429767 
L 424.788544 84.576159 
L 438.782275 79.722008 
L 452.776005 74.751747 
L 466.769736 68.206298 
L 480.763466 61.970296 
" style="fill:none;stroke:#bf00bf;stroke-linecap:square;stroke-width:2;"/>
    <defs>
     <path d="M -0 4.242641 
L 2.545584 0 
L 0 -4.242641 
L -2.545584 -0 
z
" id="mdc442661dc" style="stroke:#bf00bf;stroke-linejoin:miter;"/>
    </defs>
    <g clip-path="url(#p3e3cb7350f)">
     <use style="fill:#bf00bf;stroke:#bf00bf;stroke-linejoin:miter;" x="74.945284" xlink:href="#mdc442661dc" y="297.757633"/>
     <use style="fill:#bf00bf;stroke:#bf00bf;stroke-linejoin:miter;" x="88.939014" xlink:href="#mdc442661dc" y="292.710354"/>
     <use style="fill:#bf00bf;stroke:#bf00bf;stroke-linejoin:miter;" x="102.932745" xlink:href="#mdc442661dc" y="270.21902"/>
     <use style="fill:#bf00bf;stroke:#bf00bf;stroke-linejoin:miter;" x="116.926475" xlink:href="#mdc442661dc" y="247.956246"/>
     <use style="fill:#bf00bf;stroke:#bf00bf;stroke-linejoin:miter;" x="130.920206" xlink:href="#mdc442661dc" y="225.535812"/>
     <use style="fill:#bf00bf;stroke:#bf00bf;stroke-linejoin:miter;" x="144.913936" xlink:href="#mdc442661dc" y="203.060924"/>
     <use style="fill:#bf00bf;stroke:#bf00bf;stroke-linejoin:miter;" x="158.907667" xlink:href="#mdc442661dc" y="180.815669"/>
     <use style="fill:#bf00bf;stroke:#bf00bf;stroke-linejoin:miter;" x="172.901397" xlink:href="#mdc442661dc" y="175.763314"/>
     <use style="fill:#bf00bf;stroke:#bf00bf;stroke-linejoin:miter;" x="186.895127" xlink:href="#mdc442661dc" y="170.739329"/>
     <use style="fill:#bf00bf;stroke:#bf00bf;stroke-linejoin:miter;" x="200.888858" xlink:href="#mdc442661dc" y="165.694264"/>
     <use style="fill:#bf00bf;stroke:#bf00bf;stroke-linejoin:miter;" x="214.882588" xlink:href="#mdc442661dc" y="160.651596"/>
     <use style="fill:#bf00bf;stroke:#bf00bf;stroke-linejoin:miter;" x="228.876319" xlink:href="#mdc442661dc" y="155.494103"/>
     <use style="fill:#bf00bf;stroke:#bf00bf;stroke-linejoin:miter;" x="242.870049" xlink:href="#mdc442661dc" y="150.577079"/>
     <use style="fill:#bf00bf;stroke:#bf00bf;stroke-linejoin:miter;" x="256.863779" xlink:href="#mdc442661dc" y="145.767391"/>
     <use style="fill:#bf00bf;stroke:#bf00bf;stroke-linejoin:miter;" x="270.85751" xlink:href="#mdc442661dc" y="140.968061"/>
     <use style="fill:#bf00bf;stroke:#bf00bf;stroke-linejoin:miter;" x="284.85124" xlink:href="#mdc442661dc" y="136.174704"/>
     <use style="fill:#bf00bf;stroke:#bf00bf;stroke-linejoin:miter;" x="298.844971" xlink:href="#mdc442661dc" y="131.372924"/>
     <use style="fill:#bf00bf;stroke:#bf00bf;stroke-linejoin:miter;" x="312.838701" xlink:href="#mdc442661dc" y="126.497568"/>
     <use style="fill:#bf00bf;stroke:#bf00bf;stroke-linejoin:miter;" x="326.832431" xlink:href="#mdc442661dc" y="121.694792"/>
     <use style="fill:#bf00bf;stroke:#bf00bf;stroke-linejoin:miter;" x="340.826162" xlink:href="#mdc442661dc" y="116.92216"/>
     <use style="fill:#bf00bf;stroke:#bf00bf;stroke-linejoin:miter;" x="354.819892" xlink:href="#mdc442661dc" y="110.476829"/>
     <use style="fill:#bf00bf;stroke:#bf00bf;stroke-linejoin:miter;" x="368.813623" xlink:href="#mdc442661dc" y="105.655055"/>
     <use style="fill:#bf00bf;stroke:#bf00bf;stroke-linejoin:miter;" x="382.807353" xlink:href="#mdc442661dc" y="100.801143"/>
     <use style="fill:#bf00bf;stroke:#bf00bf;stroke-linejoin:miter;" x="396.801083" xlink:href="#mdc442661dc" y="95.889267"/>
     <use style="fill:#bf00bf;stroke:#bf00bf;stroke-linejoin:miter;" x="410.794814" xlink:href="#mdc442661dc" y="89.429767"/>
     <use style="fill:#bf00bf;stroke:#bf00bf;stroke-linejoin:miter;" x="424.788544" xlink:href="#mdc442661dc" y="84.576159"/>
     <use style="fill:#bf00bf;stroke:#bf00bf;stroke-linejoin:miter;" x="438.782275" xlink:href="#mdc442661dc" y="79.722008"/>
     <use style="fill:#bf00bf;stroke:#bf00bf;stroke-linejoin:miter;" x="452.776005" xlink:href="#mdc442661dc" y="74.751747"/>
     <use style="fill:#bf00bf;stroke:#bf00bf;stroke-linejoin:miter;" x="466.769736" xlink:href="#mdc442661dc" y="68.206298"/>
     <use style="fill:#bf00bf;stroke:#bf00bf;stroke-linejoin:miter;" x="480.763466" xlink:href="#mdc442661dc" y="61.970296"/>
    </g>
   </g>
   <g id="patch_3">
    <path d="M 54.654375 304.077188 
L 54.654375 26.877188 
" style="fill:none;stroke:#000000;stroke-linecap:square;stroke-linejoin:miter;stroke-width:0.8;"/>
   </g>
   <g id="patch_4">
    <path d="M 501.054375 304.077188 
L 501.054375 26.877188 
" style="fill:none;stroke:#000000;stroke-linecap:square;stroke-linejoin:miter;stroke-width:0.8;"/>
   </g>
   <g id="patch_5">
    <path d="M 54.654375 304.077188 
L 501.054375 304.077188 
" style="fill:none;stroke:#000000;stroke-linecap:square;stroke-linejoin:miter;stroke-width:0.8;"/>
   </g>
   <g id="patch_6">
    <path d="M 54.654375 26.877188 
L 501.054375 26.877188 
" style="fill:none;stroke:#000000;stroke-linecap:square;stroke-linejoin:miter;stroke-width:0.8;"/>
   </g>
   <g id="text_18">
    <!-- Cumulative costs comparison -->
    <defs>
     <path d="M 9.421875 75.984375 
L 18.40625 75.984375 
L 18.40625 0 
L 9.421875 0 
z
" id="DejaVuSans-108"/>
     <path d="M 2.984375 54.6875 
L 12.5 54.6875 
L 29.59375 8.796875 
L 46.6875 54.6875 
L 56.203125 54.6875 
L 35.6875 0 
L 23.484375 0 
z
" id="DejaVuSans-118"/>
     <path d="M 48.78125 52.59375 
L 48.78125 44.1875 
Q 44.96875 46.296875 41.140625 47.34375 
Q 37.3125 48.390625 33.40625 48.390625 
Q 24.65625 48.390625 19.8125 42.84375 
Q 14.984375 37.3125 14.984375 27.296875 
Q 14.984375 17.28125 19.8125 11.734375 
Q 24.65625 6.203125 33.40625 6.203125 
Q 37.3125 6.203125 41.140625 7.25 
Q 44.96875 8.296875 48.78125 10.40625 
L 48.78125 2.09375 
Q 45.015625 0.34375 40.984375 -0.53125 
Q 36.96875 -1.421875 32.421875 -1.421875 
Q 20.0625 -1.421875 12.78125 6.34375 
Q 5.515625 14.109375 5.515625 27.296875 
Q 5.515625 40.671875 12.859375 48.328125 
Q 20.21875 56 33.015625 56 
Q 37.15625 56 41.109375 55.140625 
Q 45.0625 54.296875 48.78125 52.59375 
z
" id="DejaVuSans-99"/>
     <path d="M 44.28125 53.078125 
L 44.28125 44.578125 
Q 40.484375 46.53125 36.375 47.5 
Q 32.28125 48.484375 27.875 48.484375 
Q 21.1875 48.484375 17.84375 46.4375 
Q 14.5 44.390625 14.5 40.28125 
Q 14.5 37.15625 16.890625 35.375 
Q 19.28125 33.59375 26.515625 31.984375 
L 29.59375 31.296875 
Q 39.15625 29.25 43.1875 25.515625 
Q 47.21875 21.78125 47.21875 15.09375 
Q 47.21875 7.46875 41.1875 3.015625 
Q 35.15625 -1.421875 24.609375 -1.421875 
Q 20.21875 -1.421875 15.453125 -0.5625 
Q 10.6875 0.296875 5.421875 2 
L 5.421875 11.28125 
Q 10.40625 8.6875 15.234375 7.390625 
Q 20.0625 6.109375 24.8125 6.109375 
Q 31.15625 6.109375 34.5625 8.28125 
Q 37.984375 10.453125 37.984375 14.40625 
Q 37.984375 18.0625 35.515625 20.015625 
Q 33.0625 21.96875 24.703125 23.78125 
L 21.578125 24.515625 
Q 13.234375 26.265625 9.515625 29.90625 
Q 5.8125 33.546875 5.8125 39.890625 
Q 5.8125 47.609375 11.28125 51.796875 
Q 16.75 56 26.8125 56 
Q 31.78125 56 36.171875 55.265625 
Q 40.578125 54.546875 44.28125 53.078125 
z
" id="DejaVuSans-115"/>
     <path d="M 18.109375 8.203125 
L 18.109375 -20.796875 
L 9.078125 -20.796875 
L 9.078125 54.6875 
L 18.109375 54.6875 
L 18.109375 46.390625 
Q 20.953125 51.265625 25.265625 53.625 
Q 29.59375 56 35.59375 56 
Q 45.5625 56 51.78125 48.09375 
Q 58.015625 40.1875 58.015625 27.296875 
Q 58.015625 14.40625 51.78125 6.484375 
Q 45.5625 -1.421875 35.59375 -1.421875 
Q 29.59375 -1.421875 25.265625 0.953125 
Q 20.953125 3.328125 18.109375 8.203125 
z
M 48.6875 27.296875 
Q 48.6875 37.203125 44.609375 42.84375 
Q 40.53125 48.484375 33.40625 48.484375 
Q 26.265625 48.484375 22.1875 42.84375 
Q 18.109375 37.203125 18.109375 27.296875 
Q 18.109375 17.390625 22.1875 11.75 
Q 26.265625 6.109375 33.40625 6.109375 
Q 40.53125 6.109375 44.609375 11.75 
Q 48.6875 17.390625 48.6875 27.296875 
z
" id="DejaVuSans-112"/>
    </defs>
    <g transform="translate(144.855469 20.877188)scale(0.18 -0.18)">
     <use xlink:href="#DejaVuSans-67"/>
     <use x="69.824219" xlink:href="#DejaVuSans-117"/>
     <use x="133.203125" xlink:href="#DejaVuSans-109"/>
     <use x="230.615234" xlink:href="#DejaVuSans-117"/>
     <use x="293.994141" xlink:href="#DejaVuSans-108"/>
     <use x="321.777344" xlink:href="#DejaVuSans-97"/>
     <use x="383.056641" xlink:href="#DejaVuSans-116"/>
     <use x="422.265625" xlink:href="#DejaVuSans-105"/>
     <use x="450.048828" xlink:href="#DejaVuSans-118"/>
     <use x="509.228516" xlink:href="#DejaVuSans-101"/>
     <use x="570.751953" xlink:href="#DejaVuSans-32"/>
     <use x="602.539062" xlink:href="#DejaVuSans-99"/>
     <use x="657.519531" xlink:href="#DejaVuSans-111"/>
     <use x="718.701172" xlink:href="#DejaVuSans-115"/>
     <use x="770.800781" xlink:href="#DejaVuSans-116"/>
     <use x="810.009766" xlink:href="#DejaVuSans-115"/>
     <use x="862.109375" xlink:href="#DejaVuSans-32"/>
     <use x="893.896484" xlink:href="#DejaVuSans-99"/>
     <use x="948.876953" xlink:href="#DejaVuSans-111"/>
     <use x="1010.058594" xlink:href="#DejaVuSans-109"/>
     <use x="1107.470703" xlink:href="#DejaVuSans-112"/>
     <use x="1170.947266" xlink:href="#DejaVuSans-97"/>
     <use x="1232.226562" xlink:href="#DejaVuSans-114"/>
     <use x="1273.339844" xlink:href="#DejaVuSans-105"/>
     <use x="1301.123047" xlink:href="#DejaVuSans-115"/>
     <use x="1353.222656" xlink:href="#DejaVuSans-111"/>
     <use x="1414.404297" xlink:href="#DejaVuSans-110"/>
    </g>
   </g>
   <g id="legend_1">
    <g id="patch_7">
     <path d="M 65.854375 133.617188 
L 191.209375 133.617188 
Q 194.409375 133.617188 194.409375 130.417188 
L 194.409375 38.077188 
Q 194.409375 34.877188 191.209375 34.877188 
L 65.854375 34.877188 
Q 62.654375 34.877188 62.654375 38.077188 
L 62.654375 130.417188 
Q 62.654375 133.617188 65.854375 133.617188 
z
" style="fill:#ffffff;opacity:0.8;stroke:#cccccc;stroke-linejoin:miter;"/>
    </g>
    <g id="line2d_35">
     <path d="M 69.054375 47.834688 
L 101.054375 47.834688 
" style="fill:none;stroke:#0000ff;stroke-linecap:square;stroke-width:2;"/>
    </g>
    <g id="line2d_36">
     <g>
      <use style="fill:#0000ff;stroke:#0000ff;stroke-linejoin:miter;" x="85.054375" xlink:href="#m8ba5bfc468" y="47.834688"/>
     </g>
    </g>
    <g id="text_19">
     <!-- Variant A -->
     <defs>
      <path d="M 28.609375 0 
L 0.78125 72.90625 
L 11.078125 72.90625 
L 34.1875 11.53125 
L 57.328125 72.90625 
L 67.578125 72.90625 
L 39.796875 0 
z
" id="DejaVuSans-86"/>
      <path d="M 34.1875 63.1875 
L 20.796875 26.90625 
L 47.609375 26.90625 
z
M 28.609375 72.90625 
L 39.796875 72.90625 
L 67.578125 0 
L 57.328125 0 
L 50.6875 18.703125 
L 17.828125 18.703125 
L 11.1875 0 
L 0.78125 0 
z
" id="DejaVuSans-65"/>
     </defs>
     <g transform="translate(113.854375 53.434688)scale(0.16 -0.16)">
      <use xlink:href="#DejaVuSans-86"/>
      <use x="60.658203" xlink:href="#DejaVuSans-97"/>
      <use x="121.9375" xlink:href="#DejaVuSans-114"/>
      <use x="163.050781" xlink:href="#DejaVuSans-105"/>
      <use x="190.833984" xlink:href="#DejaVuSans-97"/>
      <use x="252.113281" xlink:href="#DejaVuSans-110"/>
      <use x="315.492188" xlink:href="#DejaVuSans-116"/>
      <use x="354.701172" xlink:href="#DejaVuSans-32"/>
      <use x="386.488281" xlink:href="#DejaVuSans-65"/>
     </g>
    </g>
    <g id="line2d_37">
     <path d="M 69.054375 71.319688 
L 101.054375 71.319688 
" style="fill:none;stroke:#008000;stroke-linecap:square;stroke-width:2;"/>
    </g>
    <g id="line2d_38">
     <g>
      <use style="fill:#008000;stroke:#008000;" x="85.054375" xlink:href="#m9b0ca8699e" y="71.319688"/>
     </g>
    </g>
    <g id="text_20">
     <!-- Variant B -->
     <defs>
      <path d="M 19.671875 34.8125 
L 19.671875 8.109375 
L 35.5 8.109375 
Q 43.453125 8.109375 47.28125 11.40625 
Q 51.125 14.703125 51.125 21.484375 
Q 51.125 28.328125 47.28125 31.5625 
Q 43.453125 34.8125 35.5 34.8125 
z
M 19.671875 64.796875 
L 19.671875 42.828125 
L 34.28125 42.828125 
Q 41.5 42.828125 45.03125 45.53125 
Q 48.578125 48.25 48.578125 53.8125 
Q 48.578125 59.328125 45.03125 62.0625 
Q 41.5 64.796875 34.28125 64.796875 
z
M 9.8125 72.90625 
L 35.015625 72.90625 
Q 46.296875 72.90625 52.390625 68.21875 
Q 58.5 63.53125 58.5 54.890625 
Q 58.5 48.1875 55.375 44.234375 
Q 52.25 40.28125 46.1875 39.3125 
Q 53.46875 37.75 57.5 32.78125 
Q 61.53125 27.828125 61.53125 20.40625 
Q 61.53125 10.640625 54.890625 5.3125 
Q 48.25 0 35.984375 0 
L 9.8125 0 
z
" id="DejaVuSans-66"/>
     </defs>
     <g transform="translate(113.854375 76.919688)scale(0.16 -0.16)">
      <use xlink:href="#DejaVuSans-86"/>
      <use x="60.658203" xlink:href="#DejaVuSans-97"/>
      <use x="121.9375" xlink:href="#DejaVuSans-114"/>
      <use x="163.050781" xlink:href="#DejaVuSans-105"/>
      <use x="190.833984" xlink:href="#DejaVuSans-97"/>
      <use x="252.113281" xlink:href="#DejaVuSans-110"/>
      <use x="315.492188" xlink:href="#DejaVuSans-116"/>
      <use x="354.701172" xlink:href="#DejaVuSans-32"/>
      <use x="386.488281" xlink:href="#DejaVuSans-66"/>
     </g>
    </g>
    <g id="line2d_39">
     <path d="M 69.054375 94.804688 
L 101.054375 94.804688 
" style="fill:none;stroke:#ff0000;stroke-linecap:square;stroke-width:2;"/>
    </g>
    <g id="line2d_40">
     <g>
      <use style="fill:#ff0000;stroke:#ff0000;stroke-linejoin:miter;" x="85.054375" xlink:href="#me000696639" y="94.804688"/>
     </g>
    </g>
    <g id="text_21">
     <!-- Variant C -->
     <g transform="translate(113.854375 100.404688)scale(0.16 -0.16)">
      <use xlink:href="#DejaVuSans-86"/>
      <use x="60.658203" xlink:href="#DejaVuSans-97"/>
      <use x="121.9375" xlink:href="#DejaVuSans-114"/>
      <use x="163.050781" xlink:href="#DejaVuSans-105"/>
      <use x="190.833984" xlink:href="#DejaVuSans-97"/>
      <use x="252.113281" xlink:href="#DejaVuSans-110"/>
      <use x="315.492188" xlink:href="#DejaVuSans-116"/>
      <use x="354.701172" xlink:href="#DejaVuSans-32"/>
      <use x="386.488281" xlink:href="#DejaVuSans-67"/>
     </g>
    </g>
    <g id="line2d_41">
     <path d="M 69.054375 118.289688 
L 101.054375 118.289688 
" style="fill:none;stroke:#bf00bf;stroke-linecap:square;stroke-width:2;"/>
    </g>
    <g id="line2d_42">
     <g>
      <use style="fill:#bf00bf;stroke:#bf00bf;stroke-linejoin:miter;" x="85.054375" xlink:href="#mdc442661dc" y="118.289688"/>
     </g>
    </g>
    <g id="text_22">
     <!-- Variant D -->
     <defs>
      <path d="M 19.671875 64.796875 
L 19.671875 8.109375 
L 31.59375 8.109375 
Q 46.6875 8.109375 53.6875 14.9375 
Q 60.6875 21.78125 60.6875 36.53125 
Q 60.6875 51.171875 53.6875 57.984375 
Q 46.6875 64.796875 31.59375 64.796875 
z
M 9.8125 72.90625 
L 30.078125 72.90625 
Q 51.265625 72.90625 61.171875 64.09375 
Q 71.09375 55.28125 71.09375 36.53125 
Q 71.09375 17.671875 61.125 8.828125 
Q 51.171875 0 30.078125 0 
L 9.8125 0 
z
" id="DejaVuSans-68"/>
     </defs>
     <g transform="translate(113.854375 123.889688)scale(0.16 -0.16)">
      <use xlink:href="#DejaVuSans-86"/>
      <use x="60.658203" xlink:href="#DejaVuSans-97"/>
      <use x="121.9375" xlink:href="#DejaVuSans-114"/>
      <use x="163.050781" xlink:href="#DejaVuSans-105"/>
      <use x="190.833984" xlink:href="#DejaVuSans-97"/>
      <use x="252.113281" xlink:href="#DejaVuSans-110"/>
      <use x="315.492188" xlink:href="#DejaVuSans-116"/>
      <use x="354.701172" xlink:href="#DejaVuSans-32"/>
      <use x="386.488281" xlink:href="#DejaVuSans-68"/>
     </g>
    </g>
   </g>
  </g>
 </g>
 <defs>
  <clipPath id="p3e3cb7350f">
   <rect height="277.2" width="446.4" x="54.654375" y="26.877188"/>
  </clipPath>
 </defs>
</svg>
