<?xml version="1.0" encoding="utf-8" standalone="no"?>
<!DOCTYPE svg PUBLIC "-//W3C//DTD SVG 1.1//EN"
  "http://www.w3.org/Graphics/SVG/1.1/DTD/svg11.dtd">
<!-- Created with matplotlib (https://matplotlib.org/) -->
<svg height="349.375938pt" version="1.1" viewBox="0 0 508.254375 349.375938" width="508.254375pt" xmlns="http://www.w3.org/2000/svg" xmlns:xlink="http://www.w3.org/1999/xlink">
 <defs>
  <style type="text/css">
*{stroke-linecap:butt;stroke-linejoin:round;}
  </style>
 </defs>
 <g id="figure_1">
  <g id="patch_1">
   <path d="M 0 349.375938 
L 508.254375 349.375938 
L 508.254375 0 
L 0 0 
z
" style="fill:#ffffff;"/>
  </g>
  <g id="axes_1">
   <g id="patch_2">
    <path d="M 54.654375 304.077188 
L 501.054375 304.077188 
L 501.054375 26.877188 
L 54.654375 26.877188 
z
" style="fill:#ffffff;"/>
   </g>
   <g id="matplotlib.axis_1">
    <g id="xtick_1">
     <g id="line2d_1">
      <path clip-path="url(#pe7ab55c85a)" d="M 74.945284 304.077188 
L 74.945284 26.877188 
" style="fill:none;stroke:#b0b0b0;stroke-linecap:square;stroke-width:0.8;"/>
     </g>
     <g id="line2d_2">
      <defs>
       <path d="M 0 0 
L 0 3.5 
" id="m5d6447af22" style="stroke:#000000;stroke-width:0.8;"/>
      </defs>
      <g>
       <use style="stroke:#000000;stroke-width:0.8;" x="74.945284" xlink:href="#m5d6447af22" y="304.077188"/>
      </g>
     </g>
     <g id="text_1">
      <!-- 0 -->
      <defs>
       <path d="M 31.78125 66.40625 
Q 24.171875 66.40625 20.328125 58.90625 
Q 16.5 51.421875 16.5 36.375 
Q 16.5 21.390625 20.328125 13.890625 
Q 24.171875 6.390625 31.78125 6.390625 
Q 39.453125 6.390625 43.28125 13.890625 
Q 47.125 21.390625 47.125 36.375 
Q 47.125 51.421875 43.28125 58.90625 
Q 39.453125 66.40625 31.78125 66.40625 
z
M 31.78125 74.21875 
Q 44.046875 74.21875 50.515625 64.515625 
Q 56.984375 54.828125 56.984375 36.375 
Q 56.984375 17.96875 50.515625 8.265625 
Q 44.046875 -1.421875 31.78125 -1.421875 
Q 19.53125 -1.421875 13.0625 8.265625 
Q 6.59375 17.96875 6.59375 36.375 
Q 6.59375 54.828125 13.0625 64.515625 
Q 19.53125 74.21875 31.78125 74.21875 
z
" id="DejaVuSans-48"/>
      </defs>
      <g transform="translate(71.127784 320.195313)scale(0.12 -0.12)">
       <use xlink:href="#DejaVuSans-48"/>
      </g>
     </g>
    </g>
    <g id="xtick_2">
     <g id="line2d_3">
      <path clip-path="url(#pe7ab55c85a)" d="M 129.054375 304.077188 
L 129.054375 26.877188 
" style="fill:none;stroke:#b0b0b0;stroke-linecap:square;stroke-width:0.8;"/>
     </g>
     <g id="line2d_4">
      <g>
       <use style="stroke:#000000;stroke-width:0.8;" x="129.054375" xlink:href="#m5d6447af22" y="304.077188"/>
      </g>
     </g>
     <g id="text_2">
      <!-- 2 -->
      <defs>
       <path d="M 19.1875 8.296875 
L 53.609375 8.296875 
L 53.609375 0 
L 7.328125 0 
L 7.328125 8.296875 
Q 12.9375 14.109375 22.625 23.890625 
Q 32.328125 33.6875 34.8125 36.53125 
Q 39.546875 41.84375 41.421875 45.53125 
Q 43.3125 49.21875 43.3125 52.78125 
Q 43.3125 58.59375 39.234375 62.25 
Q 35.15625 65.921875 28.609375 65.921875 
Q 23.96875 65.921875 18.8125 64.3125 
Q 13.671875 62.703125 7.8125 59.421875 
L 7.8125 69.390625 
Q 13.765625 71.78125 18.9375 73 
Q 24.125 74.21875 28.421875 74.21875 
Q 39.75 74.21875 46.484375 68.546875 
Q 53.21875 62.890625 53.21875 53.421875 
Q 53.21875 48.921875 51.53125 44.890625 
Q 49.859375 40.875 45.40625 35.40625 
Q 44.1875 33.984375 37.640625 27.21875 
Q 31.109375 20.453125 19.1875 8.296875 
z
" id="DejaVuSans-50"/>
      </defs>
      <g transform="translate(125.236875 320.195313)scale(0.12 -0.12)">
       <use xlink:href="#DejaVuSans-50"/>
      </g>
     </g>
    </g>
    <g id="xtick_3">
     <g id="line2d_5">
      <path clip-path="url(#pe7ab55c85a)" d="M 183.163466 304.077188 
L 183.163466 26.877188 
" style="fill:none;stroke:#b0b0b0;stroke-linecap:square;stroke-width:0.8;"/>
     </g>
     <g id="line2d_6">
      <g>
       <use style="stroke:#000000;stroke-width:0.8;" x="183.163466" xlink:href="#m5d6447af22" y="304.077188"/>
      </g>
     </g>
     <g id="text_3">
      <!-- 4 -->
      <defs>
       <path d="M 37.796875 64.3125 
L 12.890625 25.390625 
L 37.796875 25.390625 
z
M 35.203125 72.90625 
L 47.609375 72.90625 
L 47.609375 25.390625 
L 58.015625 25.390625 
L 58.015625 17.1875 
L 47.609375 17.1875 
L 47.609375 0 
L 37.796875 0 
L 37.796875 17.1875 
L 4.890625 17.1875 
L 4.890625 26.703125 
z
" id="DejaVuSans-52"/>
      </defs>
      <g transform="translate(179.345966 320.195313)scale(0.12 -0.12)">
       <use xlink:href="#DejaVuSans-52"/>
      </g>
     </g>
    </g>
    <g id="xtick_4">
     <g id="line2d_7">
      <path clip-path="url(#pe7ab55c85a)" d="M 237.272557 304.077188 
L 237.272557 26.877188 
" style="fill:none;stroke:#b0b0b0;stroke-linecap:square;stroke-width:0.8;"/>
     </g>
     <g id="line2d_8">
      <g>
       <use style="stroke:#000000;stroke-width:0.8;" x="237.272557" xlink:href="#m5d6447af22" y="304.077188"/>
      </g>
     </g>
     <g id="text_4">
      <!-- 6 -->
      <defs>
       <path d="M 33.015625 40.375 
Q 26.375 40.375 22.484375 35.828125 
Q 18.609375 31.296875 18.609375 23.390625 
Q 18.609375 15.53125 22.484375 10.953125 
Q 26.375 6.390625 33.015625 6.390625 
Q 39.65625 6.390625 43.53125 10.953125 
Q 47.40625 15.53125 47.40625 23.390625 
Q 47.40625 31.296875 43.53125 35.828125 
Q 39.65625 40.375 33.015625 40.375 
z
M 52.59375 71.296875 
L 52.59375 62.3125 
Q 48.875 64.0625 45.09375 64.984375 
Q 41.3125 65.921875 37.59375 65.921875 
Q 27.828125 65.921875 22.671875 59.328125 
Q 17.53125 52.734375 16.796875 39.40625 
Q 19.671875 43.65625 24.015625 45.921875 
Q 28.375 48.1875 33.59375 48.1875 
Q 44.578125 48.1875 50.953125 41.515625 
Q 57.328125 34.859375 57.328125 23.390625 
Q 57.328125 12.15625 50.6875 5.359375 
Q 44.046875 -1.421875 33.015625 -1.421875 
Q 20.359375 -1.421875 13.671875 8.265625 
Q 6.984375 17.96875 6.984375 36.375 
Q 6.984375 53.65625 15.1875 63.9375 
Q 23.390625 74.21875 37.203125 74.21875 
Q 40.921875 74.21875 44.703125 73.484375 
Q 48.484375 72.75 52.59375 71.296875 
z
" id="DejaVuSans-54"/>
      </defs>
      <g transform="translate(233.455057 320.195313)scale(0.12 -0.12)">
       <use xlink:href="#DejaVuSans-54"/>
      </g>
     </g>
    </g>
    <g id="xtick_5">
     <g id="line2d_9">
      <path clip-path="url(#pe7ab55c85a)" d="M 291.381648 304.077188 
L 291.381648 26.877188 
" style="fill:none;stroke:#b0b0b0;stroke-linecap:square;stroke-width:0.8;"/>
     </g>
     <g id="line2d_10">
      <g>
       <use style="stroke:#000000;stroke-width:0.8;" x="291.381648" xlink:href="#m5d6447af22" y="304.077188"/>
      </g>
     </g>
     <g id="text_5">
      <!-- 8 -->
      <defs>
       <path d="M 31.78125 34.625 
Q 24.75 34.625 20.71875 30.859375 
Q 16.703125 27.09375 16.703125 20.515625 
Q 16.703125 13.921875 20.71875 10.15625 
Q 24.75 6.390625 31.78125 6.390625 
Q 38.8125 6.390625 42.859375 10.171875 
Q 46.921875 13.96875 46.921875 20.515625 
Q 46.921875 27.09375 42.890625 30.859375 
Q 38.875 34.625 31.78125 34.625 
z
M 21.921875 38.8125 
Q 15.578125 40.375 12.03125 44.71875 
Q 8.5 49.078125 8.5 55.328125 
Q 8.5 64.0625 14.71875 69.140625 
Q 20.953125 74.21875 31.78125 74.21875 
Q 42.671875 74.21875 48.875 69.140625 
Q 55.078125 64.0625 55.078125 55.328125 
Q 55.078125 49.078125 51.53125 44.71875 
Q 48 40.375 41.703125 38.8125 
Q 48.828125 37.15625 52.796875 32.3125 
Q 56.78125 27.484375 56.78125 20.515625 
Q 56.78125 9.90625 50.3125 4.234375 
Q 43.84375 -1.421875 31.78125 -1.421875 
Q 19.734375 -1.421875 13.25 4.234375 
Q 6.78125 9.90625 6.78125 20.515625 
Q 6.78125 27.484375 10.78125 32.3125 
Q 14.796875 37.15625 21.921875 38.8125 
z
M 18.3125 54.390625 
Q 18.3125 48.734375 21.84375 45.5625 
Q 25.390625 42.390625 31.78125 42.390625 
Q 38.140625 42.390625 41.71875 45.5625 
Q 45.3125 48.734375 45.3125 54.390625 
Q 45.3125 60.0625 41.71875 63.234375 
Q 38.140625 66.40625 31.78125 66.40625 
Q 25.390625 66.40625 21.84375 63.234375 
Q 18.3125 60.0625 18.3125 54.390625 
z
" id="DejaVuSans-56"/>
      </defs>
      <g transform="translate(287.564148 320.195313)scale(0.12 -0.12)">
       <use xlink:href="#DejaVuSans-56"/>
      </g>
     </g>
    </g>
    <g id="xtick_6">
     <g id="line2d_11">
      <path clip-path="url(#pe7ab55c85a)" d="M 345.490739 304.077188 
L 345.490739 26.877188 
" style="fill:none;stroke:#b0b0b0;stroke-linecap:square;stroke-width:0.8;"/>
     </g>
     <g id="line2d_12">
      <g>
       <use style="stroke:#000000;stroke-width:0.8;" x="345.490739" xlink:href="#m5d6447af22" y="304.077188"/>
      </g>
     </g>
     <g id="text_6">
      <!-- 10 -->
      <defs>
       <path d="M 12.40625 8.296875 
L 28.515625 8.296875 
L 28.515625 63.921875 
L 10.984375 60.40625 
L 10.984375 69.390625 
L 28.421875 72.90625 
L 38.28125 72.90625 
L 38.28125 8.296875 
L 54.390625 8.296875 
L 54.390625 0 
L 12.40625 0 
z
" id="DejaVuSans-49"/>
      </defs>
      <g transform="translate(337.855739 320.195313)scale(0.12 -0.12)">
       <use xlink:href="#DejaVuSans-49"/>
       <use x="63.623047" xlink:href="#DejaVuSans-48"/>
      </g>
     </g>
    </g>
    <g id="xtick_7">
     <g id="line2d_13">
      <path clip-path="url(#pe7ab55c85a)" d="M 399.59983 304.077188 
L 399.59983 26.877188 
" style="fill:none;stroke:#b0b0b0;stroke-linecap:square;stroke-width:0.8;"/>
     </g>
     <g id="line2d_14">
      <g>
       <use style="stroke:#000000;stroke-width:0.8;" x="399.59983" xlink:href="#m5d6447af22" y="304.077188"/>
      </g>
     </g>
     <g id="text_7">
      <!-- 12 -->
      <g transform="translate(391.96483 320.195313)scale(0.12 -0.12)">
       <use xlink:href="#DejaVuSans-49"/>
       <use x="63.623047" xlink:href="#DejaVuSans-50"/>
      </g>
     </g>
    </g>
    <g id="xtick_8">
     <g id="line2d_15">
      <path clip-path="url(#pe7ab55c85a)" d="M 453.70892 304.077188 
L 453.70892 26.877188 
" style="fill:none;stroke:#b0b0b0;stroke-linecap:square;stroke-width:0.8;"/>
     </g>
     <g id="line2d_16">
      <g>
       <use style="stroke:#000000;stroke-width:0.8;" x="453.70892" xlink:href="#m5d6447af22" y="304.077188"/>
      </g>
     </g>
     <g id="text_8">
      <!-- 14 -->
      <g transform="translate(446.07392 320.195313)scale(0.12 -0.12)">
       <use xlink:href="#DejaVuSans-49"/>
       <use x="63.623047" xlink:href="#DejaVuSans-52"/>
      </g>
     </g>
    </g>
    <g id="text_9">
     <!-- iteration -->
     <defs>
      <path d="M 9.421875 54.6875 
L 18.40625 54.6875 
L 18.40625 0 
L 9.421875 0 
z
M 9.421875 75.984375 
L 18.40625 75.984375 
L 18.40625 64.59375 
L 9.421875 64.59375 
z
" id="DejaVuSans-105"/>
      <path d="M 18.3125 70.21875 
L 18.3125 54.6875 
L 36.8125 54.6875 
L 36.8125 47.703125 
L 18.3125 47.703125 
L 18.3125 18.015625 
Q 18.3125 11.328125 20.140625 9.421875 
Q 21.96875 7.515625 27.59375 7.515625 
L 36.8125 7.515625 
L 36.8125 0 
L 27.59375 0 
Q 17.1875 0 13.234375 3.875 
Q 9.28125 7.765625 9.28125 18.015625 
L 9.28125 47.703125 
L 2.6875 47.703125 
L 2.6875 54.6875 
L 9.28125 54.6875 
L 9.28125 70.21875 
z
" id="DejaVuSans-116"/>
      <path d="M 56.203125 29.59375 
L 56.203125 25.203125 
L 14.890625 25.203125 
Q 15.484375 15.921875 20.484375 11.0625 
Q 25.484375 6.203125 34.421875 6.203125 
Q 39.59375 6.203125 44.453125 7.46875 
Q 49.3125 8.734375 54.109375 11.28125 
L 54.109375 2.78125 
Q 49.265625 0.734375 44.1875 -0.34375 
Q 39.109375 -1.421875 33.890625 -1.421875 
Q 20.796875 -1.421875 13.15625 6.1875 
Q 5.515625 13.8125 5.515625 26.8125 
Q 5.515625 40.234375 12.765625 48.109375 
Q 20.015625 56 32.328125 56 
Q 43.359375 56 49.78125 48.890625 
Q 56.203125 41.796875 56.203125 29.59375 
z
M 47.21875 32.234375 
Q 47.125 39.59375 43.09375 43.984375 
Q 39.0625 48.390625 32.421875 48.390625 
Q 24.90625 48.390625 20.390625 44.140625 
Q 15.875 39.890625 15.1875 32.171875 
z
" id="DejaVuSans-101"/>
      <path d="M 41.109375 46.296875 
Q 39.59375 47.171875 37.8125 47.578125 
Q 36.03125 48 33.890625 48 
Q 26.265625 48 22.1875 43.046875 
Q 18.109375 38.09375 18.109375 28.8125 
L 18.109375 0 
L 9.078125 0 
L 9.078125 54.6875 
L 18.109375 54.6875 
L 18.109375 46.1875 
Q 20.953125 51.171875 25.484375 53.578125 
Q 30.03125 56 36.53125 56 
Q 37.453125 56 38.578125 55.875 
Q 39.703125 55.765625 41.0625 55.515625 
z
" id="DejaVuSans-114"/>
      <path d="M 34.28125 27.484375 
Q 23.390625 27.484375 19.1875 25 
Q 14.984375 22.515625 14.984375 16.5 
Q 14.984375 11.71875 18.140625 8.90625 
Q 21.296875 6.109375 26.703125 6.109375 
Q 34.1875 6.109375 38.703125 11.40625 
Q 43.21875 16.703125 43.21875 25.484375 
L 43.21875 27.484375 
z
M 52.203125 31.203125 
L 52.203125 0 
L 43.21875 0 
L 43.21875 8.296875 
Q 40.140625 3.328125 35.546875 0.953125 
Q 30.953125 -1.421875 24.3125 -1.421875 
Q 15.921875 -1.421875 10.953125 3.296875 
Q 6 8.015625 6 15.921875 
Q 6 25.140625 12.171875 29.828125 
Q 18.359375 34.515625 30.609375 34.515625 
L 43.21875 34.515625 
L 43.21875 35.40625 
Q 43.21875 41.609375 39.140625 45 
Q 35.0625 48.390625 27.6875 48.390625 
Q 23 48.390625 18.546875 47.265625 
Q 14.109375 46.140625 10.015625 43.890625 
L 10.015625 52.203125 
Q 14.9375 54.109375 19.578125 55.046875 
Q 24.21875 56 28.609375 56 
Q 40.484375 56 46.34375 49.84375 
Q 52.203125 43.703125 52.203125 31.203125 
z
" id="DejaVuSans-97"/>
      <path d="M 30.609375 48.390625 
Q 23.390625 48.390625 19.1875 42.75 
Q 14.984375 37.109375 14.984375 27.296875 
Q 14.984375 17.484375 19.15625 11.84375 
Q 23.34375 6.203125 30.609375 6.203125 
Q 37.796875 6.203125 41.984375 11.859375 
Q 46.1875 17.53125 46.1875 27.296875 
Q 46.1875 37.015625 41.984375 42.703125 
Q 37.796875 48.390625 30.609375 48.390625 
z
M 30.609375 56 
Q 42.328125 56 49.015625 48.375 
Q 55.71875 40.765625 55.71875 27.296875 
Q 55.71875 13.875 49.015625 6.21875 
Q 42.328125 -1.421875 30.609375 -1.421875 
Q 18.84375 -1.421875 12.171875 6.21875 
Q 5.515625 13.875 5.515625 27.296875 
Q 5.515625 40.765625 12.171875 48.375 
Q 18.84375 56 30.609375 56 
z
" id="DejaVuSans-111"/>
      <path d="M 54.890625 33.015625 
L 54.890625 0 
L 45.90625 0 
L 45.90625 32.71875 
Q 45.90625 40.484375 42.875 44.328125 
Q 39.84375 48.1875 33.796875 48.1875 
Q 26.515625 48.1875 22.3125 43.546875 
Q 18.109375 38.921875 18.109375 30.90625 
L 18.109375 0 
L 9.078125 0 
L 9.078125 54.6875 
L 18.109375 54.6875 
L 18.109375 46.1875 
Q 21.34375 51.125 25.703125 53.5625 
Q 30.078125 56 35.796875 56 
Q 45.21875 56 50.046875 50.171875 
Q 54.890625 44.34375 54.890625 33.015625 
z
" id="DejaVuSans-110"/>
     </defs>
     <g transform="translate(244.058125 338.848438)scale(0.16 -0.16)">
      <use xlink:href="#DejaVuSans-105"/>
      <use x="27.783203" xlink:href="#DejaVuSans-116"/>
      <use x="66.992188" xlink:href="#DejaVuSans-101"/>
      <use x="128.515625" xlink:href="#DejaVuSans-114"/>
      <use x="169.628906" xlink:href="#DejaVuSans-97"/>
      <use x="230.908203" xlink:href="#DejaVuSans-116"/>
      <use x="270.117188" xlink:href="#DejaVuSans-105"/>
      <use x="297.900391" xlink:href="#DejaVuSans-111"/>
      <use x="359.082031" xlink:href="#DejaVuSans-110"/>
     </g>
    </g>
   </g>
   <g id="matplotlib.axis_2">
    <g id="ytick_1">
     <g id="line2d_17">
      <path clip-path="url(#pe7ab55c85a)" d="M 54.654375 304.077188 
L 501.054375 304.077188 
" style="fill:none;stroke:#b0b0b0;stroke-linecap:square;stroke-width:0.8;"/>
     </g>
     <g id="line2d_18">
      <defs>
       <path d="M 0 0 
L -3.5 0 
" id="md3a6bbd28b" style="stroke:#000000;stroke-width:0.8;"/>
      </defs>
      <g>
       <use style="stroke:#000000;stroke-width:0.8;" x="54.654375" xlink:href="#md3a6bbd28b" y="304.077188"/>
      </g>
     </g>
     <g id="text_10">
      <!-- 0 -->
      <g transform="translate(40.019375 308.63625)scale(0.12 -0.12)">
       <use xlink:href="#DejaVuSans-48"/>
      </g>
     </g>
    </g>
    <g id="ytick_2">
     <g id="line2d_19">
      <path clip-path="url(#pe7ab55c85a)" d="M 54.654375 255.874257 
L 501.054375 255.874257 
" style="fill:none;stroke:#b0b0b0;stroke-linecap:square;stroke-width:0.8;"/>
     </g>
     <g id="line2d_20">
      <g>
       <use style="stroke:#000000;stroke-width:0.8;" x="54.654375" xlink:href="#md3a6bbd28b" y="255.874257"/>
      </g>
     </g>
     <g id="text_11">
      <!-- 20 -->
      <g transform="translate(32.384375 260.433319)scale(0.12 -0.12)">
       <use xlink:href="#DejaVuSans-50"/>
       <use x="63.623047" xlink:href="#DejaVuSans-48"/>
      </g>
     </g>
    </g>
    <g id="ytick_3">
     <g id="line2d_21">
      <path clip-path="url(#pe7ab55c85a)" d="M 54.654375 207.671326 
L 501.054375 207.671326 
" style="fill:none;stroke:#b0b0b0;stroke-linecap:square;stroke-width:0.8;"/>
     </g>
     <g id="line2d_22">
      <g>
       <use style="stroke:#000000;stroke-width:0.8;" x="54.654375" xlink:href="#md3a6bbd28b" y="207.671326"/>
      </g>
     </g>
     <g id="text_12">
      <!-- 40 -->
      <g transform="translate(32.384375 212.230388)scale(0.12 -0.12)">
       <use xlink:href="#DejaVuSans-52"/>
       <use x="63.623047" xlink:href="#DejaVuSans-48"/>
      </g>
     </g>
    </g>
    <g id="ytick_4">
     <g id="line2d_23">
      <path clip-path="url(#pe7ab55c85a)" d="M 54.654375 159.468395 
L 501.054375 159.468395 
" style="fill:none;stroke:#b0b0b0;stroke-linecap:square;stroke-width:0.8;"/>
     </g>
     <g id="line2d_24">
      <g>
       <use style="stroke:#000000;stroke-width:0.8;" x="54.654375" xlink:href="#md3a6bbd28b" y="159.468395"/>
      </g>
     </g>
     <g id="text_13">
      <!-- 60 -->
      <g transform="translate(32.384375 164.027457)scale(0.12 -0.12)">
       <use xlink:href="#DejaVuSans-54"/>
       <use x="63.623047" xlink:href="#DejaVuSans-48"/>
      </g>
     </g>
    </g>
    <g id="ytick_5">
     <g id="line2d_25">
      <path clip-path="url(#pe7ab55c85a)" d="M 54.654375 111.265464 
L 501.054375 111.265464 
" style="fill:none;stroke:#b0b0b0;stroke-linecap:square;stroke-width:0.8;"/>
     </g>
     <g id="line2d_26">
      <g>
       <use style="stroke:#000000;stroke-width:0.8;" x="54.654375" xlink:href="#md3a6bbd28b" y="111.265464"/>
      </g>
     </g>
     <g id="text_14">
      <!-- 80 -->
      <g transform="translate(32.384375 115.824527)scale(0.12 -0.12)">
       <use xlink:href="#DejaVuSans-56"/>
       <use x="63.623047" xlink:href="#DejaVuSans-48"/>
      </g>
     </g>
    </g>
    <g id="ytick_6">
     <g id="line2d_27">
      <path clip-path="url(#pe7ab55c85a)" d="M 54.654375 63.062533 
L 501.054375 63.062533 
" style="fill:none;stroke:#b0b0b0;stroke-linecap:square;stroke-width:0.8;"/>
     </g>
     <g id="line2d_28">
      <g>
       <use style="stroke:#000000;stroke-width:0.8;" x="54.654375" xlink:href="#md3a6bbd28b" y="63.062533"/>
      </g>
     </g>
     <g id="text_15">
      <!-- 100 -->
      <g transform="translate(24.749375 67.621596)scale(0.12 -0.12)">
       <use xlink:href="#DejaVuSans-49"/>
       <use x="63.623047" xlink:href="#DejaVuSans-48"/>
       <use x="127.246094" xlink:href="#DejaVuSans-48"/>
      </g>
     </g>
    </g>
    <g id="text_16">
     <!-- Sum C(x) -->
     <defs>
      <path d="M 53.515625 70.515625 
L 53.515625 60.890625 
Q 47.90625 63.578125 42.921875 64.890625 
Q 37.9375 66.21875 33.296875 66.21875 
Q 25.25 66.21875 20.875 63.09375 
Q 16.5 59.96875 16.5 54.203125 
Q 16.5 49.359375 19.40625 46.890625 
Q 22.3125 44.4375 30.421875 42.921875 
L 36.375 41.703125 
Q 47.40625 39.59375 52.65625 34.296875 
Q 57.90625 29 57.90625 20.125 
Q 57.90625 9.515625 50.796875 4.046875 
Q 43.703125 -1.421875 29.984375 -1.421875 
Q 24.8125 -1.421875 18.96875 -0.25 
Q 13.140625 0.921875 6.890625 3.21875 
L 6.890625 13.375 
Q 12.890625 10.015625 18.65625 8.296875 
Q 24.421875 6.59375 29.984375 6.59375 
Q 38.421875 6.59375 43.015625 9.90625 
Q 47.609375 13.234375 47.609375 19.390625 
Q 47.609375 24.75 44.3125 27.78125 
Q 41.015625 30.8125 33.5 32.328125 
L 27.484375 33.5 
Q 16.453125 35.6875 11.515625 40.375 
Q 6.59375 45.0625 6.59375 53.421875 
Q 6.59375 63.09375 13.40625 68.65625 
Q 20.21875 74.21875 32.171875 74.21875 
Q 37.3125 74.21875 42.625 73.28125 
Q 47.953125 72.359375 53.515625 70.515625 
z
" id="DejaVuSans-83"/>
      <path d="M 8.5 21.578125 
L 8.5 54.6875 
L 17.484375 54.6875 
L 17.484375 21.921875 
Q 17.484375 14.15625 20.5 10.265625 
Q 23.53125 6.390625 29.59375 6.390625 
Q 36.859375 6.390625 41.078125 11.03125 
Q 45.3125 15.671875 45.3125 23.6875 
L 45.3125 54.6875 
L 54.296875 54.6875 
L 54.296875 0 
L 45.3125 0 
L 45.3125 8.40625 
Q 42.046875 3.421875 37.71875 1 
Q 33.40625 -1.421875 27.6875 -1.421875 
Q 18.265625 -1.421875 13.375 4.4375 
Q 8.5 10.296875 8.5 21.578125 
z
M 31.109375 56 
z
" id="DejaVuSans-117"/>
      <path d="M 52 44.1875 
Q 55.375 50.25 60.0625 53.125 
Q 64.75 56 71.09375 56 
Q 79.640625 56 84.28125 50.015625 
Q 88.921875 44.046875 88.921875 33.015625 
L 88.921875 0 
L 79.890625 0 
L 79.890625 32.71875 
Q 79.890625 40.578125 77.09375 44.375 
Q 74.3125 48.1875 68.609375 48.1875 
Q 61.625 48.1875 57.5625 43.546875 
Q 53.515625 38.921875 53.515625 30.90625 
L 53.515625 0 
L 44.484375 0 
L 44.484375 32.71875 
Q 44.484375 40.625 41.703125 44.40625 
Q 38.921875 48.1875 33.109375 48.1875 
Q 26.21875 48.1875 22.15625 43.53125 
Q 18.109375 38.875 18.109375 30.90625 
L 18.109375 0 
L 9.078125 0 
L 9.078125 54.6875 
L 18.109375 54.6875 
L 18.109375 46.1875 
Q 21.1875 51.21875 25.484375 53.609375 
Q 29.78125 56 35.6875 56 
Q 41.65625 56 45.828125 52.96875 
Q 50 49.953125 52 44.1875 
z
" id="DejaVuSans-109"/>
      <path id="DejaVuSans-32"/>
      <path d="M 64.40625 67.28125 
L 64.40625 56.890625 
Q 59.421875 61.53125 53.78125 63.8125 
Q 48.140625 66.109375 41.796875 66.109375 
Q 29.296875 66.109375 22.65625 58.46875 
Q 16.015625 50.828125 16.015625 36.375 
Q 16.015625 21.96875 22.65625 14.328125 
Q 29.296875 6.6875 41.796875 6.6875 
Q 48.140625 6.6875 53.78125 8.984375 
Q 59.421875 11.28125 64.40625 15.921875 
L 64.40625 5.609375 
Q 59.234375 2.09375 53.4375 0.328125 
Q 47.65625 -1.421875 41.21875 -1.421875 
Q 24.65625 -1.421875 15.125 8.703125 
Q 5.609375 18.84375 5.609375 36.375 
Q 5.609375 53.953125 15.125 64.078125 
Q 24.65625 74.21875 41.21875 74.21875 
Q 47.75 74.21875 53.53125 72.484375 
Q 59.328125 70.75 64.40625 67.28125 
z
" id="DejaVuSans-67"/>
      <path d="M 31 75.875 
Q 24.46875 64.65625 21.28125 53.65625 
Q 18.109375 42.671875 18.109375 31.390625 
Q 18.109375 20.125 21.3125 9.0625 
Q 24.515625 -2 31 -13.1875 
L 23.1875 -13.1875 
Q 15.875 -1.703125 12.234375 9.375 
Q 8.59375 20.453125 8.59375 31.390625 
Q 8.59375 42.28125 12.203125 53.3125 
Q 15.828125 64.359375 23.1875 75.875 
z
" id="DejaVuSans-40"/>
      <path d="M 54.890625 54.6875 
L 35.109375 28.078125 
L 55.90625 0 
L 45.3125 0 
L 29.390625 21.484375 
L 13.484375 0 
L 2.875 0 
L 24.125 28.609375 
L 4.6875 54.6875 
L 15.28125 54.6875 
L 29.78125 35.203125 
L 44.28125 54.6875 
z
" id="DejaVuSans-120"/>
      <path d="M 8.015625 75.875 
L 15.828125 75.875 
Q 23.140625 64.359375 26.78125 53.3125 
Q 30.421875 42.28125 30.421875 31.390625 
Q 30.421875 20.453125 26.78125 9.375 
Q 23.140625 -1.703125 15.828125 -13.1875 
L 8.015625 -13.1875 
Q 14.5 -2 17.703125 9.0625 
Q 20.90625 20.125 20.90625 31.390625 
Q 20.90625 42.671875 17.703125 53.65625 
Q 14.5 64.65625 8.015625 75.875 
z
" id="DejaVuSans-41"/>
     </defs>
     <g transform="translate(17.837813 197.89375)rotate(-90)scale(0.14 -0.14)">
      <use xlink:href="#DejaVuSans-83"/>
      <use x="63.476562" xlink:href="#DejaVuSans-117"/>
      <use x="126.855469" xlink:href="#DejaVuSans-109"/>
      <use x="224.267578" xlink:href="#DejaVuSans-32"/>
      <use x="256.054688" xlink:href="#DejaVuSans-67"/>
      <use x="325.878906" xlink:href="#DejaVuSans-40"/>
      <use x="364.892578" xlink:href="#DejaVuSans-120"/>
      <use x="424.072266" xlink:href="#DejaVuSans-41"/>
     </g>
    </g>
   </g>
   <g id="line2d_29">
    <path clip-path="url(#pe7ab55c85a)" d="M 74.945284 296.275864 
L 101.99983 290.045132 
L 129.054375 284.026635 
L 156.10892 278.074282 
L 183.163466 272.082256 
L 210.218011 266.018676 
L 237.272557 260.027025 
L 264.327102 254.034704 
L 291.381648 247.964768 
L 318.436193 241.829112 
L 345.490739 235.739836 
L 372.545284 229.619513 
L 399.59983 223.558811 
" style="fill:none;stroke:#0000ff;stroke-linecap:square;stroke-width:2;"/>
    <defs>
     <path d="M -3 3 
L 3 3 
L 3 -3 
L -3 -3 
z
" id="m666677bb12" style="stroke:#0000ff;stroke-linejoin:miter;"/>
    </defs>
    <g clip-path="url(#pe7ab55c85a)">
     <use style="fill:#0000ff;stroke:#0000ff;stroke-linejoin:miter;" x="74.945284" xlink:href="#m666677bb12" y="296.275864"/>
     <use style="fill:#0000ff;stroke:#0000ff;stroke-linejoin:miter;" x="101.99983" xlink:href="#m666677bb12" y="290.045132"/>
     <use style="fill:#0000ff;stroke:#0000ff;stroke-linejoin:miter;" x="129.054375" xlink:href="#m666677bb12" y="284.026635"/>
     <use style="fill:#0000ff;stroke:#0000ff;stroke-linejoin:miter;" x="156.10892" xlink:href="#m666677bb12" y="278.074282"/>
     <use style="fill:#0000ff;stroke:#0000ff;stroke-linejoin:miter;" x="183.163466" xlink:href="#m666677bb12" y="272.082256"/>
     <use style="fill:#0000ff;stroke:#0000ff;stroke-linejoin:miter;" x="210.218011" xlink:href="#m666677bb12" y="266.018676"/>
     <use style="fill:#0000ff;stroke:#0000ff;stroke-linejoin:miter;" x="237.272557" xlink:href="#m666677bb12" y="260.027025"/>
     <use style="fill:#0000ff;stroke:#0000ff;stroke-linejoin:miter;" x="264.327102" xlink:href="#m666677bb12" y="254.034704"/>
     <use style="fill:#0000ff;stroke:#0000ff;stroke-linejoin:miter;" x="291.381648" xlink:href="#m666677bb12" y="247.964768"/>
     <use style="fill:#0000ff;stroke:#0000ff;stroke-linejoin:miter;" x="318.436193" xlink:href="#m666677bb12" y="241.829112"/>
     <use style="fill:#0000ff;stroke:#0000ff;stroke-linejoin:miter;" x="345.490739" xlink:href="#m666677bb12" y="235.739836"/>
     <use style="fill:#0000ff;stroke:#0000ff;stroke-linejoin:miter;" x="372.545284" xlink:href="#m666677bb12" y="229.619513"/>
     <use style="fill:#0000ff;stroke:#0000ff;stroke-linejoin:miter;" x="399.59983" xlink:href="#m666677bb12" y="223.558811"/>
    </g>
   </g>
   <g id="line2d_30">
    <path clip-path="url(#pe7ab55c85a)" d="M 74.945284 296.275864 
L 101.99983 289.821833 
L 129.054375 283.455046 
L 156.10892 277.436548 
L 183.163466 271.484196 
L 210.218011 265.49217 
L 237.272557 259.428589 
L 264.327102 253.436938 
L 291.381648 247.444618 
L 318.436193 241.374681 
L 345.490739 235.239025 
L 372.545284 229.14975 
L 399.59983 223.029426 
L 426.654375 217.091994 
" style="fill:none;stroke:#008000;stroke-linecap:square;stroke-width:2;"/>
    <defs>
     <path d="M 0 3 
C 0.795609 3 1.55874 2.683901 2.12132 2.12132 
C 2.683901 1.55874 3 0.795609 3 0 
C 3 -0.795609 2.683901 -1.55874 2.12132 -2.12132 
C 1.55874 -2.683901 0.795609 -3 0 -3 
C -0.795609 -3 -1.55874 -2.683901 -2.12132 -2.12132 
C -2.683901 -1.55874 -3 -0.795609 -3 0 
C -3 0.795609 -2.683901 1.55874 -2.12132 2.12132 
C -1.55874 2.683901 -0.795609 3 0 3 
z
" id="mdc5556ddf4" style="stroke:#008000;"/>
    </defs>
    <g clip-path="url(#pe7ab55c85a)">
     <use style="fill:#008000;stroke:#008000;" x="74.945284" xlink:href="#mdc5556ddf4" y="296.275864"/>
     <use style="fill:#008000;stroke:#008000;" x="101.99983" xlink:href="#mdc5556ddf4" y="289.821833"/>
     <use style="fill:#008000;stroke:#008000;" x="129.054375" xlink:href="#mdc5556ddf4" y="283.455046"/>
     <use style="fill:#008000;stroke:#008000;" x="156.10892" xlink:href="#mdc5556ddf4" y="277.436548"/>
     <use style="fill:#008000;stroke:#008000;" x="183.163466" xlink:href="#mdc5556ddf4" y="271.484196"/>
     <use style="fill:#008000;stroke:#008000;" x="210.218011" xlink:href="#mdc5556ddf4" y="265.49217"/>
     <use style="fill:#008000;stroke:#008000;" x="237.272557" xlink:href="#mdc5556ddf4" y="259.428589"/>
     <use style="fill:#008000;stroke:#008000;" x="264.327102" xlink:href="#mdc5556ddf4" y="253.436938"/>
     <use style="fill:#008000;stroke:#008000;" x="291.381648" xlink:href="#mdc5556ddf4" y="247.444618"/>
     <use style="fill:#008000;stroke:#008000;" x="318.436193" xlink:href="#mdc5556ddf4" y="241.374681"/>
     <use style="fill:#008000;stroke:#008000;" x="345.490739" xlink:href="#mdc5556ddf4" y="235.239025"/>
     <use style="fill:#008000;stroke:#008000;" x="372.545284" xlink:href="#mdc5556ddf4" y="229.14975"/>
     <use style="fill:#008000;stroke:#008000;" x="399.59983" xlink:href="#mdc5556ddf4" y="223.029426"/>
     <use style="fill:#008000;stroke:#008000;" x="426.654375" xlink:href="#mdc5556ddf4" y="217.091994"/>
    </g>
   </g>
   <g id="line2d_31">
    <path clip-path="url(#pe7ab55c85a)" d="M 74.945284 276.312231 
L 101.99983 268.355641 
L 129.054375 262.285704 
L 156.10892 256.267207 
L 183.163466 250.036475 
L 210.218011 242.062392 
L 237.272557 235.919555 
" style="fill:none;stroke:#ff0000;stroke-linecap:square;stroke-width:2;"/>
    <defs>
     <path d="M -0 3 
L 3 -3 
L -3 -3 
z
" id="macdeebde0d" style="stroke:#ff0000;stroke-linejoin:miter;"/>
    </defs>
    <g clip-path="url(#pe7ab55c85a)">
     <use style="fill:#ff0000;stroke:#ff0000;stroke-linejoin:miter;" x="74.945284" xlink:href="#macdeebde0d" y="276.312231"/>
     <use style="fill:#ff0000;stroke:#ff0000;stroke-linejoin:miter;" x="101.99983" xlink:href="#macdeebde0d" y="268.355641"/>
     <use style="fill:#ff0000;stroke:#ff0000;stroke-linejoin:miter;" x="129.054375" xlink:href="#macdeebde0d" y="262.285704"/>
     <use style="fill:#ff0000;stroke:#ff0000;stroke-linejoin:miter;" x="156.10892" xlink:href="#macdeebde0d" y="256.267207"/>
     <use style="fill:#ff0000;stroke:#ff0000;stroke-linejoin:miter;" x="183.163466" xlink:href="#macdeebde0d" y="250.036475"/>
     <use style="fill:#ff0000;stroke:#ff0000;stroke-linejoin:miter;" x="210.218011" xlink:href="#macdeebde0d" y="242.062392"/>
     <use style="fill:#ff0000;stroke:#ff0000;stroke-linejoin:miter;" x="237.272557" xlink:href="#macdeebde0d" y="235.919555"/>
    </g>
   </g>
   <g id="line2d_32">
    <path clip-path="url(#pe7ab55c85a)" d="M 74.945284 280.570648 
L 101.99983 272.951886 
L 129.054375 266.881949 
L 156.10892 260.863451 
L 183.163466 254.496664 
L 210.218011 248.544311 
L 237.272557 242.408655 
L 264.327102 236.31938 
L 291.381648 230.327354 
L 318.436193 224.263773 
L 345.490739 218.14345 
L 372.545284 212.206018 
L 399.59983 205.751987 
L 426.654375 199.760336 
L 453.70892 193.835689 
L 480.763466 187.843369 
" style="fill:none;stroke:#bf00bf;stroke-linecap:square;stroke-width:2;"/>
    <defs>
     <path d="M -0 4.242641 
L 2.545584 0 
L 0 -4.242641 
L -2.545584 -0 
z
" id="m695cd16c4e" style="stroke:#bf00bf;stroke-linejoin:miter;"/>
    </defs>
    <g clip-path="url(#pe7ab55c85a)">
     <use style="fill:#bf00bf;stroke:#bf00bf;stroke-linejoin:miter;" x="74.945284" xlink:href="#m695cd16c4e" y="280.570648"/>
     <use style="fill:#bf00bf;stroke:#bf00bf;stroke-linejoin:miter;" x="101.99983" xlink:href="#m695cd16c4e" y="272.951886"/>
     <use style="fill:#bf00bf;stroke:#bf00bf;stroke-linejoin:miter;" x="129.054375" xlink:href="#m695cd16c4e" y="266.881949"/>
     <use style="fill:#bf00bf;stroke:#bf00bf;stroke-linejoin:miter;" x="156.10892" xlink:href="#m695cd16c4e" y="260.863451"/>
     <use style="fill:#bf00bf;stroke:#bf00bf;stroke-linejoin:miter;" x="183.163466" xlink:href="#m695cd16c4e" y="254.496664"/>
     <use style="fill:#bf00bf;stroke:#bf00bf;stroke-linejoin:miter;" x="210.218011" xlink:href="#m695cd16c4e" y="248.544311"/>
     <use style="fill:#bf00bf;stroke:#bf00bf;stroke-linejoin:miter;" x="237.272557" xlink:href="#m695cd16c4e" y="242.408655"/>
     <use style="fill:#bf00bf;stroke:#bf00bf;stroke-linejoin:miter;" x="264.327102" xlink:href="#m695cd16c4e" y="236.31938"/>
     <use style="fill:#bf00bf;stroke:#bf00bf;stroke-linejoin:miter;" x="291.381648" xlink:href="#m695cd16c4e" y="230.327354"/>
     <use style="fill:#bf00bf;stroke:#bf00bf;stroke-linejoin:miter;" x="318.436193" xlink:href="#m695cd16c4e" y="224.263773"/>
     <use style="fill:#bf00bf;stroke:#bf00bf;stroke-linejoin:miter;" x="345.490739" xlink:href="#m695cd16c4e" y="218.14345"/>
     <use style="fill:#bf00bf;stroke:#bf00bf;stroke-linejoin:miter;" x="372.545284" xlink:href="#m695cd16c4e" y="212.206018"/>
     <use style="fill:#bf00bf;stroke:#bf00bf;stroke-linejoin:miter;" x="399.59983" xlink:href="#m695cd16c4e" y="205.751987"/>
     <use style="fill:#bf00bf;stroke:#bf00bf;stroke-linejoin:miter;" x="426.654375" xlink:href="#m695cd16c4e" y="199.760336"/>
     <use style="fill:#bf00bf;stroke:#bf00bf;stroke-linejoin:miter;" x="453.70892" xlink:href="#m695cd16c4e" y="193.835689"/>
     <use style="fill:#bf00bf;stroke:#bf00bf;stroke-linejoin:miter;" x="480.763466" xlink:href="#m695cd16c4e" y="187.843369"/>
    </g>
   </g>
   <g id="patch_3">
    <path d="M 54.654375 304.077188 
L 54.654375 26.877188 
" style="fill:none;stroke:#000000;stroke-linecap:square;stroke-linejoin:miter;stroke-width:0.8;"/>
   </g>
   <g id="patch_4">
    <path d="M 501.054375 304.077188 
L 501.054375 26.877188 
" style="fill:none;stroke:#000000;stroke-linecap:square;stroke-linejoin:miter;stroke-width:0.8;"/>
   </g>
   <g id="patch_5">
    <path d="M 54.654375 304.077188 
L 501.054375 304.077188 
" style="fill:none;stroke:#000000;stroke-linecap:square;stroke-linejoin:miter;stroke-width:0.8;"/>
   </g>
   <g id="patch_6">
    <path d="M 54.654375 26.877188 
L 501.054375 26.877188 
" style="fill:none;stroke:#000000;stroke-linecap:square;stroke-linejoin:miter;stroke-width:0.8;"/>
   </g>
   <g id="text_17">
    <!-- Cumulative costs comparison -->
    <defs>
     <path d="M 9.421875 75.984375 
L 18.40625 75.984375 
L 18.40625 0 
L 9.421875 0 
z
" id="DejaVuSans-108"/>
     <path d="M 2.984375 54.6875 
L 12.5 54.6875 
L 29.59375 8.796875 
L 46.6875 54.6875 
L 56.203125 54.6875 
L 35.6875 0 
L 23.484375 0 
z
" id="DejaVuSans-118"/>
     <path d="M 48.78125 52.59375 
L 48.78125 44.1875 
Q 44.96875 46.296875 41.140625 47.34375 
Q 37.3125 48.390625 33.40625 48.390625 
Q 24.65625 48.390625 19.8125 42.84375 
Q 14.984375 37.3125 14.984375 27.296875 
Q 14.984375 17.28125 19.8125 11.734375 
Q 24.65625 6.203125 33.40625 6.203125 
Q 37.3125 6.203125 41.140625 7.25 
Q 44.96875 8.296875 48.78125 10.40625 
L 48.78125 2.09375 
Q 45.015625 0.34375 40.984375 -0.53125 
Q 36.96875 -1.421875 32.421875 -1.421875 
Q 20.0625 -1.421875 12.78125 6.34375 
Q 5.515625 14.109375 5.515625 27.296875 
Q 5.515625 40.671875 12.859375 48.328125 
Q 20.21875 56 33.015625 56 
Q 37.15625 56 41.109375 55.140625 
Q 45.0625 54.296875 48.78125 52.59375 
z
" id="DejaVuSans-99"/>
     <path d="M 44.28125 53.078125 
L 44.28125 44.578125 
Q 40.484375 46.53125 36.375 47.5 
Q 32.28125 48.484375 27.875 48.484375 
Q 21.1875 48.484375 17.84375 46.4375 
Q 14.5 44.390625 14.5 40.28125 
Q 14.5 37.15625 16.890625 35.375 
Q 19.28125 33.59375 26.515625 31.984375 
L 29.59375 31.296875 
Q 39.15625 29.25 43.1875 25.515625 
Q 47.21875 21.78125 47.21875 15.09375 
Q 47.21875 7.46875 41.1875 3.015625 
Q 35.15625 -1.421875 24.609375 -1.421875 
Q 20.21875 -1.421875 15.453125 -0.5625 
Q 10.6875 0.296875 5.421875 2 
L 5.421875 11.28125 
Q 10.40625 8.6875 15.234375 7.390625 
Q 20.0625 6.109375 24.8125 6.109375 
Q 31.15625 6.109375 34.5625 8.28125 
Q 37.984375 10.453125 37.984375 14.40625 
Q 37.984375 18.0625 35.515625 20.015625 
Q 33.0625 21.96875 24.703125 23.78125 
L 21.578125 24.515625 
Q 13.234375 26.265625 9.515625 29.90625 
Q 5.8125 33.546875 5.8125 39.890625 
Q 5.8125 47.609375 11.28125 51.796875 
Q 16.75 56 26.8125 56 
Q 31.78125 56 36.171875 55.265625 
Q 40.578125 54.546875 44.28125 53.078125 
z
" id="DejaVuSans-115"/>
     <path d="M 18.109375 8.203125 
L 18.109375 -20.796875 
L 9.078125 -20.796875 
L 9.078125 54.6875 
L 18.109375 54.6875 
L 18.109375 46.390625 
Q 20.953125 51.265625 25.265625 53.625 
Q 29.59375 56 35.59375 56 
Q 45.5625 56 51.78125 48.09375 
Q 58.015625 40.1875 58.015625 27.296875 
Q 58.015625 14.40625 51.78125 6.484375 
Q 45.5625 -1.421875 35.59375 -1.421875 
Q 29.59375 -1.421875 25.265625 0.953125 
Q 20.953125 3.328125 18.109375 8.203125 
z
M 48.6875 27.296875 
Q 48.6875 37.203125 44.609375 42.84375 
Q 40.53125 48.484375 33.40625 48.484375 
Q 26.265625 48.484375 22.1875 42.84375 
Q 18.109375 37.203125 18.109375 27.296875 
Q 18.109375 17.390625 22.1875 11.75 
Q 26.265625 6.109375 33.40625 6.109375 
Q 40.53125 6.109375 44.609375 11.75 
Q 48.6875 17.390625 48.6875 27.296875 
z
" id="DejaVuSans-112"/>
    </defs>
    <g transform="translate(144.855469 20.877188)scale(0.18 -0.18)">
     <use xlink:href="#DejaVuSans-67"/>
     <use x="69.824219" xlink:href="#DejaVuSans-117"/>
     <use x="133.203125" xlink:href="#DejaVuSans-109"/>
     <use x="230.615234" xlink:href="#DejaVuSans-117"/>
     <use x="293.994141" xlink:href="#DejaVuSans-108"/>
     <use x="321.777344" xlink:href="#DejaVuSans-97"/>
     <use x="383.056641" xlink:href="#DejaVuSans-116"/>
     <use x="422.265625" xlink:href="#DejaVuSans-105"/>
     <use x="450.048828" xlink:href="#DejaVuSans-118"/>
     <use x="509.228516" xlink:href="#DejaVuSans-101"/>
     <use x="570.751953" xlink:href="#DejaVuSans-32"/>
     <use x="602.539062" xlink:href="#DejaVuSans-99"/>
     <use x="657.519531" xlink:href="#DejaVuSans-111"/>
     <use x="718.701172" xlink:href="#DejaVuSans-115"/>
     <use x="770.800781" xlink:href="#DejaVuSans-116"/>
     <use x="810.009766" xlink:href="#DejaVuSans-115"/>
     <use x="862.109375" xlink:href="#DejaVuSans-32"/>
     <use x="893.896484" xlink:href="#DejaVuSans-99"/>
     <use x="948.876953" xlink:href="#DejaVuSans-111"/>
     <use x="1010.058594" xlink:href="#DejaVuSans-109"/>
     <use x="1107.470703" xlink:href="#DejaVuSans-112"/>
     <use x="1170.947266" xlink:href="#DejaVuSans-97"/>
     <use x="1232.226562" xlink:href="#DejaVuSans-114"/>
     <use x="1273.339844" xlink:href="#DejaVuSans-105"/>
     <use x="1301.123047" xlink:href="#DejaVuSans-115"/>
     <use x="1353.222656" xlink:href="#DejaVuSans-111"/>
     <use x="1414.404297" xlink:href="#DejaVuSans-110"/>
    </g>
   </g>
   <g id="legend_1">
    <g id="patch_7">
     <path d="M 65.854375 133.617188 
L 191.209375 133.617188 
Q 194.409375 133.617188 194.409375 130.417188 
L 194.409375 38.077188 
Q 194.409375 34.877188 191.209375 34.877188 
L 65.854375 34.877188 
Q 62.654375 34.877188 62.654375 38.077188 
L 62.654375 130.417188 
Q 62.654375 133.617188 65.854375 133.617188 
z
" style="fill:#ffffff;opacity:0.8;stroke:#cccccc;stroke-linejoin:miter;"/>
    </g>
    <g id="line2d_33">
     <path d="M 69.054375 47.834688 
L 101.054375 47.834688 
" style="fill:none;stroke:#0000ff;stroke-linecap:square;stroke-width:2;"/>
    </g>
    <g id="line2d_34">
     <g>
      <use style="fill:#0000ff;stroke:#0000ff;stroke-linejoin:miter;" x="85.054375" xlink:href="#m666677bb12" y="47.834688"/>
     </g>
    </g>
    <g id="text_18">
     <!-- Variant A -->
     <defs>
      <path d="M 28.609375 0 
L 0.78125 72.90625 
L 11.078125 72.90625 
L 34.1875 11.53125 
L 57.328125 72.90625 
L 67.578125 72.90625 
L 39.796875 0 
z
" id="DejaVuSans-86"/>
      <path d="M 34.1875 63.1875 
L 20.796875 26.90625 
L 47.609375 26.90625 
z
M 28.609375 72.90625 
L 39.796875 72.90625 
L 67.578125 0 
L 57.328125 0 
L 50.6875 18.703125 
L 17.828125 18.703125 
L 11.1875 0 
L 0.78125 0 
z
" id="DejaVuSans-65"/>
     </defs>
     <g transform="translate(113.854375 53.434688)scale(0.16 -0.16)">
      <use xlink:href="#DejaVuSans-86"/>
      <use x="60.658203" xlink:href="#DejaVuSans-97"/>
      <use x="121.9375" xlink:href="#DejaVuSans-114"/>
      <use x="163.050781" xlink:href="#DejaVuSans-105"/>
      <use x="190.833984" xlink:href="#DejaVuSans-97"/>
      <use x="252.113281" xlink:href="#DejaVuSans-110"/>
      <use x="315.492188" xlink:href="#DejaVuSans-116"/>
      <use x="354.701172" xlink:href="#DejaVuSans-32"/>
      <use x="386.488281" xlink:href="#DejaVuSans-65"/>
     </g>
    </g>
    <g id="line2d_35">
     <path d="M 69.054375 71.319688 
L 101.054375 71.319688 
" style="fill:none;stroke:#008000;stroke-linecap:square;stroke-width:2;"/>
    </g>
    <g id="line2d_36">
     <g>
      <use style="fill:#008000;stroke:#008000;" x="85.054375" xlink:href="#mdc5556ddf4" y="71.319688"/>
     </g>
    </g>
    <g id="text_19">
     <!-- Variant B -->
     <defs>
      <path d="M 19.671875 34.8125 
L 19.671875 8.109375 
L 35.5 8.109375 
Q 43.453125 8.109375 47.28125 11.40625 
Q 51.125 14.703125 51.125 21.484375 
Q 51.125 28.328125 47.28125 31.5625 
Q 43.453125 34.8125 35.5 34.8125 
z
M 19.671875 64.796875 
L 19.671875 42.828125 
L 34.28125 42.828125 
Q 41.5 42.828125 45.03125 45.53125 
Q 48.578125 48.25 48.578125 53.8125 
Q 48.578125 59.328125 45.03125 62.0625 
Q 41.5 64.796875 34.28125 64.796875 
z
M 9.8125 72.90625 
L 35.015625 72.90625 
Q 46.296875 72.90625 52.390625 68.21875 
Q 58.5 63.53125 58.5 54.890625 
Q 58.5 48.1875 55.375 44.234375 
Q 52.25 40.28125 46.1875 39.3125 
Q 53.46875 37.75 57.5 32.78125 
Q 61.53125 27.828125 61.53125 20.40625 
Q 61.53125 10.640625 54.890625 5.3125 
Q 48.25 0 35.984375 0 
L 9.8125 0 
z
" id="DejaVuSans-66"/>
     </defs>
     <g transform="translate(113.854375 76.919688)scale(0.16 -0.16)">
      <use xlink:href="#DejaVuSans-86"/>
      <use x="60.658203" xlink:href="#DejaVuSans-97"/>
      <use x="121.9375" xlink:href="#DejaVuSans-114"/>
      <use x="163.050781" xlink:href="#DejaVuSans-105"/>
      <use x="190.833984" xlink:href="#DejaVuSans-97"/>
      <use x="252.113281" xlink:href="#DejaVuSans-110"/>
      <use x="315.492188" xlink:href="#DejaVuSans-116"/>
      <use x="354.701172" xlink:href="#DejaVuSans-32"/>
      <use x="386.488281" xlink:href="#DejaVuSans-66"/>
     </g>
    </g>
    <g id="line2d_37">
     <path d="M 69.054375 94.804688 
L 101.054375 94.804688 
" style="fill:none;stroke:#ff0000;stroke-linecap:square;stroke-width:2;"/>
    </g>
    <g id="line2d_38">
     <g>
      <use style="fill:#ff0000;stroke:#ff0000;stroke-linejoin:miter;" x="85.054375" xlink:href="#macdeebde0d" y="94.804688"/>
     </g>
    </g>
    <g id="text_20">
     <!-- Variant C -->
     <g transform="translate(113.854375 100.404688)scale(0.16 -0.16)">
      <use xlink:href="#DejaVuSans-86"/>
      <use x="60.658203" xlink:href="#DejaVuSans-97"/>
      <use x="121.9375" xlink:href="#DejaVuSans-114"/>
      <use x="163.050781" xlink:href="#DejaVuSans-105"/>
      <use x="190.833984" xlink:href="#DejaVuSans-97"/>
      <use x="252.113281" xlink:href="#DejaVuSans-110"/>
      <use x="315.492188" xlink:href="#DejaVuSans-116"/>
      <use x="354.701172" xlink:href="#DejaVuSans-32"/>
      <use x="386.488281" xlink:href="#DejaVuSans-67"/>
     </g>
    </g>
    <g id="line2d_39">
     <path d="M 69.054375 118.289688 
L 101.054375 118.289688 
" style="fill:none;stroke:#bf00bf;stroke-linecap:square;stroke-width:2;"/>
    </g>
    <g id="line2d_40">
     <g>
      <use style="fill:#bf00bf;stroke:#bf00bf;stroke-linejoin:miter;" x="85.054375" xlink:href="#m695cd16c4e" y="118.289688"/>
     </g>
    </g>
    <g id="text_21">
     <!-- Variant D -->
     <defs>
      <path d="M 19.671875 64.796875 
L 19.671875 8.109375 
L 31.59375 8.109375 
Q 46.6875 8.109375 53.6875 14.9375 
Q 60.6875 21.78125 60.6875 36.53125 
Q 60.6875 51.171875 53.6875 57.984375 
Q 46.6875 64.796875 31.59375 64.796875 
z
M 9.8125 72.90625 
L 30.078125 72.90625 
Q 51.265625 72.90625 61.171875 64.09375 
Q 71.09375 55.28125 71.09375 36.53125 
Q 71.09375 17.671875 61.125 8.828125 
Q 51.171875 0 30.078125 0 
L 9.8125 0 
z
" id="DejaVuSans-68"/>
     </defs>
     <g transform="translate(113.854375 123.889688)scale(0.16 -0.16)">
      <use xlink:href="#DejaVuSans-86"/>
      <use x="60.658203" xlink:href="#DejaVuSans-97"/>
      <use x="121.9375" xlink:href="#DejaVuSans-114"/>
      <use x="163.050781" xlink:href="#DejaVuSans-105"/>
      <use x="190.833984" xlink:href="#DejaVuSans-97"/>
      <use x="252.113281" xlink:href="#DejaVuSans-110"/>
      <use x="315.492188" xlink:href="#DejaVuSans-116"/>
      <use x="354.701172" xlink:href="#DejaVuSans-32"/>
      <use x="386.488281" xlink:href="#DejaVuSans-68"/>
     </g>
    </g>
   </g>
  </g>
 </g>
 <defs>
  <clipPath id="pe7ab55c85a">
   <rect height="277.2" width="446.4" x="54.654375" y="26.877188"/>
  </clipPath>
 </defs>
</svg>
